<?xml version="1.0" encoding="UTF-8" standalone="no"?>
<!DOCTYPE svg PUBLIC "-//W3C//DTD SVG 1.1//EN" "http://www.w3.org/Graphics/SVG/1.1/DTD/svg11.dtd">
<svg width="100%" height="100%" viewBox="0 0 2371 1471" version="1.1" xmlns="http://www.w3.org/2000/svg" xmlns:xlink="http://www.w3.org/1999/xlink" xml:space="preserve" xmlns:serif="http://www.serif.com/" style="fill-rule:evenodd;clip-rule:evenodd;stroke-linejoin:round;stroke-miterlimit:2;">
    <g transform="matrix(4.16667,0,0,4.16667,0,0)">
        <rect x="0" y="0" width="569" height="353" style="fill:rgb(186,156,49);fill-rule:nonzero;"/>
        <path d="M156.174,144.43C154.595,146.094 153.805,148.476 153.805,151.578L153.805,155.25L148.788,155.25L148.788,157.997L153.805,157.997L153.805,185.58L157.17,185.58L157.17,157.997L164.401,157.997L164.401,155.25L157.17,155.25L157.17,151.494C157.17,149.382 157.683,147.752 158.711,146.603C159.738,145.453 161.178,144.879 163.027,144.879C164.131,144.879 165.148,144.991 166.084,145.215L166.336,142.412C165.232,142.094 164.047,141.936 162.775,141.936C159.953,141.936 157.753,142.767 156.174,144.43Z" style="fill:white;fill-rule:nonzero;"/>
        <path d="M193.405,167.78L175.213,167.78C175.586,164.66 176.638,162.174 178.366,160.324C180.095,158.474 182.221,157.549 184.744,157.549C187.285,157.549 189.341,158.465 190.91,160.296C192.48,162.128 193.311,164.501 193.405,167.416L193.405,167.78ZM184.744,154.69C182.388,154.69 180.203,155.358 178.183,156.694C176.166,158.03 174.592,159.866 173.461,162.202C172.33,164.538 171.765,167.164 171.765,170.079L171.765,171.284C171.765,174.106 172.344,176.652 173.503,178.922C174.662,181.193 176.282,182.963 178.366,184.234C180.449,185.505 182.781,186.14 185.36,186.14C190.051,186.14 193.629,184.356 196.096,180.787L193.994,179.188C192.873,180.628 191.625,181.674 190.252,182.328C188.878,182.982 187.295,183.309 185.5,183.309C182.51,183.309 180.029,182.165 178.058,179.876C176.086,177.587 175.1,174.723 175.1,171.284L175.1,170.639L196.74,170.639L196.74,168.761C196.74,164.407 195.662,160.974 193.504,158.46C191.345,155.947 188.425,154.69 184.744,154.69Z" style="fill:white;fill-rule:nonzero;"/>
        <rect x="206.879" y="142.524" width="3.363" height="43.056" style="fill:white;fill-rule:nonzero;"/>
        <path d="M231.734,183.197C230.314,183.197 229.301,182.786 228.693,181.963C228.086,181.141 227.782,179.889 227.782,178.208L227.782,157.997L234.06,157.997L234.06,155.25L227.782,155.25L227.782,147.485L224.418,147.485L224.418,155.25L218.84,155.25L218.84,157.997L224.418,157.997L224.418,178.236C224.418,180.834 224.941,182.8 225.988,184.136C227.034,185.472 228.707,186.14 231.006,186.14C232.519,186.14 233.715,185.981 234.594,185.664L234.453,182.917C233.201,183.104 232.295,183.197 231.734,183.197Z" style="fill:white;fill-rule:nonzero;"/>
        <path d="M278.88,170.864C277.412,170.079 275.207,169.341 272.263,168.65C269.32,167.958 267.293,167.196 266.181,166.365C265.069,165.533 264.513,164.36 264.513,162.847C264.513,161.277 265.181,160.002 266.517,159.021C267.853,158.04 269.625,157.549 271.83,157.549C274.091,157.549 275.965,158.137 277.45,159.315C278.935,160.492 279.679,161.969 279.679,163.744L283.043,163.744C283.043,161.053 282.019,158.871 279.972,157.198C277.927,155.526 275.212,154.69 271.83,154.69C268.709,154.69 266.148,155.47 264.149,157.03C262.149,158.591 261.15,160.567 261.15,162.959C261.15,164.473 261.51,165.762 262.228,166.827C262.948,167.892 264.051,168.794 265.537,169.532C267.022,170.271 269.111,170.924 271.802,171.494C274.492,172.065 276.506,172.854 277.842,173.863C279.178,174.872 279.846,176.209 279.846,177.871C279.846,179.441 279.127,180.74 277.688,181.767C276.249,182.796 274.361,183.309 272.025,183.309C269.521,183.309 267.508,182.762 265.985,181.67C264.462,180.576 263.635,179.048 263.504,177.086L260.14,177.086C260.14,179.703 261.238,181.866 263.434,183.576C265.63,185.286 268.494,186.14 272.025,186.14C275.351,186.14 278.048,185.375 280.113,183.841C282.178,182.309 283.211,180.263 283.211,177.703C283.211,176.133 282.855,174.798 282.145,173.695C281.435,172.592 280.346,171.649 278.88,170.864Z" style="fill:white;fill-rule:nonzero;"/>
        <path d="M315.857,170.611C315.857,174.424 314.918,177.493 313.041,179.819C311.162,182.146 308.709,183.309 305.681,183.309C302.637,183.309 300.174,182.146 298.297,179.819C296.418,177.493 295.478,174.518 295.478,170.892L295.478,170.275C295.478,166.482 296.422,163.412 298.31,161.067C300.197,158.722 302.637,157.549 305.627,157.549C307.625,157.549 309.4,158.077 310.951,159.132C312.504,160.189 313.709,161.679 314.568,163.604C315.428,165.528 315.857,167.65 315.857,169.967L315.857,170.611ZM305.627,154.69C303.01,154.69 300.67,155.339 298.603,156.638C296.539,157.937 294.941,159.754 293.81,162.09C292.68,164.426 292.115,167.051 292.115,169.967L292.115,170.639C292.115,175.312 293.371,179.062 295.885,181.893C298.398,184.725 301.664,186.14 305.681,186.14C308.316,186.14 310.662,185.505 312.719,184.234C314.773,182.963 316.367,181.156 317.498,178.81C318.627,176.465 319.193,173.826 319.193,170.892L319.193,170.191C319.193,165.52 317.941,161.768 315.437,158.937C312.933,156.105 309.662,154.69 305.627,154.69Z" style="fill:white;fill-rule:nonzero;"/>
        <path d="M351.566,144.43C349.988,146.094 349.197,148.476 349.197,151.578L349.197,155.25L344.18,155.25L344.18,157.997L349.197,157.997L349.197,185.58L352.562,185.58L352.562,157.997L359.795,157.997L359.795,155.25L352.562,155.25L352.562,151.494C352.562,149.382 353.076,147.752 354.103,146.603C355.131,145.453 356.57,144.879 358.42,144.879C359.523,144.879 360.541,144.991 361.476,145.215L361.728,142.412C360.625,142.094 359.439,141.936 358.168,141.936C355.346,141.936 353.146,142.767 351.566,144.43Z" style="fill:white;fill-rule:nonzero;"/>
        <path d="M387.48,177.199C386.676,179.011 385.39,180.46 383.625,181.544C381.859,182.628 379.855,183.169 377.613,183.169C375.594,183.169 373.955,182.608 372.693,181.487C371.431,180.366 370.801,178.955 370.801,177.255C370.801,175.181 371.744,173.55 373.633,172.363C375.519,171.177 378.135,170.565 381.48,170.527L387.48,170.527L387.48,177.199ZM390.816,164.304C390.76,161.277 389.754,158.918 387.803,157.227C385.849,155.535 383.181,154.69 379.799,154.69C376.529,154.69 373.773,155.573 371.529,157.338C369.287,159.105 368.166,161.193 368.166,163.604L371.529,163.631C371.529,161.95 372.297,160.511 373.828,159.315C375.361,158.119 377.295,157.521 379.631,157.521C382.191,157.521 384.138,158.142 385.474,159.385C386.81,160.628 387.48,162.333 387.48,164.501L387.48,167.948L381.396,167.948C377.006,167.948 373.58,168.808 371.123,170.527C368.666,172.247 367.437,174.583 367.437,177.535C367.437,180.02 368.338,182.076 370.142,183.702C371.945,185.328 374.305,186.14 377.221,186.14C379.258,186.14 381.187,185.724 383.01,184.893C384.83,184.061 386.33,182.879 387.508,181.347C387.601,183.215 387.816,184.627 388.152,185.58L391.74,185.58L391.74,185.244C391.123,183.786 390.816,181.59 390.816,178.656L390.816,164.304Z" style="fill:white;fill-rule:nonzero;"/>
        <path d="M405.074,144.206C404.363,144.206 403.803,144.426 403.392,144.865C402.98,145.304 402.775,145.841 402.775,146.477C402.775,147.112 402.98,147.645 403.392,148.074C403.803,148.504 404.363,148.719 405.074,148.719C405.785,148.719 406.349,148.504 406.769,148.074C407.191,147.645 407.4,147.112 407.4,146.477C407.4,145.841 407.191,145.304 406.769,144.865C406.349,144.426 405.785,144.206 405.074,144.206Z" style="fill:white;fill-rule:nonzero;"/>
        <rect x="403.365" y="155.25" width="3.363" height="30.33" style="fill:white;fill-rule:nonzero;"/>
        <path d="M430.939,154.69C427.015,154.69 424.164,156.483 422.39,160.072L422.334,155.222L419.055,155.25L419.055,185.58L422.39,185.58L422.39,164.753C423.006,162.529 424.039,160.834 425.486,159.665C426.935,158.498 428.705,157.913 430.799,157.913C431.601,157.913 432.359,157.979 433.07,158.109L433.154,155.054C432.611,154.812 431.873,154.69 430.939,154.69Z" style="fill:white;fill-rule:nonzero;"/>
        <path d="M87.348,325.218C86.643,325.218 85.993,325.389 85.398,325.732C84.803,326.075 84.315,326.56 83.933,327.187L83.933,321.007L82.779,321.007L82.779,335.91L83.933,335.91L83.933,328.72C84.198,327.958 84.607,327.351 85.16,326.901C85.713,326.452 86.349,326.227 87.067,326.227C87.927,326.227 88.552,326.457 88.944,326.916C89.335,327.376 89.535,328.074 89.54,329.011L89.54,335.91L90.696,335.91L90.696,329.021C90.689,327.754 90.41,326.802 89.861,326.169C89.311,325.535 88.473,325.218 87.348,325.218Z" style="fill:rgb(13,67,31);fill-rule:nonzero;"/>
        <path d="M100.078,333.008C99.799,333.636 99.355,334.137 98.744,334.512C98.132,334.888 97.438,335.076 96.662,335.076C95.963,335.076 95.396,334.881 94.959,334.493C94.523,334.105 94.304,333.617 94.304,333.028C94.304,332.31 94.631,331.746 95.285,331.336C95.938,330.924 96.843,330.712 98.001,330.7L100.078,330.7L100.078,333.008ZM101.232,328.546C101.213,327.498 100.865,326.681 100.189,326.096C99.513,325.51 98.589,325.218 97.419,325.218C96.286,325.218 95.333,325.524 94.557,326.134C93.781,326.746 93.393,327.469 93.393,328.303L94.557,328.313C94.557,327.731 94.822,327.233 95.352,326.819C95.882,326.405 96.552,326.198 97.361,326.198C98.246,326.198 98.921,326.413 99.383,326.843C99.846,327.273 100.078,327.864 100.078,328.614L100.078,329.807L97.972,329.807C96.452,329.807 95.267,330.105 94.416,330.7C93.566,331.295 93.14,332.103 93.14,333.126C93.14,333.986 93.452,334.697 94.077,335.259C94.701,335.823 95.517,336.104 96.527,336.104C97.231,336.104 97.899,335.96 98.53,335.672C99.16,335.384 99.679,334.975 100.088,334.445C100.12,335.091 100.194,335.58 100.31,335.91L101.553,335.91L101.553,335.794C101.339,335.289 101.232,334.529 101.232,333.513L101.232,328.546Z" style="fill:rgb(13,67,31);fill-rule:nonzero;"/>
        <path d="M108.896,325.218C108.185,325.218 107.535,325.388 106.947,325.727C106.358,326.067 105.866,326.56 105.471,327.207L105.433,325.412L104.327,325.412L104.327,335.91L105.481,335.91L105.481,328.72C105.747,327.958 106.156,327.351 106.709,326.901C107.262,326.452 107.897,326.227 108.615,326.227C109.475,326.227 110.101,326.457 110.493,326.916C110.884,327.376 111.083,328.074 111.09,329.011L111.09,335.91L112.244,335.91L112.244,329.021C112.237,327.754 111.96,326.802 111.41,326.169C110.86,325.535 110.022,325.218 108.896,325.218Z" style="fill:rgb(13,67,31);fill-rule:nonzero;"/>
        <path d="M122.072,333.203C121.471,334.464 120.455,335.094 119.026,335.094C118.05,335.094 117.293,334.709 116.756,333.935C116.219,333.163 115.95,332.106 115.95,330.767C115.95,329.273 116.222,328.143 116.765,327.377C117.308,326.61 118.068,326.227 119.046,326.227C120.462,326.227 121.471,326.91 122.072,328.274L122.072,333.203ZM122.072,326.896C121.329,325.778 120.249,325.218 118.832,325.218C117.584,325.218 116.596,325.702 115.868,326.669C115.14,327.635 114.776,328.934 114.776,330.564L114.776,330.7C114.776,332.356 115.146,333.671 115.888,334.643C116.628,335.617 117.603,336.104 118.812,336.104C120.255,336.104 121.347,335.574 122.092,334.512L122.14,335.91L123.227,335.91L123.227,321.007L122.072,321.007L122.072,326.896Z" style="fill:rgb(13,67,31);fill-rule:nonzero;"/>
        <path d="M137.509,325.218C136.752,325.218 136.059,325.394 135.432,325.747C134.805,326.099 134.304,326.602 133.929,327.255C133.482,325.897 132.43,325.218 130.774,325.218C130.063,325.218 129.417,325.377 128.835,325.693C128.253,326.01 127.767,326.486 127.38,327.12L127.341,325.412L126.224,325.412L126.224,335.91L127.389,335.91L127.389,328.711C127.641,327.889 128.029,327.27 128.554,326.853C129.076,326.435 129.705,326.227 130.435,326.227C131.303,326.227 131.944,326.449 132.361,326.891C132.779,327.335 132.99,328.005 132.997,328.905L132.997,335.91L134.161,335.91L134.161,328.963C134.225,328.207 134.546,327.564 135.122,327.037C135.697,326.51 136.402,326.24 137.237,326.227C138.136,326.227 138.784,326.454 139.182,326.906C139.58,327.359 139.782,328.054 139.789,328.992L139.789,335.91L140.953,335.91L140.953,328.905C140.907,326.447 139.76,325.218 137.509,325.218Z" style="fill:rgb(13,67,31);fill-rule:nonzero;"/>
        <path d="M150.286,333.008C150.008,333.636 149.563,334.137 148.952,334.512C148.341,334.888 147.647,335.076 146.871,335.076C146.173,335.076 145.605,334.881 145.169,334.493C144.731,334.105 144.513,333.617 144.513,333.028C144.513,332.31 144.84,331.746 145.493,331.336C146.146,330.924 147.052,330.712 148.21,330.7L150.286,330.7L150.286,333.008ZM151.441,328.546C151.422,327.498 151.074,326.681 150.398,326.096C149.721,325.51 148.799,325.218 147.628,325.218C146.496,325.218 145.542,325.524 144.765,326.134C143.989,326.746 143.601,327.469 143.601,328.303L144.765,328.313C144.765,327.731 145.031,327.233 145.561,326.819C146.092,326.405 146.761,326.198 147.569,326.198C148.456,326.198 149.13,326.413 149.593,326.843C150.055,327.273 150.286,327.864 150.286,328.614L150.286,329.807L148.18,329.807C146.661,329.807 145.475,330.105 144.625,330.7C143.774,331.295 143.349,332.103 143.349,333.126C143.349,333.986 143.661,334.697 144.285,335.259C144.91,335.823 145.726,336.104 146.735,336.104C147.44,336.104 148.108,335.96 148.739,335.672C149.369,335.384 149.888,334.975 150.296,334.445C150.328,335.091 150.402,335.58 150.519,335.91L151.761,335.91L151.761,335.794C151.548,335.289 151.441,334.529 151.441,333.513L151.441,328.546Z" style="fill:rgb(13,67,31);fill-rule:nonzero;"/>
        <path d="M161.366,333.203C160.764,334.464 159.749,335.094 158.319,335.094C157.343,335.094 156.586,334.709 156.049,333.935C155.513,333.163 155.244,332.106 155.244,330.767C155.244,329.273 155.515,328.143 156.058,327.377C156.602,326.61 157.362,326.227 158.339,326.227C159.756,326.227 160.764,326.91 161.366,328.274L161.366,333.203ZM161.366,326.896C160.622,325.778 159.542,325.218 158.126,325.218C156.877,325.218 155.889,325.702 155.161,326.669C154.433,327.635 154.07,328.934 154.07,330.564L154.07,330.7C154.07,332.356 154.44,333.671 155.18,334.643C155.922,335.617 156.896,336.104 158.106,336.104C159.549,336.104 160.641,335.574 161.386,334.512L161.433,335.91L162.52,335.91L162.52,321.007L161.366,321.007L161.366,326.896Z" style="fill:rgb(13,67,31);fill-rule:nonzero;"/>
        <path d="M172.427,329.749L166.13,329.749C166.259,328.669 166.623,327.808 167.221,327.169C167.819,326.528 168.555,326.208 169.429,326.208C170.307,326.208 171.019,326.525 171.562,327.159C172.106,327.793 172.393,328.614 172.427,329.623L172.427,329.749ZM169.429,325.218C168.613,325.218 167.856,325.45 167.158,325.912C166.46,326.375 165.915,327.009 165.523,327.818C165.132,328.627 164.936,329.536 164.936,330.545L164.936,330.962C164.936,331.938 165.137,332.82 165.538,333.605C165.938,334.391 166.5,335.004 167.221,335.444C167.942,335.884 168.749,336.104 169.641,336.104C171.265,336.104 172.504,335.486 173.357,334.251L172.63,333.698C172.242,334.196 171.81,334.558 171.335,334.785C170.859,335.01 170.311,335.124 169.69,335.124C168.655,335.124 167.797,334.728 167.114,333.935C166.431,333.143 166.091,332.152 166.091,330.962L166.091,330.739L173.581,330.739L173.581,330.088C173.581,328.582 173.207,327.393 172.46,326.523C171.713,325.653 170.703,325.218 169.429,325.218Z" style="fill:rgb(13,67,31);fill-rule:nonzero;"/>
        <path d="M187.227,333.955C186.68,334.734 185.919,335.124 184.942,335.124C184.237,335.124 183.626,334.965 183.108,334.648C182.591,334.332 182.193,333.873 181.915,333.271L181.915,328.235C182.187,327.583 182.578,327.085 183.09,326.741C183.6,326.398 184.212,326.227 184.923,326.227C185.906,326.227 186.673,326.615 187.222,327.391C187.772,328.168 188.047,329.225 188.047,330.564C188.047,332.046 187.773,333.175 187.227,333.955ZM185.185,325.218C183.749,325.218 182.652,325.778 181.896,326.896L181.838,325.412L180.761,325.412L180.761,339.946L181.915,339.946L181.915,334.59C182.679,335.599 183.778,336.104 185.214,336.104C186.43,336.104 187.4,335.624 188.125,334.663C188.849,333.703 189.212,332.404 189.212,330.767L189.212,330.603C189.212,328.915 188.854,327.595 188.139,326.644C187.425,325.693 186.439,325.218 185.185,325.218Z" style="fill:rgb(13,67,31);fill-rule:nonzero;"/>
        <path d="M192.936,327.081L192.918,325.402L191.782,325.412L191.782,335.91L192.936,335.91L192.936,328.701C193.15,327.931 193.508,327.344 194.009,326.94C194.51,326.536 195.123,326.334 195.847,326.334C196.126,326.334 196.388,326.356 196.634,326.402L196.662,325.344C196.474,325.26 196.22,325.218 195.896,325.218C194.538,325.218 193.552,325.838 192.936,327.081Z" style="fill:rgb(13,67,31);fill-rule:nonzero;"/>
        <path d="M206.044,330.729C206.044,332.048 205.72,333.111 205.069,333.916C204.419,334.721 203.57,335.124 202.522,335.124C201.468,335.124 200.616,334.721 199.966,333.916C199.315,333.111 198.991,332.081 198.991,330.826L198.991,330.612C198.991,329.299 199.317,328.237 199.971,327.425C200.624,326.614 201.468,326.208 202.503,326.208C203.195,326.208 203.809,326.39 204.346,326.755C204.883,327.122 205.301,327.637 205.597,328.303C205.895,328.969 206.044,329.704 206.044,330.505L206.044,330.729ZM202.503,325.218C201.597,325.218 200.787,325.443 200.072,325.892C199.357,326.342 198.805,326.971 198.413,327.779C198.022,328.587 197.826,329.497 197.826,330.505L197.826,330.739C197.826,332.356 198.262,333.654 199.132,334.634C200.001,335.614 201.132,336.104 202.522,336.104C203.434,336.104 204.246,335.884 204.958,335.444C205.669,335.004 206.221,334.379 206.612,333.567C207.003,332.755 207.199,331.841 207.199,330.826L207.199,330.584C207.199,328.966 206.765,327.668 205.898,326.688C205.032,325.708 203.9,325.218 202.503,325.218Z" style="fill:rgb(13,67,31);fill-rule:nonzero;"/>
        <path d="M216.426,333.203C215.824,334.464 214.808,335.094 213.379,335.094C212.402,335.094 211.645,334.709 211.108,333.935C210.572,333.163 210.304,332.106 210.304,330.767C210.304,329.273 210.575,328.143 211.118,327.377C211.662,326.61 212.422,326.227 213.398,326.227C214.815,326.227 215.824,326.91 216.426,328.274L216.426,333.203ZM216.426,326.896C215.681,325.778 214.601,325.218 213.185,325.218C211.936,325.218 210.949,325.702 210.221,326.669C209.493,327.635 209.13,328.934 209.13,330.564L209.13,330.7C209.13,332.356 209.5,333.671 210.24,334.643C210.981,335.617 211.956,336.104 213.166,336.104C214.608,336.104 215.701,335.574 216.445,334.512L216.493,335.91L217.58,335.91L217.58,321.007L216.426,321.007L216.426,326.896Z" style="fill:rgb(13,67,31);fill-rule:nonzero;"/>
        <path d="M227.369,333.008C226.923,334.4 225.859,335.094 224.178,335.094C222.56,335.094 221.752,334.095 221.752,332.097L221.752,325.412L220.597,325.412L220.597,332.243C220.61,333.516 220.908,334.479 221.49,335.129C222.072,335.779 222.923,336.104 224.042,336.104C225.575,336.104 226.69,335.596 227.388,334.581L227.408,335.91L228.534,335.91L228.534,325.412L227.369,325.412L227.369,333.008Z" style="fill:rgb(13,67,31);fill-rule:nonzero;"/>
        <path d="M232.982,327.342C233.561,326.586 234.375,326.208 235.423,326.208C236.244,326.208 236.925,326.46 237.465,326.964C238.005,327.469 238.301,328.132 238.352,328.954L239.469,328.954C239.416,327.835 239.017,326.932 238.27,326.247C237.523,325.561 236.574,325.218 235.423,325.218C234.516,325.218 233.726,325.435 233.051,325.868C232.374,326.301 231.855,326.916 231.493,327.712C231.131,328.507 230.95,329.422 230.95,330.458L230.95,330.806C230.95,332.423 231.352,333.711 232.158,334.668C232.963,335.626 234.055,336.104 235.432,336.104C236.131,336.104 236.786,335.955 237.396,335.658C238.008,335.36 238.498,334.948 238.867,334.421C239.235,333.893 239.435,333.309 239.469,332.67L238.352,332.67C238.307,333.394 238.012,333.984 237.465,334.44C236.918,334.896 236.24,335.124 235.432,335.124C234.378,335.124 233.561,334.749 232.982,333.999C232.403,333.249 232.114,332.204 232.114,330.865L232.114,330.525C232.114,329.161 232.403,328.099 232.982,327.342Z" style="fill:rgb(13,67,31);fill-rule:nonzero;"/>
        <path d="M244.96,335.086C244.468,335.086 244.117,334.943 243.907,334.658C243.697,334.374 243.592,333.94 243.592,333.358L243.592,326.363L245.764,326.363L245.764,325.412L243.592,325.412L243.592,322.724L242.428,322.724L242.428,325.412L240.497,325.412L240.497,326.363L242.428,326.363L242.428,333.368C242.428,334.267 242.608,334.948 242.971,335.41C243.333,335.873 243.912,336.104 244.708,336.104C245.231,336.104 245.645,336.048 245.949,335.939L245.901,334.988C245.468,335.052 245.154,335.086 244.96,335.086Z" style="fill:rgb(13,67,31);fill-rule:nonzero;"/>
        <path d="M254.123,330.816C253.615,330.545 252.852,330.289 251.834,330.049C250.814,329.81 250.113,329.546 249.728,329.259C249.344,328.971 249.151,328.565 249.151,328.042C249.151,327.498 249.382,327.056 249.845,326.717C250.306,326.378 250.92,326.208 251.683,326.208C252.466,326.208 253.114,326.412 253.629,326.819C254.142,327.226 254.399,327.737 254.399,328.352L255.564,328.352C255.564,327.421 255.21,326.666 254.502,326.087C253.793,325.507 252.853,325.218 251.683,325.218C250.602,325.218 249.717,325.488 249.024,326.028C248.333,326.568 247.986,327.253 247.986,328.08C247.986,328.604 248.111,329.05 248.36,329.419C248.609,329.788 248.991,330.1 249.505,330.355C250.019,330.611 250.742,330.837 251.674,331.035C252.604,331.232 253.302,331.505 253.764,331.854C254.226,332.204 254.458,332.666 254.458,333.242C254.458,333.785 254.209,334.235 253.711,334.59C253.213,334.946 252.559,335.124 251.751,335.124C250.884,335.124 250.187,334.935 249.66,334.556C249.133,334.178 248.846,333.649 248.802,332.97L247.638,332.97C247.638,333.876 248.017,334.625 248.777,335.216C249.537,335.808 250.528,336.104 251.751,336.104C252.902,336.104 253.835,335.838 254.55,335.308C255.264,334.778 255.622,334.07 255.622,333.183C255.622,332.64 255.499,332.177 255.254,331.796C255.008,331.415 254.631,331.087 254.123,330.816Z" style="fill:rgb(13,67,31);fill-rule:nonzero;"/>
        <rect x="263.297" y="325.412" width="1.164" height="10.498" style="fill:rgb(13,67,31);fill-rule:nonzero;"/>
        <path d="M263.888,321.589C263.642,321.589 263.448,321.666 263.306,321.817C263.164,321.969 263.093,322.156 263.093,322.376C263.093,322.595 263.164,322.78 263.306,322.928C263.448,323.077 263.642,323.151 263.888,323.151C264.134,323.151 264.33,323.077 264.475,322.928C264.621,322.78 264.693,322.595 264.693,322.376C264.693,322.156 264.621,321.969 264.475,321.817C264.33,321.666 264.134,321.589 263.888,321.589Z" style="fill:rgb(13,67,31);fill-rule:nonzero;"/>
        <path d="M272.183,325.218C271.472,325.218 270.822,325.388 270.234,325.727C269.645,326.067 269.153,326.56 268.759,327.207L268.721,325.412L267.614,325.412L267.614,335.91L268.768,335.91L268.768,328.72C269.034,327.958 269.443,327.351 269.996,326.901C270.549,326.452 271.184,326.227 271.902,326.227C272.763,326.227 273.388,326.457 273.78,326.916C274.171,327.376 274.37,328.074 274.377,329.011L274.377,335.91L275.531,335.91L275.531,329.021C275.524,327.754 275.247,326.802 274.697,326.169C274.147,325.535 273.309,325.218 272.183,325.218Z" style="fill:rgb(13,67,31);fill-rule:nonzero;"/>
        <path d="M289.933,333.96C289.392,334.716 288.644,335.094 287.687,335.094C286.213,335.094 285.184,334.435 284.602,333.116L284.602,328.38C284.867,327.676 285.259,327.14 285.776,326.775C286.293,326.41 286.924,326.227 287.668,326.227C288.644,326.227 289.402,326.604 289.937,327.357C290.474,328.111 290.744,329.18 290.744,330.564C290.744,332.071 290.472,333.203 289.933,333.96ZM287.881,325.218C286.431,325.218 285.34,325.791 284.602,326.935L284.602,321.007L283.448,321.007L283.448,335.91L284.534,335.91L284.583,334.474C285.333,335.56 286.439,336.104 287.9,336.104C289.123,336.104 290.097,335.624 290.822,334.663C291.545,333.703 291.908,332.404 291.908,330.767L291.908,330.593C291.908,328.905 291.547,327.587 290.826,326.639C290.105,325.692 289.123,325.218 287.881,325.218Z" style="fill:rgb(13,67,31);fill-rule:nonzero;"/>
        <path d="M300.863,333.008C300.585,333.636 300.14,334.137 299.529,334.512C298.918,334.888 298.224,335.076 297.448,335.076C296.75,335.076 296.181,334.881 295.745,334.493C295.308,334.105 295.091,333.617 295.091,333.028C295.091,332.31 295.417,331.746 296.07,331.336C296.723,330.924 297.629,330.712 298.787,330.7L300.863,330.7L300.863,333.008ZM302.017,328.546C301.998,327.498 301.65,326.681 300.974,326.096C300.299,325.51 299.376,325.218 298.205,325.218C297.073,325.218 296.119,325.524 295.343,326.134C294.566,326.746 294.179,327.469 294.179,328.303L295.343,328.313C295.343,327.731 295.608,327.233 296.138,326.819C296.669,326.405 297.338,326.198 298.146,326.198C299.033,326.198 299.707,326.413 300.17,326.843C300.632,327.273 300.863,327.864 300.863,328.614L300.863,329.807L298.758,329.807C297.238,329.807 296.053,330.105 295.202,330.7C294.351,331.295 293.926,332.103 293.926,333.126C293.926,333.986 294.238,334.697 294.862,335.259C295.486,335.823 296.304,336.104 297.312,336.104C298.017,336.104 298.685,335.96 299.315,335.672C299.946,335.384 300.466,334.975 300.873,334.445C300.905,335.091 300.979,335.58 301.096,335.91L302.338,335.91L302.338,335.794C302.125,335.289 302.017,334.529 302.017,333.513L302.017,328.546Z" style="fill:rgb(13,67,31);fill-rule:nonzero;"/>
        <rect x="305.249" y="321.007" width="1.164" height="14.903" style="fill:rgb(13,67,31);fill-rule:nonzero;"/>
        <path d="M315.96,333.008C315.681,333.636 315.237,334.137 314.626,334.512C314.014,334.888 313.321,335.076 312.545,335.076C311.846,335.076 311.278,334.881 310.842,334.493C310.405,334.105 310.187,333.617 310.187,333.028C310.187,332.31 310.513,331.746 311.167,331.336C311.82,330.924 312.725,330.712 313.884,330.7L315.96,330.7L315.96,333.008ZM317.114,328.546C317.095,327.498 316.747,326.681 316.071,326.096C315.395,325.51 314.472,325.218 313.302,325.218C312.17,325.218 311.216,325.524 310.439,326.134C309.663,326.746 309.275,327.469 309.275,328.303L310.439,328.313C310.439,327.731 310.705,327.233 311.235,326.819C311.765,326.405 312.434,326.198 313.243,326.198C314.13,326.198 314.804,326.413 315.266,326.843C315.728,327.273 315.96,327.864 315.96,328.614L315.96,329.807L313.854,329.807C312.335,329.807 311.149,330.105 310.299,330.7C309.448,331.295 309.022,332.103 309.022,333.126C309.022,333.986 309.335,334.697 309.959,335.259C310.583,335.823 311.4,336.104 312.409,336.104C313.114,336.104 313.782,335.96 314.412,335.672C315.043,335.384 315.562,334.975 315.97,334.445C316.002,335.091 316.076,335.58 316.192,335.91L317.434,335.91L317.434,335.794C317.221,335.289 317.114,334.529 317.114,333.513L317.114,328.546Z" style="fill:rgb(13,67,31);fill-rule:nonzero;"/>
        <path d="M324.778,325.218C324.067,325.218 323.417,325.388 322.828,325.727C322.24,326.067 321.748,326.56 321.353,327.207L321.314,325.412L320.209,325.412L320.209,335.91L321.363,335.91L321.363,328.72C321.629,327.958 322.038,327.351 322.591,326.901C323.143,326.452 323.779,326.227 324.497,326.227C325.357,326.227 325.983,326.457 326.375,326.916C326.765,327.376 326.965,328.074 326.971,329.011L326.971,335.91L328.126,335.91L328.126,329.021C328.119,327.754 327.841,326.802 327.291,326.169C326.741,325.535 325.904,325.218 324.778,325.218Z" style="fill:rgb(13,67,31);fill-rule:nonzero;"/>
        <path d="M332.555,327.342C333.134,326.586 333.947,326.208 334.995,326.208C335.816,326.208 336.497,326.46 337.037,326.964C337.577,327.469 337.873,328.132 337.925,328.954L339.041,328.954C338.989,327.835 338.59,326.932 337.843,326.247C337.096,325.561 336.146,325.218 334.995,325.218C334.09,325.218 333.299,325.435 332.623,325.868C331.947,326.301 331.428,326.916 331.065,327.712C330.703,328.507 330.522,329.422 330.522,330.458L330.522,330.806C330.522,332.423 330.925,333.711 331.73,334.668C332.535,335.626 333.627,336.104 335.005,336.104C335.703,336.104 336.358,335.955 336.97,335.658C337.581,335.36 338.07,334.948 338.439,334.421C338.807,333.893 339.009,333.309 339.041,332.67L337.925,332.67C337.88,333.394 337.584,333.984 337.037,334.44C336.49,334.896 335.813,335.124 335.005,335.124C333.95,335.124 333.134,334.749 332.555,333.999C331.975,333.249 331.686,332.204 331.686,330.865L331.686,330.525C331.686,329.161 331.975,328.099 332.555,327.342Z" style="fill:rgb(13,67,31);fill-rule:nonzero;"/>
        <path d="M348.21,329.749L341.913,329.749C342.043,328.669 342.406,327.808 343.005,327.169C343.602,326.528 344.339,326.208 345.212,326.208C346.092,326.208 346.803,326.525 347.346,327.159C347.889,327.793 348.178,328.614 348.21,329.623L348.21,329.749ZM345.212,325.218C344.397,325.218 343.64,325.45 342.941,325.912C342.243,326.375 341.698,327.009 341.306,327.818C340.915,328.627 340.72,329.536 340.72,330.545L340.72,330.962C340.72,331.938 340.92,332.82 341.321,333.605C341.722,334.391 342.283,335.004 343.005,335.444C343.725,335.884 344.533,336.104 345.426,336.104C347.049,336.104 348.287,335.486 349.141,334.251L348.414,333.698C348.025,334.196 347.594,334.558 347.118,334.785C346.642,335.01 346.095,335.124 345.473,335.124C344.439,335.124 343.58,334.728 342.898,333.935C342.216,333.143 341.874,332.152 341.874,330.962L341.874,330.739L349.364,330.739L349.364,330.088C349.364,328.582 348.991,327.393 348.244,326.523C347.497,325.653 346.486,325.218 345.212,325.218Z" style="fill:rgb(13,67,31);fill-rule:nonzero;"/>
        <path d="M365.974,333.464L365.751,334.484L365.479,333.378L362.986,325.412L361.996,325.412L359.473,333.446L359.241,334.396L359.066,333.494L356.845,325.412L355.651,325.412L358.697,335.91L359.687,335.91L362.336,327.595L362.462,327.013L362.588,327.586L365.285,335.91L366.275,335.91L369.331,325.412L368.128,325.412L365.974,333.464Z" style="fill:rgb(13,67,31);fill-rule:nonzero;"/>
        <path d="M372.261,321.589C372.014,321.589 371.82,321.666 371.679,321.817C371.536,321.969 371.465,322.156 371.465,322.376C371.465,322.595 371.536,322.78 371.679,322.928C371.82,323.077 372.014,323.151 372.261,323.151C372.507,323.151 372.702,323.077 372.847,322.928C372.993,322.78 373.066,322.595 373.066,322.376C373.066,322.156 372.993,321.969 372.847,321.817C372.702,321.666 372.507,321.589 372.261,321.589Z" style="fill:rgb(13,67,31);fill-rule:nonzero;"/>
        <rect x="371.669" y="325.412" width="1.164" height="10.498" style="fill:rgb(13,67,31);fill-rule:nonzero;"/>
        <path d="M379.16,335.086C378.668,335.086 378.317,334.943 378.107,334.658C377.896,334.374 377.792,333.94 377.792,333.358L377.792,326.363L379.965,326.363L379.965,325.412L377.792,325.412L377.792,322.724L376.628,322.724L376.628,325.412L374.697,325.412L374.697,326.363L376.628,326.363L376.628,333.368C376.628,334.267 376.808,334.948 377.171,335.41C377.533,335.873 378.112,336.104 378.907,336.104C379.431,336.104 379.846,336.048 380.149,335.939L380.1,334.988C379.667,335.052 379.353,335.086 379.16,335.086Z" style="fill:rgb(13,67,31);fill-rule:nonzero;"/>
        <path d="M386.94,325.218C386.235,325.218 385.586,325.389 384.99,325.732C384.395,326.075 383.907,326.56 383.525,327.187L383.525,321.007L382.371,321.007L382.371,335.91L383.525,335.91L383.525,328.72C383.791,327.958 384.2,327.351 384.753,326.901C385.305,326.452 385.941,326.227 386.659,326.227C387.519,326.227 388.145,326.457 388.537,326.916C388.928,327.376 389.127,328.074 389.134,329.011L389.134,335.91L390.288,335.91L390.288,329.021C390.281,327.754 390.003,326.802 389.453,326.169C388.903,325.535 388.066,325.218 386.94,325.218Z" style="fill:rgb(13,67,31);fill-rule:nonzero;"/>
        <path d="M404.662,333.955C404.115,334.734 403.353,335.124 402.377,335.124C401.672,335.124 401.06,334.965 400.543,334.648C400.025,334.332 399.628,333.873 399.349,333.271L399.349,328.235C399.621,327.583 400.013,327.085 400.523,326.741C401.034,326.398 401.645,326.227 402.357,326.227C403.341,326.227 404.107,326.615 404.657,327.391C405.207,328.168 405.481,329.225 405.481,330.564C405.481,332.046 405.208,333.175 404.662,333.955ZM402.619,325.218C401.183,325.218 400.087,325.778 399.33,326.896L399.272,325.412L398.195,325.412L398.195,339.946L399.349,339.946L399.349,334.59C400.113,335.599 401.213,336.104 402.648,336.104C403.864,336.104 404.835,335.624 405.559,334.663C406.283,333.703 406.645,332.404 406.645,330.767L406.645,330.603C406.645,328.915 406.288,327.595 405.573,326.644C404.859,325.693 403.874,325.218 402.619,325.218Z" style="fill:rgb(13,67,31);fill-rule:nonzero;"/>
        <rect x="409.352" y="321.007" width="1.164" height="14.903" style="fill:rgb(13,67,31);fill-rule:nonzero;"/>
        <path d="M420.063,333.008C419.785,333.636 419.341,334.137 418.729,334.512C418.118,334.888 417.425,335.076 416.648,335.076C415.95,335.076 415.382,334.881 414.945,334.493C414.509,334.105 414.291,333.617 414.291,333.028C414.291,332.31 414.617,331.746 415.27,331.336C415.924,330.924 416.829,330.712 417.987,330.7L420.063,330.7L420.063,333.008ZM421.218,328.546C421.198,327.498 420.85,326.681 420.175,326.096C419.499,325.51 418.576,325.218 417.405,325.218C416.273,325.218 415.319,325.524 414.543,326.134C413.766,326.746 413.379,327.469 413.379,328.303L414.543,328.313C414.543,327.731 414.808,327.233 415.339,326.819C415.869,326.405 416.538,326.198 417.346,326.198C418.233,326.198 418.907,326.413 419.37,326.843C419.832,327.273 420.063,327.864 420.063,328.614L420.063,329.807L417.958,329.807C416.438,329.807 415.253,330.105 414.402,330.7C413.552,331.295 413.126,332.103 413.126,333.126C413.126,333.986 413.438,334.697 414.062,335.259C414.686,335.823 415.504,336.104 416.513,336.104C417.218,336.104 417.886,335.96 418.515,335.672C419.146,335.384 419.666,334.975 420.073,334.445C420.105,335.091 420.18,335.58 420.296,335.91L421.538,335.91L421.538,335.794C421.325,335.289 421.218,334.529 421.218,333.513L421.218,328.546Z" style="fill:rgb(13,67,31);fill-rule:nonzero;"/>
        <path d="M428.883,325.218C428.172,325.218 427.521,325.388 426.932,325.727C426.345,326.067 425.852,326.56 425.458,327.207L425.419,325.412L424.313,325.412L424.313,335.91L425.468,335.91L425.468,328.72C425.733,327.958 426.142,327.351 426.695,326.901C427.248,326.452 427.884,326.227 428.601,326.227C429.462,326.227 430.088,326.457 430.479,326.916C430.87,327.376 431.069,328.074 431.076,329.011L431.076,335.91L432.23,335.91L432.23,329.021C432.223,327.754 431.945,326.802 431.395,326.169C430.846,325.535 430.009,325.218 428.883,325.218Z" style="fill:rgb(13,67,31);fill-rule:nonzero;"/>
        <path d="M442.078,329.749L435.781,329.749C435.911,328.669 436.274,327.808 436.873,327.169C437.471,326.528 438.207,326.208 439.08,326.208C439.96,326.208 440.671,326.525 441.215,327.159C441.758,327.793 442.046,328.614 442.078,329.623L442.078,329.749ZM439.08,325.218C438.265,325.218 437.509,325.45 436.809,325.912C436.111,326.375 435.566,327.009 435.175,327.818C434.783,328.627 434.588,329.536 434.588,330.545L434.588,330.962C434.588,331.938 434.788,332.82 435.189,333.605C435.591,334.391 436.151,335.004 436.873,335.444C437.594,335.884 438.401,336.104 439.294,336.104C440.917,336.104 442.155,335.486 443.01,334.251L442.282,333.698C441.893,334.196 441.462,334.558 440.986,334.785C440.511,335.01 439.963,335.124 439.342,335.124C438.307,335.124 437.448,334.728 436.766,333.935C436.084,333.143 435.742,332.152 435.742,330.962L435.742,330.739L443.232,330.739L443.232,330.088C443.232,328.582 442.859,327.393 442.112,326.523C441.365,325.653 440.354,325.218 439.08,325.218Z" style="fill:rgb(13,67,31);fill-rule:nonzero;"/>
        <path d="M448.666,335.086C448.174,335.086 447.823,334.943 447.613,334.658C447.402,334.374 447.298,333.94 447.298,333.358L447.298,326.363L449.471,326.363L449.471,325.412L447.298,325.412L447.298,322.724L446.134,322.724L446.134,325.412L444.203,325.412L444.203,326.363L446.134,326.363L446.134,333.368C446.134,334.267 446.314,334.948 446.677,335.41C447.039,335.873 447.618,336.104 448.413,336.104C448.937,336.104 449.351,336.048 449.655,335.939L449.606,334.988C449.173,335.052 448.859,335.086 448.666,335.086Z" style="fill:rgb(13,67,31);fill-rule:nonzero;"/>
        <path d="M463.655,329.749L457.358,329.749C457.488,328.669 457.851,327.808 458.45,327.169C459.048,326.528 459.784,326.208 460.657,326.208C461.537,326.208 462.248,326.525 462.792,327.159C463.335,327.793 463.623,328.614 463.655,329.623L463.655,329.749ZM460.657,325.218C459.843,325.218 459.086,325.45 458.387,325.912C457.688,326.375 457.143,327.009 456.752,327.818C456.36,328.627 456.165,329.536 456.165,330.545L456.165,330.962C456.165,331.938 456.365,332.82 456.766,333.605C457.168,334.391 457.728,335.004 458.45,335.444C459.171,335.884 459.978,336.104 460.871,336.104C462.494,336.104 463.732,335.486 464.587,334.251L463.859,333.698C463.471,334.196 463.039,334.558 462.563,334.785C462.088,335.01 461.54,335.124 460.919,335.124C459.885,335.124 459.025,334.728 458.344,333.935C457.661,333.143 457.319,332.152 457.319,330.962L457.319,330.739L464.809,330.739L464.809,330.088C464.809,328.582 464.436,327.393 463.689,326.523C462.942,325.653 461.931,325.218 460.657,325.218Z" style="fill:rgb(13,67,31);fill-rule:nonzero;"/>
        <path d="M473.464,333.008C473.185,333.636 472.741,334.137 472.13,334.512C471.518,334.888 470.825,335.076 470.049,335.076C469.35,335.076 468.782,334.881 468.346,334.493C467.909,334.105 467.691,333.617 467.691,333.028C467.691,332.31 468.017,331.746 468.671,331.336C469.324,330.924 470.229,330.712 471.388,330.7L473.464,330.7L473.464,333.008ZM474.618,328.546C474.598,327.498 474.251,326.681 473.575,326.096C472.899,325.51 471.976,325.218 470.805,325.218C469.674,325.218 468.72,325.524 467.943,326.134C467.167,326.746 466.779,327.469 466.779,328.303L467.943,328.313C467.943,327.731 468.209,327.233 468.739,326.819C469.269,326.405 469.938,326.198 470.747,326.198C471.634,326.198 472.307,326.413 472.77,326.843C473.232,327.273 473.464,327.864 473.464,328.614L473.464,329.807L471.358,329.807C469.839,329.807 468.653,330.105 467.803,330.7C466.952,331.295 466.526,332.103 466.526,333.126C466.526,333.986 466.839,334.697 467.463,335.259C468.087,335.823 468.904,336.104 469.913,336.104C470.618,336.104 471.286,335.96 471.916,335.672C472.547,335.384 473.066,334.975 473.473,334.445C473.506,335.091 473.58,335.58 473.696,335.91L474.938,335.91L474.938,335.794C474.725,335.289 474.618,334.529 474.618,333.513L474.618,328.546Z" style="fill:rgb(13,67,31);fill-rule:nonzero;"/>
        <path d="M478.868,327.081L478.848,325.402L477.714,325.412L477.714,335.91L478.868,335.91L478.868,328.701C479.082,327.931 479.439,327.344 479.94,326.94C480.441,326.536 481.055,326.334 481.779,326.334C482.056,326.334 482.319,326.356 482.564,326.402L482.594,325.344C482.406,325.26 482.15,325.218 481.827,325.218C480.469,325.218 479.482,325.838 478.868,327.081Z" style="fill:rgb(13,67,31);fill-rule:nonzero;"/>
        <path d="M487.571,335.086C487.079,335.086 486.728,334.943 486.518,334.658C486.307,334.374 486.203,333.94 486.203,333.358L486.203,326.363L488.376,326.363L488.376,325.412L486.203,325.412L486.203,322.724L485.039,322.724L485.039,325.412L483.108,325.412L483.108,326.363L485.039,326.363L485.039,333.368C485.039,334.267 485.22,334.948 485.582,335.41C485.944,335.873 486.523,336.104 487.318,336.104C487.843,336.104 488.257,336.048 488.56,335.939L488.512,334.988C488.078,335.052 487.764,335.086 487.571,335.086Z" style="fill:rgb(13,67,31);fill-rule:nonzero;"/>
        <path d="M497.864,326.169C497.314,325.535 496.477,325.218 495.351,325.218C494.646,325.218 493.997,325.389 493.401,325.732C492.806,326.075 492.318,326.56 491.936,327.187L491.936,321.007L490.782,321.007L490.782,335.91L491.936,335.91L491.936,328.72C492.202,327.958 492.611,327.351 493.164,326.901C493.717,326.452 494.352,326.227 495.07,326.227C495.93,326.227 496.556,326.457 496.948,326.916C497.339,327.376 497.538,328.074 497.545,329.011L497.545,335.91L498.699,335.91L498.699,329.021C498.692,327.754 498.414,326.802 497.864,326.169Z" style="fill:rgb(13,67,31);fill-rule:nonzero;"/>
        <path d="M315.128,245.713L315.2,245.785L315.38,245.677L315.271,245.57L315.128,245.713Z" style="fill:rgb(224,219,110);fill-rule:nonzero;"/>
        <path d="M324.977,245.515L324.96,245.528L324.966,245.534L324.977,245.515Z" style="fill:rgb(224,219,110);fill-rule:nonzero;"/>
        <path d="M326.724,240.507L326.692,240.25L326.688,240.256L326.724,240.507Z" style="fill:rgb(224,219,110);fill-rule:nonzero;"/>
        <path d="M325.073,245.354L324.977,245.515L325.001,245.498L325.073,245.354Z" style="fill:rgb(224,219,110);fill-rule:nonzero;"/>
        <path d="M324.606,243.416L324.499,243.452L324.39,243.739L324.463,243.775L324.642,243.523L324.606,243.416Z" style="fill:rgb(224,219,110);fill-rule:nonzero;"/>
        <path d="M326.221,240.58L326.437,240.436L326.365,240.723L326.221,240.58ZM325.396,243.595L325.288,243.99L325.18,244.133L325.073,244.421L324.893,244.708L324.606,245.067L324.678,245.139L324.893,244.923L324.57,245.462L324.57,245.318L324.534,245.283L324.39,245.498L324.355,245.283L324.534,244.923L324.499,244.816L324.75,244.457L325.073,243.846L325.468,243.308L325.396,243.595ZM323.565,246.718L323.349,246.862L323.026,247.042L322.991,247.005L323.17,246.826L323.349,246.718L323.816,246.288L324.176,246.037L324.247,246.072L323.565,246.718ZM322.308,247.545L322.021,247.616L321.949,247.58L321.985,247.508L322.919,247.257L323.062,247.221L322.308,247.545ZM322.668,246.862L322.775,246.791L322.883,246.647L323.062,246.504L323.386,246.431L323.278,246.647L322.668,246.934L322.668,246.862ZM321.195,247.652L320.873,247.688L320.873,247.616L321.195,247.616L321.195,247.652ZM319.185,248.046L318.754,248.046L318.61,247.939L318.754,247.796L319.185,247.724L319.4,247.652L319.76,247.796L319.796,247.832L319.185,248.046ZM319.329,244.887L319.293,244.816L319.903,244.493L319.329,244.887ZM318.036,244.206L317.929,244.17L317.965,244.062L318.288,243.919L318.467,243.954L318.036,244.206ZM326.437,237.061L326.617,236.702L326.724,236.845L326.797,237.205L326.437,237.061ZM326.473,238.389L326.042,238.64L326.078,238.282L326.33,238.066L326.509,238.317L326.473,238.389ZM326.688,232.322L326.761,232.322L326.761,232.538L326.688,232.716L326.652,232.681L326.581,232.429L326.688,232.322ZM326.294,235.948L326.221,235.948L326.258,235.625L326.33,235.588L326.365,235.697L326.509,235.588L326.294,235.948ZM326.15,232.968L326.294,232.716L326.401,233.112L326.15,233.292L326.15,232.968ZM325.683,228.049L325.54,227.87L325.54,227.798L325.683,227.798L325.755,228.013L325.683,228.049ZM324.39,232.86L324.355,232.825L324.319,232.645L324.39,232.502L324.463,232.645L324.39,232.86ZM319.974,227.546L319.867,227.655L319.831,227.511L319.903,227.403L319.831,227.08L320.011,227.045L320.118,227.223L319.974,227.546ZM319.652,229.593L319.436,229.988L319.544,229.378L319.58,229.09L319.652,229.054L319.652,229.593ZM315.272,236.128L315.201,236.091L315.345,235.661L315.488,235.912L315.272,236.128ZM315.093,237.312L315.021,237.205L315.165,236.881L315.345,236.918L315.093,237.312ZM314.985,238.784L314.878,238.749L314.914,238.462L315.021,238.497L314.985,238.784ZM314.698,237.995L314.77,237.886L314.878,237.995L314.77,238.138L314.698,237.995ZM313.944,235.301L313.837,235.553L311.036,237.815L309.888,238.82L309.6,238.676L309.708,237.599L310.102,234.907L310.785,232.286L311.359,230.562L312.149,228.876L312.544,228.48L312.76,228.516L313.154,229.88L313.154,229.917L313.441,230.921L313.513,231.461L313.657,231.317L313.764,231.496L313.801,232.035L314.016,234.26L313.944,235.301ZM313.764,237.061L313.657,237.886L313.728,238.317L313.621,238.353L313.585,238.282L313.513,238.317L313.513,238.712L313.011,240.004L312.436,240.758L311.754,241.441L311.359,241.8L310.749,242.159L310.605,242.338L310.354,242.589L309.708,242.805L309.457,242.877L309.025,243.02L308.523,243.165L307.984,243.165L307.841,243.092L307.877,242.949L308.307,242.195L308.702,241.728L310.246,240.113L310.749,239.466L311.395,238.927L312.796,237.599L313.585,236.918L313.764,236.845L313.764,237.061ZM308.164,226.505L308.128,226.469L308.236,226.039L308.415,226.291L308.164,226.505ZM308.02,227.69L307.948,227.583L308.093,227.259L308.271,227.296L308.02,227.69ZM307.877,229.163L307.805,229.127L307.841,228.839L307.913,228.876L307.877,229.163ZM307.661,228.516L307.59,228.373L307.661,228.265L307.769,228.373L307.661,228.516ZM307.697,231.999L307.517,232.106L307.338,232.106L307.338,231.999L307.482,231.962L307.59,231.891L307.554,231.855L307.59,231.675L307.661,231.639L307.697,231.712L307.697,231.999ZM334.623,243.81L334.587,243.667L334.623,243.343L334.551,243.129L334.479,242.949L333.797,242.195L333.51,242.015L333.222,241.944L332.971,241.872L332.289,241.692L331.894,241.585L331.356,241.477L331.068,241.405L329.237,241.441L328.305,241.405L326.437,241.548L326.545,241.225L326.617,240.758L326.688,240.22L326.692,240.25L326.868,239.969L326.761,239.826L326.761,239.79L327.119,239.466L326.975,239.323L326.94,239.143L327.012,238.963L327.191,238.856L326.975,238.784L326.797,238.892L326.761,238.856L326.832,238.749L327.191,238.425L326.975,238.066L326.975,237.995L327.155,237.528L327.155,237.42L327.191,237.132L327.119,236.953L327.191,236.235L327.084,236.055L326.975,235.84L327.335,235.481L327.012,234.763L327.191,234.691L327.371,234.512L327.442,233.794L327.371,233.399L327.371,233.292L327.478,232.753L327.299,232.573L327.119,232.502L327.119,232.465L327.442,232.465L327.514,231.819L327.586,231.352L327.658,231.101L327.729,230.814L327.658,230.634L327.514,230.742L327.802,230.24L327.729,229.988L327.622,229.844L327.622,229.27L327.478,229.306L327.442,229.27L327.622,229.054L327.694,228.66L327.694,228.552L327.622,228.552L327.694,228.444L327.622,228.373L327.765,228.086L327.551,228.086L327.694,227.978L327.802,227.942L327.729,227.834L327.802,226.901L327.873,226.649L327.873,226.578L327.981,225.824L328.125,224.46L328.305,222.916L328.376,222.305L328.268,220.905L327.838,220.582L327.802,220.582L327.012,220.761L326.186,221.012L326.114,221.299L326.078,222.162L325.934,223.095L325.863,224.172L325.755,225.177L325.971,225.393L325.971,225.464L325.755,225.572L325.898,225.715L325.611,225.752L325.431,226.578L325.54,226.721L325.468,226.685L325.324,226.972L325.36,227.152L325.396,227.475L325.217,227.403L324.893,228.587L325.073,228.803L324.93,228.911L324.714,229.234L324.534,229.917L324.606,230.06L324.499,230.096L324.463,230.527L324.319,230.671L324.176,231.101L323.816,232.286L323.457,233.183L323.457,233.219L323.062,234.476L322.919,234.691L322.919,234.512L322.883,234.907L322.847,234.978L322.668,235.158L322.596,235.481L322.272,236.342L321.805,237.528L321.627,237.635L321.482,236.845L321.518,236.594L321.411,235.697L321.339,235.158L321.375,234.691L321.375,234.584L321.339,234.153L321.411,233.794L321.411,233.579L321.518,233.112L321.698,232.645L321.662,232.538L321.627,232.538L321.518,232.86L321.734,232.178L321.627,232.142L321.591,231.783L321.627,231.712L321.949,231.172L321.949,231.029L321.985,230.527L321.878,230.275L321.949,230.168L322.057,229.557L322.165,229.306L322.165,228.947L322.237,228.803L322.668,227.332L322.703,227.116L322.775,226.721L322.703,226.578L322.524,226.254L322.201,225.931L321.482,225.715L320.728,225.537L320.047,225.644L319.974,225.752L319.76,226.829L319.436,228.337L319.293,229.45L319.149,230.24L319.149,230.347L319.221,230.204L319.185,230.814L319.436,230.562L319.472,230.598L319.364,231.029L319.364,231.065L319.329,230.958L319.24,231.563L319.221,231.568L318.611,232.035L317.606,232.716L316.349,233.506L316.242,233.506L316.17,233.363L316.17,232.645L316.098,231.604L316.026,230.491L315.703,228.983L315.201,227.726L314.627,226.865L314.304,226.613L314.088,226.649L312.651,227.259L311.897,227.834L310.965,229.342L310.067,231.317L309.6,232.681L308.882,235.194L308.738,235.984L308.667,236.235L308.667,235.301L308.595,234.584L308.631,234.296L308.558,233.579L308.631,233.292L308.667,232.968L308.667,232.071L308.846,230.707L308.918,229.737L309.025,228.876L309.097,228.049L309.205,226.901L309.241,226.757L309.385,226.147L309.421,225.608L309.672,224.711L309.888,223.31L310.211,222.089L310.354,221.336L310.641,220.51L310.929,219.613L310.965,219.361L311.287,218.536L311.575,217.566L312.472,215.053L313.657,212.827L314.052,212.468L314.591,212.253L315.129,212.002L315.345,211.678L315.345,211.535L315.057,211.248L313.585,211.175L312.831,211.391L312.544,211.535L311.682,211.858L311.431,212.325L310.856,212.899L310.892,213.043L310.785,213.257L310.677,213.509L310.498,213.904L310.462,214.227L310.389,214.478L310.246,214.765L310.175,215.053L310.282,215.197L310.211,215.232L309.995,215.448L310.067,215.735L309.923,216.561L309.779,216.956L309.457,217.817L309.134,219.074L309.169,219.146L309.134,219.469L308.954,219.684L308.667,220.689L308.558,220.869L308.523,221.192L308.558,221.479L308.558,221.551L308.451,221.946L308.451,222.341L308.307,222.7L308.307,222.843L308.236,223.059L308.128,223.562L308.02,223.813L307.805,224.136L307.769,224.638L307.626,225.249L307.41,226.398L307.266,227.439L307.23,227.798L306.943,229.27L306.979,229.773L306.907,230.204L306.763,230.921L306.763,231.137L306.872,231.568L306.8,231.855L306.763,232.106L306.727,232.178L306.656,232.214L306.549,232.681L306.584,232.86L306.656,233.292L306.62,233.435L306.513,233.902L306.513,235.23L306.584,235.661L306.584,236.02L306.476,237.096L306.333,237.779L306.225,238.21L306.369,238.64L306.262,238.82L306.046,238.892L306.082,239.251L307.303,239.646L307.446,239.538L308.128,239.61L308.451,239.503L308.81,239.323L308.954,239.359L309.134,239.466L308.99,239.61L308.667,239.826L306.763,241.8L306.405,241.944L306.01,242.231L306.118,242.589L306.297,242.841L306.297,242.985L306.333,243.129L306.369,243.379L306.405,243.667L306.943,244.241L307.087,244.349L307.59,244.457L307.661,244.241L308.271,244.385L308.595,244.457L308.954,244.385L309.564,244.564L309.744,244.636L310.282,244.564L310.965,244.421L311.682,244.097L312.185,243.81L312.544,243.559L313.118,243.236L313.19,243.236L313.226,243.2L314.16,242.231L314.339,241.944L314.555,241.548L314.662,241.441L315.201,240.077L315.559,239.143L315.559,239L315.703,238.569L315.846,237.241L316.098,236.487L316.135,236.307L316.135,235.122L316.206,234.943L319.142,232.36L319.113,233.076L319.113,233.363L318.97,233.722L318.97,233.83L319.113,233.722L319.185,234.153L319.185,234.333L319.149,235.41L319.185,235.588L319.149,235.948L319.4,236.379L319.436,236.415L319.58,237.025L319.508,237.276L319.4,237.492L319.867,238.246L320.118,238.533L320.298,238.749L320.621,239L320.873,239L321.124,239.107L321.878,239L321.985,239L322.703,238.892L323.278,238.282L323.565,237.025L323.565,236.989L323.745,236.091L323.852,235.588L323.816,235.374L323.96,234.907L324.032,234.656L324.067,234.476L324.212,234.296L323.96,234.189L324.032,234.117L324.212,234.189L324.283,233.794L324.463,233.255L324.499,233.147L324.606,232.502L324.678,232.214L324.678,231.783L324.57,231.568L324.642,231.424L324.75,231.388L324.786,231.065L324.93,231.137L324.93,230.204L324.75,230.204L325.037,229.988L325.431,229.737L325.037,229.844L325.18,229.521L325.324,229.45L325.468,229.521L325.683,228.732L325.791,228.3L325.827,228.013L325.898,227.69L325.898,227.08L325.971,227.08L326.15,227.152L326.114,227.583L326.078,227.834L326.186,227.87L326.042,228.48L326.078,228.624L326.258,228.876L326.258,228.947L326.294,229.054L326.33,229.054L326.365,228.732L326.437,228.732L326.401,229.09L326.258,229.198L326.042,229.127L326.042,229.521L326.186,229.917L326.114,230.06L326.007,230.311L325.971,230.707L325.971,231.245L326.042,230.958L326.186,230.671L326.186,230.921L326.078,231.424L326.042,231.891L325.971,231.891L325.971,231.424L325.934,231.424L325.898,232.106L326.114,231.962L326.114,232.142L326.078,232.681L325.898,233.004L325.827,233.112L325.827,233.47L326.078,233.435L325.971,233.543L325.934,233.757L325.934,233.866L326.042,233.794L326.042,234.476L325.863,235.84L325.934,236.451L326.007,236.271L326.15,236.342L326.294,236.164L326.294,236.415L326.545,236.164L326.437,236.63L326.294,236.558L326.294,236.415L326.15,236.558L326.114,236.522L325.898,236.953L325.791,237.42L325.863,237.42L325.934,237.025L326.042,237.132L326.042,237.635L326.007,238.353L325.827,238.784L325.827,238.892L325.934,239.036L325.934,239.394L325.863,239.466L325.934,239.538L325.971,239.61L326.042,239.574L326.042,239.466L326.114,239.43L326.078,239L326.15,238.963L326.294,238.927L326.33,238.927L326.294,238.856L326.545,238.784L326.581,239.071L326.473,239.036L326.33,239.394L326.258,239.574L326.294,239.717L326.15,239.79L326.15,239.717L326.042,239.826L325.971,239.717L325.934,239.79L325.934,239.538L325.791,239.79L325.827,239.79L325.755,240.113L325.72,240.113L325.72,240.041L325.683,240.256L325.72,240.256L325.856,240.005L325.72,240.471L325.72,240.256L325.54,240.795L325.324,241.01L325.288,241.369L325.468,241.441L325.253,241.656L325.18,241.441L324.93,241.8L324.714,241.692L324.606,241.8L324.319,241.872L323.673,242.123L323.278,242.087L323.206,242.159L323.135,242.231L322.919,242.195L322.739,242.123L322.703,242.338L322.345,242.446L321.734,242.554L321.555,242.518L321.447,242.589L320.837,242.805L320.513,242.877L320.047,243.02L319.974,243.056L320.118,243.129L319.867,243.236L319.652,243.343L319.364,243.272L319.76,243.092L319.652,243.02L319.652,242.985L319.796,242.985L319.76,242.913L319.723,242.841L319.329,243.092L318.97,243.236L318.898,243.63L318.323,243.882L318.252,243.882L318.252,243.703L318.467,243.595L318.431,243.559L317.678,244.133L317.533,244.277L316.744,244.636L316.134,244.78L316.025,244.78L315.774,244.995L315.774,245.067L315.703,245.283L315.558,245.318L315.595,245.39L315.81,245.462L315.523,245.713L315.38,245.641L315.38,245.964L315.271,246.18L315.236,246.252L315.344,246.539L315.415,246.682L315.558,247.005L315.523,247.149L315.631,247.472L316.097,247.759L316.924,248.046L316.959,247.868L317.102,247.868L317.569,247.759L317.713,247.724L318.108,247.508L318.503,247.508L317.965,247.293L317.533,247.293L317.389,247.149L317.533,246.647L318.288,245.928L318.252,245.677L318.467,245.534L319.472,244.923L320.118,244.6L320.083,244.564L320.226,244.385L320.944,244.17L321.627,243.954L321.878,243.81L322.381,243.667L322.632,243.595L322.811,243.559L323.242,243.452L323.888,243.272L324.103,243.272L324.39,243.129L324.857,242.985L324.893,242.985L325.001,243.02L325.288,242.985L325.324,243.056L324.966,243.523L324.93,243.739L324.499,244.17L324.499,244.133L324.032,244.206L323.816,244.744L323.852,244.78L324.355,244.421L324.427,244.206L324.247,244.78L323.996,245.174L323.78,245.534L323.78,245.57L323.888,245.677L323.565,245.928L323.098,246.18L323.026,246.252L322.955,246.108L322.057,246.611L321.16,247.042L321.375,247.114L321.375,247.149L321.304,247.221L320.657,247.329L319.939,247.401L319.58,247.365L318.79,247.401L318.575,247.436L318.575,247.508L318.933,247.472L319.149,247.58L318.97,247.58L318.79,247.616L318.395,247.724L318.216,247.688L317.856,247.903L317.678,247.975L317.389,247.975L317.389,248.046L317.641,248.046L317.785,248.119L318.108,248.19L318.79,248.19L319.042,248.226L319.185,248.19L319.687,248.226L319.796,248.226L320.728,248.119L320.837,248.083L320.837,248.046L320.55,248.046L320.55,248.011L321.591,247.832L321.698,247.832L322.129,247.688L322.416,247.688L323.206,247.436L322.991,247.436L322.955,247.401L323.206,247.329L323.709,247.114L323.996,246.791L324.139,246.504L324.499,246.215L324.463,245.893L324.96,245.528L324.893,245.462L325.18,244.851L325.288,244.708L325.109,244.636L325.396,244.277L325.683,243.846L325.504,243.81L325.791,243.595L325.54,243.595L325.934,243.165L326.33,242.662L326.437,242.662L326.581,242.554L326.401,242.482L326.186,242.518L326.186,242.446L326.294,242.411L326.975,242.338L329.525,242.123L329.633,241.979L330.099,241.979L330.674,242.087L330.35,242.159L330.063,242.302L330.494,242.195L330.494,242.231L330.853,242.302L331.391,242.231L332.361,242.482L332.218,242.518L332.505,242.698L332.899,243.308L332.899,243.452L332.935,244.17L333.079,244.349L333.618,244.493L334.228,244.6L334.515,244.493L334.623,244.313L334.659,244.313L334.659,244.421L334.839,244.277L334.803,243.954L334.839,243.487L334.623,243.81Z" style="fill:rgb(224,219,110);fill-rule:nonzero;"/>
        <path d="M324.355,234.584L324.427,234.224L324.39,234.224L324.103,234.727L324.139,234.835L324.247,234.799L324.355,234.584Z" style="fill:rgb(224,219,110);fill-rule:nonzero;"/>
        <path d="M325.324,229.988L325.288,229.988L325.18,230.275L325.324,230.311L325.324,229.988Z" style="fill:rgb(224,219,110);fill-rule:nonzero;"/>
        <path d="M323.062,245.893L323.062,246.072L323.457,245.605L323.062,245.893Z" style="fill:rgb(224,219,110);fill-rule:nonzero;"/>
        <path d="M325.863,235.014L325.827,234.584L325.755,234.871L325.791,235.014L325.863,235.014Z" style="fill:rgb(224,219,110);fill-rule:nonzero;"/>
        <path d="M356.558,212.719L356.595,212.612L356.702,212.612L356.415,212.253L356.307,212.36L356.451,212.396L356.558,212.719Z" style="fill:rgb(224,219,110);fill-rule:nonzero;"/>
        <path d="M356.846,217.782L356.738,217.638L357.025,217.566L357.061,217.853L356.846,217.782ZM357.025,218.356L356.918,218.392L356.738,218.249L356.953,218.033L357.025,218.033L357.025,218.356ZM356.989,213.509L357.205,213.904L357.169,213.976L356.918,213.617L356.989,213.509ZM356.199,213.401L356.128,213.15L356.343,213.401L356.379,213.689L356.199,213.401ZM350.527,237.312L350.455,236.845L350.598,236.558L350.563,236.379L350.707,236.774L350.527,237.312ZM350.384,235.41L350.491,235.912L350.491,236.164L350.311,235.661L350.384,235.41ZM349.701,237.563L349.665,237.563L349.521,237.276L349.665,237.061L349.737,237.384L349.701,237.563ZM349.665,238.927L349.63,238.963L349.521,238.569L349.63,238.317L349.701,238.64L349.665,238.927ZM349.378,237.205L349.343,237.205L349.163,236.487L349.163,236.128L349.091,235.661L349.127,235.553L349.306,235.122L349.414,235.697L349.414,236.199L349.486,235.732L349.521,235.588L349.665,236.128L349.665,236.342L349.414,236.342L349.486,236.845L349.378,237.205ZM348.983,233.722L348.84,232.825L348.66,231.675L348.66,231.424L348.767,231.172L348.732,231.137L348.516,230.275L348.409,229.844L348.48,229.629L348.373,229.306L348.373,229.234L348.516,229.414L348.516,229.234L348.553,229.665L348.624,230.131L348.767,231.172L349.019,231.891L349.091,232.393L349.091,232.716L348.947,232.789L349.055,233.112L349.127,233.614L349.234,234.046L349.091,234.333L348.983,233.722ZM348.911,229.198L349.091,229.486L349.055,229.665L349.019,229.737L348.876,229.414L348.911,229.198ZM348.265,228.444L347.87,227.511L347.655,226.111L347.87,226.542L348.013,227.368L348.086,227.69L348.193,227.87L348.337,228.193L348.265,228.444ZM347.439,226.469L347.368,226.578L347.332,226.182L347.224,225.715L347.26,225.572L347.439,226.291L347.439,226.469ZM346.649,218.427L346.542,218.069L346.578,217.997L346.758,218.463L346.649,218.427ZM358.138,216.92L358.282,217.099L358.138,217.063L358.066,217.53L357.995,217.063L357.959,216.669L358.138,216.92ZM367.975,214.514L367.975,214.407L368.012,214.299L368.119,214.011L367.975,214.011L367.868,213.94L367.975,213.904L368.226,213.796L368.335,213.366L368.442,212.899L368.478,212.827L368.657,212.647L368.729,212.576L368.873,212.145L368.909,212.073L369.016,212.073L369.232,211.499L369.376,211.104L369.555,210.709L369.519,210.565L369.483,210.529L369.699,210.314L369.806,210.062L369.878,209.847L370.021,209.775L369.914,209.704L369.77,209.775L369.843,209.56L369.914,209.524L370.094,209.452L370.021,209.38L370.021,209.344L370.094,209.308L370.488,209.093L370.488,209.021L370.417,209.021L370.309,209.165L370.309,208.878L370.273,208.878L370.201,208.841L370.345,208.627L370.417,208.734L370.596,208.878L370.775,208.77L370.775,208.698L370.74,208.698L370.668,208.77L370.704,208.59L370.847,208.052L370.991,207.873L371.314,207.657L371.422,207.549L371.53,207.262L371.53,207.19L371.494,206.903L371.098,206.436L370.811,206.185L370.596,205.718L370.524,205.754L370.381,205.862L370.345,205.898L370.201,206.078L370.13,206.149L369.986,206.436L369.519,207.011L369.447,207.046L369.267,207.37L368.945,207.765L368.729,208.016L368.729,208.124L368.801,208.267L368.55,208.663L368.226,209.201L368.263,209.308L368.19,209.417L368.119,209.524L368.19,209.56L368.226,209.631L367.832,209.883L367.832,209.775L367.76,209.847L367.545,210.35L367.652,210.529L367.724,210.601L367.581,210.852L367.545,210.781L367.401,210.745L367.078,211.319L366.862,211.75L366.647,212.54L366.611,212.647L366.575,212.504L366.575,212.432L366.539,212.468L366.431,213.15L366.36,213.222L366.288,213.222L366.324,213.366L366.36,213.509L366.252,213.509L366.144,213.617L366.037,214.047L366.001,214.155L365.965,214.227L365.678,214.874L365.606,215.125L365.678,215.197L365.534,215.34L365.534,215.555L365.641,215.412L365.75,215.376L365.75,215.52L365.462,216.022L365.283,216.129L365.211,216.166L365.139,216.596L364.888,217.422L364.888,217.566L364.78,217.602L364.78,217.71L364.708,217.853L364.637,217.853L364.457,218.356L364.349,218.679L364.026,219.504L363.632,220.834L363.236,222.126L362.877,223.31L362.159,225.68L361.979,226.362L361.728,227.045L361.621,227.546L361.334,228.409L360.544,231.388L359.754,234.691L359.646,235.05L359.394,234.835L359.394,234.44L359.359,234.189L359.359,233.686L359.323,233.65L359.323,233.506L359.287,233.363L359.251,233.255L359.18,233.363L359.18,233.435L359.143,233.506L358.856,233.219L358.892,233.219L359.143,233.076L359.143,232.789L359.251,232.896L359.359,232.896L359.394,232.86L359.18,232.645L359.072,232.681L358.892,232.681L358.856,232.609L359.036,232.502L359.143,232.538L359.18,232.538L359.18,232.465L359.216,232.214L359.287,232.214L359.251,232.106L359.143,232.142L359.072,232.214L359.072,232.106L359.18,231.712L359.072,231.101L359.036,231.065L359.036,231.101L358.964,231.137L358.928,231.065L358.784,230.778L358.677,230.671L358.82,230.671L359.036,230.634L359,230.455L358.82,230.491L358.64,230.491L358.892,230.204L358.749,230.131L358.677,230.131L358.713,230.06L358.677,229.773L358.677,229.701L358.713,229.593L358.713,228.983L358.533,228.587L358.533,228.516L358.569,228.193L358.353,227.69L358.353,227.511L358.246,227.259L358.282,227.116L358.246,227.116L358.066,226.613L357.959,226.075L357.815,225.07L357.563,224.28L357.599,224.1L357.492,223.921L357.492,223.884L357.385,223.597L357.312,223.562L357.385,223.526L357.456,223.382L357.385,222.808L357.42,222.52L357.169,220.654L357.205,220.331L357.205,219.756L357.528,219.003L357.528,219.146L357.636,219.29L357.599,219.648L357.276,220.51L357.599,220.044L357.851,219.613L357.887,219.648L357.743,220.295L357.707,220.582L357.563,220.941L357.851,220.258L358.03,220.044L358.03,219.577L358.102,219.217L358.102,218.679L358.353,218.033L358.174,217.782L358.102,217.495L358.174,217.602L358.317,217.386L358.353,217.566L358.462,217.171L358.462,216.884L357.995,216.561L358.138,216.274L358.102,216.166L357.959,216.345L357.779,216.094L357.779,215.951L357.599,216.129L357.743,216.992L357.815,217.243L357.636,217.495L357.599,217.817L357.636,218.069L357.599,217.961L357.385,218.5L357.097,218.751L357.097,218.536L357.241,218.463L357.205,217.997L357.241,217.638L357.169,217.243L357.205,217.207L357.276,217.063L357.241,216.848L357.276,216.669L357.097,216.525L356.953,216.776L357.061,216.309L357.133,216.381L357.133,216.058L357.025,216.202L356.953,215.807L356.989,215.664L357.025,215.699L357.169,215.591L356.989,215.088L357.025,215.017L357.133,215.125L357.061,214.801L357.133,214.694L357.312,214.299L357.385,214.478L357.456,214.335L357.528,214.407L357.42,214.227L357.312,213.796L356.882,213.294L356.738,213.294L356.631,212.97L356.595,212.719L356.558,213.043L356.451,212.791L356.307,212.612L356.02,212.504L356.128,212.791L356.128,212.827L355.805,212.791L355.912,212.576L355.589,212.504L355.41,212.683L355.517,212.97L355.481,213.186L355.41,213.257L355.661,213.581L355.697,213.689L355.661,213.76L355.374,213.653L355.481,214.047L355.087,216.525L355.194,220.582L355.374,220.295L355.481,219.9L355.41,220.869L355.41,220.905L355.302,221.444L354.943,223.526L355.194,222.952L355.445,222.413L355.087,223.526L354.907,224.136L354.763,224.638L355.123,223.884L354.476,225.859L354.189,226.721L354.01,226.972L353.83,227.439L353.973,227.332L353.794,228.086L353.722,228.696L353.614,228.409L353.507,228.444L353.579,228.229L353.471,228.48L353.579,229.019L353.579,229.163L353.471,229.234L353.363,229.593L353.076,230.24L353.292,229.378L353.435,228.876L353.435,228.839L353.112,229.737L352.969,229.988L352.932,230.131L352.86,230.455L352.466,231.783L352.106,233.004L351.928,233.543L351.748,234.189L351.532,234.512L351.352,235.23L350.886,236.594L350.598,235.697L350.491,235.23L350.491,234.727L350.419,234.368L350.311,234.62L350.347,234.907L350.275,235.014L350.24,235.301L350.204,234.907L350.168,234.763L350.096,234.44L350.132,234.153L350.132,232.825L349.557,232.142L349.486,231.532L349.378,231.137L349.414,230.958L349.594,231.172L349.665,231.424L349.665,230.994L349.594,230.742L349.343,230.885L349.27,230.024L349.414,230.347L349.521,229.988L349.45,229.773L349.343,229.342L349.27,229.737L349.127,228.696L348.983,228.516L349.055,228.337L348.804,228.013L348.589,227.296L348.589,226.865L348.624,226.469L348.624,226.362L348.516,226.182L348.553,225.752L348.444,225.931L348.409,225.105L348.229,224.998L348.122,224.495L348.301,224.423L348.193,223.993L348.157,223.849L347.799,223.346L347.87,223.167L347.69,222.485L347.763,222.089L347.619,221.551L347.475,221.766L347.512,221.372L347.512,221.264L347.403,220.834L347.368,220.51L347.26,220.869L347.188,221.012L347.188,219.828L347.116,219.29L347.009,218.966L347.116,218.823L346.972,218.714L347.009,219.146L346.758,218.823L346.829,218.679L346.865,218.249L346.829,217.817L346.542,217.028L346.075,216.812L345.968,216.238L345.68,216.309L345.537,215.842L345.141,215.376L344.854,215.088L344.639,215.161L344.495,214.837L344.208,214.587L343.993,214.443L343.741,214.335L342.987,214.047L342.233,214.047C340.965,214.431 339.912,214.981 339.074,215.699C338.332,216.37 337.769,217.16 337.387,218.069L336.202,221.372L336.058,221.91L336.058,222.018L336.166,222.592L336.166,222.736L336.131,223.059L336.274,223.31L336.346,223.31L336.741,223.597L336.956,223.31L336.92,223.059L337.028,222.7L337.136,221.299L337.638,219.792L337.997,218.966L338.32,218.249L338.894,217.422L339.792,216.489C340.318,216.01 340.941,215.759 341.659,215.735L342.413,215.879L343.274,216.74L343.454,216.956L343.67,217.135L343.993,217.853L344.424,218.356L344.567,218.894L344.854,219.29L344.927,219.648L345.034,219.792L345.105,219.504L345.465,220.654L345.716,221.264L345.895,221.623L346.219,222.879L346.326,223.562L346.47,223.67L346.398,223.957L346.685,223.993L346.972,225.07L346.901,224.495L346.936,224.351L347.116,225.07L347.116,225.141L347.08,225.464L347.152,225.931L347.224,226.291L347.224,226.398L347.296,226.721L347.296,227.259L347.512,227.511L347.583,227.188L347.547,227.655L347.69,228.444L347.834,229.378L347.978,229.629L348.013,229.953L348.013,229.988L348.157,230.527L348.229,231.245L348.193,231.639L348.373,231.891L348.48,231.891L348.48,232.286L348.373,232.789L348.589,232.716L348.732,233.363L348.66,233.65L348.516,233.794L348.624,234.296L348.696,234.153L348.804,234.512L348.767,234.943L348.84,235.266L348.804,235.41L348.767,235.768L348.84,236.02L348.983,236.774L348.911,237.384L348.767,237.922L349.055,237.779L348.911,238.138L348.911,238.749L348.876,239.215L348.876,239.359L349.306,239.717L349.306,240.077L349.45,240.292L349.234,240.292L349.234,240.651L349.306,240.723L349.414,240.974L349.953,241.8L350.06,241.728L349.845,241.512L350.096,241.154L350.06,241.369L350.311,241.585L350.24,242.159L350.527,242.195L350.85,241.225L350.994,241.728L351.138,242.051L351.281,241.728L351.604,240.902L351.568,240.041L351.712,239.287L351.712,238.927L351.928,237.528L351.999,237.096L352.071,236.809L352.035,236.666L352.25,235.23L352.215,234.907L352.286,234.62L352.43,233.973L352.538,233.327L352.681,232.896L352.86,232.322L353.076,232.035L352.896,231.927L353.076,231.712L353.076,231.568L353.183,231.101L353.471,230.168L353.543,229.737L353.758,229.127L353.866,228.624L354.01,228.229L354.01,228.157L354.224,227.296L354.476,227.045L354.584,226.542L354.8,225.572L355.014,225.141L355.194,224.567L355.481,223.741L355.554,223.454L355.625,223.346L355.805,223.346L355.805,223.49L355.841,223.49L355.912,223.526L355.948,223.597L355.912,223.633L355.732,223.633L355.732,223.597L355.589,223.597L355.589,223.706L355.41,224.208L355.41,224.28L355.661,223.813L355.912,224.495L355.661,224.962L355.302,226.004L355.087,226.613L354.907,227.116L355.338,225.177L354.835,226.901L354.62,227.583L354.584,227.834L354.476,227.978L354.476,228.193L354.224,228.911L353.973,229.808L353.866,230.06L353.758,230.383L353.758,230.419L353.614,231.209L353.65,230.562L353.65,230.491L353.399,231.137L353.22,231.712L353.507,231.137L353.507,231.568L354.081,229.737L354.153,229.773L354.584,228.265L354.835,227.403L355.194,226.757L355.338,226.505L355.374,226.111L355.661,225.357L355.984,224.638L356.055,224.926L355.841,225.285L355.625,225.895L355.661,225.967L356.02,225.213L356.128,225.034L356.164,225.105L356.199,225.895L356.307,226.039L356.487,226.505L356.522,226.505L356.666,226.793L356.631,226.901L356.595,227.152L356.882,227.546L357.133,228.516L357.312,229.342L357.348,229.773L357.456,230.24L357.707,230.671L357.887,230.885L357.743,230.994L357.672,231.065L357.636,231.748L357.672,231.748L357.707,231.712L357.779,231.604L357.851,231.748L357.815,231.999L357.707,232.214L357.636,232.322L357.707,232.393L357.815,232.286L357.887,232.214L357.959,232.25L357.923,232.789L358.03,232.932L358.21,233.506L358.102,233.902L357.959,234.26L358.03,234.476L358.174,234.763L358.21,234.727L358.317,234.871L358.317,235.23L358.246,235.41L358.21,235.41L358.21,235.266L358.246,235.194L358.21,235.122L358.174,235.158L358.066,235.804L358.102,235.877L358.138,235.84L358.21,235.804L358.317,235.912L358.282,235.984L358.21,236.091L358.282,236.415L358.426,236.702L358.426,237.096L358.138,237.886L358.03,237.995L358.246,237.995L358.317,237.959L358.353,238.03L358.246,239L358.246,239.071L358.21,239.036L358.102,238.856L358.102,239.071L358.21,239.179L358.21,239.61L358.03,241.19L357.887,242.626L357.959,243.129L358.246,243.379L358.533,243.343L358.569,243.343L358.82,243.236L359.323,243.129L359.574,243.02L359.574,242.949L359.61,242.913L360.005,242.482L360.041,241.979L360.005,241.728L360.113,241.19L360.041,240.4L360.005,240.077L359.97,239.681L359.97,238.749L360.077,238.066L360.4,236.307L360.58,235.445L360.867,234.656L361.19,233.399L361.657,232.035L361.944,230.814L362.375,229.163L362.913,227.619L362.949,227.511L362.985,227.259L363.559,225.859L363.883,224.89L364.17,224.208L364.349,223.597L365.031,221.875L365.354,220.834L365.678,220.115L365.714,219.756L365.714,219.613L365.857,219.577L365.929,219.504L366.144,218.966L366.395,218.284L366.395,218.14L366.682,217.71L366.647,217.35L366.647,217.279L366.682,217.279L366.791,217.243L366.755,217.171L366.755,217.099L366.934,216.632L366.898,216.632L366.826,216.596L366.934,216.561L367.149,216.453L367.724,215.125L367.975,214.514Z" style="fill:rgb(224,219,110);fill-rule:nonzero;"/>
        <path d="M358.03,215.52L358.282,215.699L358.102,215.628L358.174,215.951L358.102,215.915L357.923,215.699L358.03,215.52ZM357.779,215.376L357.887,215.376L357.815,215.484L357.707,215.807L357.743,215.915L357.815,215.735L357.959,215.951L358.138,216.058L358.317,216.309L358.389,216.632L358.426,216.525L358.317,215.951L358.389,215.735L358.389,215.412L357.995,215.412L358.066,215.268L358.066,215.161L357.995,214.622L357.995,214.587L357.815,214.514L357.672,214.227L357.636,214.227L357.851,214.981L357.779,215.376Z" style="fill:rgb(224,219,110);fill-rule:nonzero;"/>
        <path d="M370.991,218.105L370.919,218.14L370.559,218.105L369.914,218.284L369.124,218.607L368.944,218.427L368.621,218.894L368.693,219.756L368.944,220.654L369.662,221.192L370.057,220.905L370.129,220.725L370.345,220.08L370.488,219.828L370.704,219.325L370.847,219.146L371.422,218.787L371.493,218.463L371.278,218.033L370.991,218.105Z" style="fill:rgb(224,219,110);fill-rule:nonzero;"/>
        <path d="M369.34,237.563L369.304,237.025L369.16,237.241L369.34,237.563Z" style="fill:rgb(224,219,110);fill-rule:nonzero;"/>
        <path d="M369.016,236.881L368.944,236.487L368.801,236.487L368.837,237.061L368.908,237.096L369.34,236.809L369.016,236.881Z" style="fill:rgb(224,219,110);fill-rule:nonzero;"/>
        <path d="M397.702,239.969L398.025,239.646L397.809,239.538L397.666,239.897L397.702,239.969Z" style="fill:rgb(224,219,110);fill-rule:nonzero;"/>
        <path d="M397.666,237.707L397.486,238.173L397.773,237.886L397.666,237.707Z" style="fill:rgb(224,219,110);fill-rule:nonzero;"/>
        <path d="M396.481,225.357L396.45,225.342L396.456,225.402L396.481,225.357Z" style="fill:rgb(224,219,110);fill-rule:nonzero;"/>
        <path d="M396.732,243.416L397.235,243.954L397.306,243.919L397.092,243.667L396.732,243.416Z" style="fill:rgb(224,219,110);fill-rule:nonzero;"/>
        <path d="M422.546,239.646L422.438,239.43L422.438,239.287L422.222,238.425L422.259,237.959L422.33,237.959L422.617,239.646L422.546,239.646ZM422.115,237.42L422.079,237.312L422.043,236.666L422.079,236.594L422.115,236.594L422.186,236.918L422.259,237.42L422.222,237.563L422.15,237.563L422.115,237.42ZM415.545,233.147L415.545,234.943L415.472,235.122L415.437,234.943L415.365,234.117L415.365,234.009L415.401,233.327L415.472,233.147L415.545,233.147ZM415.185,230.742L415.114,230.527L415.221,230.491L415.294,230.707L415.185,230.742ZM415.006,232.071L414.934,232.035L414.971,231.748L415.078,231.675L415.149,231.819L415.006,232.071ZM414.719,235.158L414.647,235.05L414.755,234.943L414.898,235.05L414.719,235.158ZM414.755,234.224L414.654,234.451L414.739,233.951L414.755,234.224ZM406.031,240.256L405.959,240.292L405.492,239.861L405.241,239.538L405.241,239.43L404.918,239.071L404.99,239.287L405.061,239.43L405.134,239.754L405.492,240.184L405.6,240.436L405.564,240.471L404.738,239.79L404.882,239.681L404.81,239.538L404.703,239.61L404.523,239.359L404.428,239.103L404.846,237.995L405.03,236.918L405.17,237.779L405.421,238.892L406.031,240.148L406.031,240.256ZM404.774,232.358L404.703,231.855L404.738,231.639L404.631,231.388L404.667,231.388L404.81,230.994L405.097,230.814L405.134,230.85L405.061,231.065L404.918,231.532L404.99,231.748L404.774,232.358ZM396.661,236.055L396.553,235.768L396.805,235.804L396.661,236.055ZM388.188,233.399L388.188,233.219L388.403,233.004L388.439,233.219L388.332,233.47L388.223,233.506L388.188,233.399ZM382.624,239.646L382.516,239.43L382.516,239.287L382.301,238.425L382.337,237.959L382.408,237.959L382.695,239.646L382.624,239.646ZM382.193,237.42L382.157,237.312L382.121,236.666L382.157,236.594L382.193,236.594L382.264,236.918L382.337,237.42L382.301,237.563L382.228,237.563L382.193,237.42ZM375.623,233.147L375.623,234.943L375.551,235.122L375.515,234.943L375.443,234.117L375.443,234.009L375.479,233.327L375.551,233.147L375.623,233.147ZM374.797,235.158L374.725,235.05L374.833,234.943L374.976,235.05L374.797,235.158ZM375.049,231.748L375.156,231.675L375.227,231.819L375.084,232.071L375.013,232.035L375.049,231.748ZM375.3,230.491L375.372,230.707L375.263,230.742L375.192,230.527L375.3,230.491ZM369.052,233.614L369.124,233.65L369.088,233.973L368.764,233.937L369.052,233.614ZM369.267,234.547L369.231,234.691L369.231,235.337L369.088,235.41L369.016,235.625L368.873,235.588L368.837,235.517L368.873,234.978L369.016,234.584L369.088,234.404L368.873,234.153L369.267,234.547ZM368.98,236.128L368.837,236.091L368.873,235.84L369.088,235.661L369.16,235.804L368.98,236.128ZM379.429,225.501L379.823,225.141L380.075,224.926L380.219,224.962L380.362,224.89L380.433,224.603L380.506,224.89L380.397,225.141L380.29,225.213L380.219,225.285L379.823,225.644L379.643,225.608L379.465,225.715L379.392,225.608L379.429,225.501ZM404.344,231.461L404.236,231.461L404.236,231.209L404.344,231.209L404.344,231.461ZM419.35,225.501L419.745,225.141L419.997,224.926L420.14,224.962L420.284,224.89L420.355,224.603L420.428,224.89L420.319,225.141L420.212,225.213L420.14,225.285L419.745,225.644L419.565,225.608L419.387,225.715L419.314,225.608L419.35,225.501ZM425.418,237.42L424.951,238.353L423.838,240.256L423.587,240.436L423.479,240.22L423.3,239.179L423.263,239.143L423.084,238.389L423.12,238.138L423.049,237.635L422.976,236.809L422.833,235.948L422.797,235.661L422.833,235.517L422.833,235.158L422.797,234.763L422.869,234.296L422.94,233.686L422.94,233.47L422.976,232.932L423.049,232.214L423.12,231.461L423.227,230.562L423.336,230.024L423.981,228.3L423.946,227.87L423.479,227.655L423.371,227.69L422.797,227.87L422.294,227.942L422.186,227.978L421.899,228.229L421.828,228.229L421.756,228.265L421.396,228.337L419.638,232.358L418.56,235.266L417.483,237.599L417.124,238.102L417.053,238.066L417.016,237.599L416.909,236.881L416.873,236.63L416.873,236.451L416.802,236.091L416.837,236.02L416.909,235.768L416.909,235.266L416.837,234.978L416.802,234.656L416.802,234.512L416.909,234.081L416.909,233.686L416.945,233.292L416.945,233.112L416.98,232.429L417.232,231.281L417.304,230.85L417.555,229.953L417.879,229.234L418.309,228.373L418.489,227.978L418.776,227.619L419.888,226.182L420.284,225.788L421.253,224.998L421.792,224.854L422.869,225.285L423.192,225.428L423.3,225.321L422.079,224.1L421.109,223.921L420.319,224.029L418.74,224.854L417.806,225.644L417.016,226.505L416.98,226.542L416.837,226.793L416.263,227.583L416.048,228.013L415.975,228.229L415.796,228.66L415.437,229.378L414.971,230.778L414.827,231.209L414.755,231.783L414.791,232.178L414.862,232.573L414.719,232.789L414.713,232.825L414.647,232.681L414.647,232.716L414.253,233.794L413.966,234.656L413.642,235.553L413.606,235.553L413.212,236.128L413.212,236.487L412.96,236.702L412.816,236.666L412.888,236.845L412.888,237.132L412.673,237.312L412.422,237.384L412.278,237.671L412.062,238.03L411.237,239.071L410.411,240.041L409.693,240.544L408.975,240.687L408.042,240.471L406.749,239.574L406.462,239.179L406.354,238.856L406.318,238.64L406.175,238.533L406.175,238.353L405.924,237.707L405.78,237.348L405.78,237.169L405.815,236.774L405.815,236.666L405.78,235.948L405.672,235.588L405.672,235.517L405.6,235.194L405.564,235.087L405.564,234.727L405.492,234.224L405.492,234.153L405.528,233.722L405.492,233.435L405.492,232.968L405.457,232.968L405.348,233.219L405.313,233.04L405.528,231.999L405.78,230.598L405.815,230.311L405.959,229.808L405.959,229.665L406.211,229.198L406.39,228.624L406.641,228.086L406.856,227.439L407.252,226.685L408.077,225.249L408.687,224.638L409.19,224.244L409.586,224.244L409.764,224.854L409.729,225.034L409.801,225.285L409.908,225.715L409.98,226.147L409.908,226.326L409.908,226.362L409.98,226.685L409.908,227.008L410.052,227.223L409.908,227.332L409.801,227.69L409.586,228.265L409.334,228.409L409.154,228.373L409.263,228.66L409.119,228.839L408.796,229.054L408.509,229.306L408.831,229.414L409.047,229.378L409.263,229.378L409.621,229.163L409.837,229.019L410.304,228.552L410.555,228.013L410.698,227.619L410.698,227.546L410.805,227.223L410.805,227.152L410.842,226.936L411.021,226.254L411.021,226.147L411.129,225.501L411.201,225.213L411.129,224.854L411.021,224.638L411.237,224.711L411.308,224.1L411.165,223.597L411.057,223.49L410.878,223.31L410.483,223.239L409.693,223.239L409.083,223.13L409.047,223.13L408.365,222.987L408.149,222.952L408.006,223.203L408.006,223.419L407.395,223.633L407.719,223.13L407.719,222.987L407.611,223.13L407.467,223.203L407.144,223.382L406.785,223.67L406.39,224.064L406.211,224.316L406.031,224.46L405.708,225.141L404.918,227.08L404.559,228.337L404.128,229.593L404.056,229.953L404.02,230.311L403.554,232.502L403.446,234.547L403.482,235.23L403.482,235.877L403.59,236.738L403.733,237.995L403.949,238.569L404.128,238.462L403.949,237.743L403.949,237.671L403.805,237.241L403.769,236.845L403.877,236.522L403.841,236.379L403.697,235.588L403.697,235.194L403.662,234.835L403.733,234.404L403.697,233.937L403.769,233.794L403.805,233.147L403.913,232.681L404.128,232.214L404.093,232.142L404.2,232.035L404.487,231.999L404.416,233.076L404.487,233.112L404.631,232.825L404.738,232.716L404.846,232.753L404.954,233.112L404.954,233.183L404.846,233.579L404.846,233.937L404.882,236.02L404.954,236.451L404.977,236.592L404.344,238.21L403.769,239.251L402.8,240.758L401.005,242.841L399.964,243.379L399.246,243.02L398.743,242.482L398.779,242.589L398.707,242.626L398.599,242.159L398.563,241.908L398.348,241.225L398.133,240.974L398.276,241.548L398.205,241.585L398.061,241.512L397.953,241.334L397.882,241.225L398.025,241.082L397.953,240.902L397.917,240.831L397.989,240.544L397.702,240.507L397.702,240.471L397.666,240.184L397.451,240.004L397.235,239.43L397.666,238.927L397.522,238.64L397.522,238.569L397.379,238.784L397.271,238.389L397.271,238.317L397.235,237.779L397.235,237.276L397.343,237.205L397.271,237.205L397.343,236.702L397.092,236.451L397.055,236.307L397.019,235.948L397.019,235.84L396.876,235.877L396.589,235.517L396.589,235.481L396.841,235.337L396.805,235.266L396.661,235.05L396.697,234.943L396.841,235.014L397.199,234.656L397.271,234.727L397.092,235.41L397.092,235.553L397.199,235.553L397.379,234.62L397.306,233.83L397.271,233.794L397.128,234.333L396.912,234.799L396.876,234.799L396.805,234.26L396.768,234.26L396.732,234.691L396.661,234.691L396.589,234.368L396.589,234.333L396.697,233.973L396.625,233.65L396.768,233.04L396.481,232.789L396.625,232.429L396.732,232.214L396.841,232.106L396.661,231.927L396.912,231.424L397.092,231.029L397.055,230.634L397.055,230.562L397.128,230.096L397.055,229.953L397.092,229.917L397.092,229.163L396.661,230.491L396.876,230.347L396.912,230.634L396.589,231.496L396.553,231.281L396.517,230.921L396.481,230.634L396.481,230.24L396.374,229.665L396.589,229.593L396.589,229.557L396.445,229.557L396.445,229.163L396.697,229.054L396.589,228.911L396.805,228.624L396.841,228.624L396.984,228.409L396.841,228.373L396.948,228.3L397.019,228.157L396.948,228.086L396.768,228.193L396.589,228.732L396.409,228.983L396.409,227.834L396.553,227.942L396.912,227.439L396.984,227.332L397.019,227.08L396.912,226.901L396.876,226.901L396.841,227.08L396.732,227.116L396.841,227.259L396.517,227.655L396.445,227.655L396.409,227.223L396.481,226.685L396.445,226.542L396.517,226.039L396.481,225.715L396.481,225.68L396.456,225.402L396.338,225.608L396.265,225.572L396.409,225.321L396.45,225.342L396.445,225.285L396.481,225.105L396.625,225.141L396.625,224.638L396.553,224.711L396.481,224.783L396.409,224.638L396.445,224.567L396.374,224.064L396.23,224.029L396.158,224.46L396.051,223.993L396.087,223.849L395.978,223.419L395.978,223.562L395.799,223.49L395.655,222.952L395.44,222.843L395.045,222.916L394.901,222.879L394.507,223.023L393.753,223.382L393.035,224.029L392.999,224.208L392.927,224.28L392.891,224.244L392.676,224.567L392.496,224.747L391.922,225.715L391.635,226.291L391.491,226.542L391.275,226.972L391.024,227.726L390.917,227.906L390.845,228.122L390.557,228.767L390.27,229.521L389.911,230.778L389.588,231.962L389.553,232.214L389.373,232.573L389.337,232.86L389.193,233.04L389.05,233.579L389.05,233.65L388.87,234.333L388.726,234.763L388.547,235.445L388.475,235.23L388.511,234.656L388.619,234.368L388.654,234.117L388.403,234.333L388.26,234.26L388.332,233.722L388.511,233.076L388.475,232.789L388.403,232.465L388.475,232.142L388.403,231.999L388.26,231.783L388.332,231.568L388.367,231.604L388.332,231.712L388.547,231.639L388.439,231.352L388.439,230.778L388.511,230.671L388.583,230.455L388.475,230.24L388.511,230.204L388.367,230.131L388.619,229.844L388.619,229.593L388.583,229.306L388.619,229.054L388.763,228.876L388.654,228.839L388.834,228.157L388.69,228.3L388.619,228.3L388.654,228.193L388.834,227.762L388.977,226.901L388.798,224.962L388.798,224.926L388.26,224.603L387.865,224.603L387.542,224.567L387.039,224.638L386.536,224.998L386.465,225.141L386.608,225.141L386.823,225.285L386.931,225.752L387.111,226.254L387.146,226.326L387.182,226.398L387.255,226.505L387.255,226.865L387.29,227.045L387.255,227.188L387.398,227.439L387.362,227.978L387.433,228.157L387.398,228.516L387.362,228.911L387.326,229.054L387.326,229.45L387.362,229.665L387.146,230.24L387.362,230.491L387.219,230.671L387.326,230.707L387.003,231.029L387.003,231.281L386.68,232.573L386.608,232.86L386.752,232.681L386.788,232.681L386.788,232.825L386.716,233.004L386.536,233.937L386.285,234.799L386.249,235.122L386.214,235.481L386.214,235.625L386.178,235.661L385.926,236.342L385.818,236.702L385.854,236.845L385.747,236.845L385.638,237.241L385.737,237.323L385.496,237.42L385.029,238.353L383.916,240.256L383.665,240.436L383.557,240.22L383.378,239.179L383.342,239.143L383.162,238.389L383.198,238.138L383.127,237.635L383.055,236.809L382.911,235.948L382.875,235.661L382.911,235.517L382.911,235.158L382.875,234.763L382.947,234.296L383.018,233.686L383.018,233.47L383.055,232.932L383.127,232.214L383.198,231.461L383.305,230.562L383.414,230.024L384.059,228.3L384.024,227.87L383.557,227.655L383.449,227.69L382.875,227.87L382.372,227.942L382.264,227.978L381.977,228.229L381.906,228.229L381.834,228.265L381.474,228.337L379.716,232.358L378.638,235.266L377.561,237.599L377.202,238.102L377.131,238.066L377.095,237.599L376.987,236.881L376.951,236.63L376.951,236.451L376.88,236.091L376.915,236.02L376.987,235.768L376.987,235.266L376.915,234.978L376.88,234.656L376.88,234.512L376.987,234.081L376.987,233.686L377.023,233.292L377.023,233.112L377.058,232.429L377.31,231.281L377.382,230.85L377.634,229.953L377.957,229.234L378.388,228.373L378.567,227.978L378.854,227.619L379.967,226.182L380.362,225.788L381.331,224.998L381.87,224.854L382.947,225.285L383.27,225.428L383.378,225.321L382.157,224.1L381.187,223.921L380.397,224.029L378.818,224.854L377.885,225.644L377.095,226.505L377.058,226.542L376.915,226.793L376.341,227.583L376.126,228.013L376.054,228.229L375.874,228.66L375.515,229.378L375.049,230.778L374.905,231.209L374.833,231.783L374.869,232.178L374.94,232.573L374.797,232.789L374.762,233.004L374.777,233.06L373.755,234.404L371.925,237.096L370.381,239.071L370.021,239.251L369.805,239.179L369.627,238.749L369.483,238.03L369.447,237.959L369.231,238.138L369.052,237.995L369.016,237.635L368.98,237.132L368.944,237.132L368.801,237.312L368.873,237.599L368.837,237.743L368.657,237.635L368.657,237.492L368.729,237.096L368.621,236.774L368.621,236.307L368.801,236.199L369.231,236.235L369.267,236.055L369.483,235.158L369.483,234.727L369.518,234.727L369.627,233.757L369.267,233.614L369.627,233.543L369.914,232.681L369.914,231.532L370.021,230.742L369.985,230.562L370.057,230.06L369.985,229.629L370.094,229.378L370.094,229.27L370.165,228.229L370.237,227.906L370.272,227.619L370.452,227.08L370.345,226.757L369.914,226.434L369.805,226.362L369.483,226.218L369.124,226.291L368.764,226.326L368.37,226.757L368.37,226.829L368.334,227.188L368.19,228.444L368.19,228.947L368.406,229.019L368.298,229.127L368.226,229.342L368.226,229.629L368.37,229.88L368.298,230.347L368.334,231.712L368.37,232.106L368.801,231.999L368.263,232.25L368.513,232.429L368.657,232.645L368.513,232.753L368.621,232.968L368.37,233.255L368.657,233.506L368.621,233.65L368.263,233.327L368.19,233.614L368.37,233.686L368.37,233.866L368.298,234.046L368.37,234.547L368.441,234.835L368.37,235.05L368.334,235.158L368.154,235.301L368.37,235.41L368.083,235.661L368.119,235.732L368.406,235.625L368.154,235.84L368.406,235.877L368.19,236.164L367.796,236.164L367.76,236.235L368.19,236.342L368.334,236.522L368.263,236.845L368.37,237.061L368.406,237.384L368.334,237.384L368.119,237.061L368.083,237.096L368.477,237.886L368.441,237.959L368.19,238.03L367.76,237.312L367.652,238.03L367.652,238.497L367.544,238.533L367.329,238.03L367.293,238.353L367.4,238.676L367.58,239.071L367.723,239.394L368.334,239.969L369.016,240.292L369.483,240.4L369.734,240.328L369.842,240.436L370.596,240.148L370.955,240.113L371.349,239.681L371.709,239.717L371.637,239.646L371.925,239.466L372.212,238.856L372.283,238.856L372.534,238.64L372.606,238.497L372.679,238.173L372.75,238.03L373.073,237.42L373.253,237.132L373.54,236.522L373.827,235.804L374.043,235.517L374.33,235.014L374.401,234.871L374.761,234.009L374.814,233.886L374.833,234.224L374.689,234.547L374.653,234.656L374.546,236.055L374.546,236.128L374.653,236.379L374.51,237.025L374.473,237.132L374.438,237.815L374.51,237.959L374.653,238.173L374.51,238.82L374.762,239.359L375.515,239.61L376.054,239.79L376.377,240.077L376.88,240.328L377.131,240.256L377.274,240.148L377.848,239.43L378.315,238.605L378.889,237.671L379.177,236.809L379.465,235.877L379.752,234.799L380.146,233.363L380.757,231.496L380.829,231.424L380.936,231.317L380.972,231.496L380.936,232.035L380.864,233.543L380.9,234.296L380.972,235.553L380.9,235.768L380.9,235.984L381.044,236.307L381.116,236.702L381.08,236.989L381.116,237.205L381.08,237.384L380.936,237.671L381.151,237.851L381.26,238.569L381.331,239L381.296,239.179L381.331,239.287L381.511,240.041L381.547,240.328L381.583,240.651L381.726,241.118L381.726,241.621L382.516,242.015L382.695,241.979L384.024,241.692L384.239,241.441L384.491,240.938L384.886,240.328L385.316,239.466L385.567,238.676L385.783,237.959L385.938,237.493L386.321,237.815L386.357,237.743L386.429,237.743L386.501,238.173L386.608,238.462L386.608,238.533L386.752,238.82L387.039,238.712L387.182,238.892L387.542,238.856L387.506,239.143L387.685,239.215L388.044,239.323L388.08,239.323L388.547,238.892L388.547,238.856L388.583,238.784L388.87,237.528L388.942,237.42L389.013,237.312L389.301,235.948L389.373,235.337L389.408,235.23L389.624,234.512L389.767,234.081L389.804,233.937L390.018,233.076L390.055,232.86L390.163,232.465L390.342,231.532L390.378,231.461L390.594,230.598L390.845,229.593L390.988,228.947L391.671,227.368L392.101,226.505L392.712,225.321L392.999,224.998L394.112,224.029L394.147,224.423L394.183,224.495L394.578,224.89L394.65,225.07L394.578,225.895L394.614,226.004L394.686,226.326L394.65,226.434L394.722,226.901L394.794,227.223L394.866,227.511L394.794,227.798L394.866,227.978L394.794,228.3L394.83,229.414L394.794,229.701L394.866,230.707L394.866,230.921L394.901,231.748L395.01,232.214L395.153,233.076L395.153,233.183L395.01,233.686L395.224,234.978L395.188,235.337L395.332,235.877L395.332,235.912L395.261,235.984L395.224,236.128L395.332,236.342L395.404,236.702L395.44,236.809L395.476,237.456L395.476,237.671L395.548,237.743L395.584,238.353L395.584,238.64L395.727,239.287L395.907,239.215L395.978,239.43L395.799,239.43L395.763,239.574L395.907,239.574L396.014,239.754L395.835,239.933L395.871,240.113L395.978,240.723L396.23,241.405L396.445,242.123L396.589,242.554L396.553,242.769L396.517,242.841L396.445,242.733L396.409,242.769L396.661,243.129L396.732,242.985L397.019,243.165L397.092,243.272L397.199,243.523L397.666,244.133L397.702,244.206L397.846,244.206L397.846,244.385L397.882,244.529L398.887,244.816L398.994,244.923L399.533,245.067L400.215,244.851L400.43,244.744L400.718,244.529L400.718,244.672L400.897,244.564L401.759,243.846L401.902,243.63L402.046,243.343L402.585,242.841L403.266,241.8L403.375,241.512L403.375,241.477L403.518,241.154L403.518,241.082L403.769,240.723L404.236,239.61L404.315,239.4L404.344,239.466L404.954,240.22L405.421,240.58L406.282,241.118L406.534,241.225L406.929,241.369L407.072,241.405L407.682,241.656L408.436,241.692L409.55,241.405L409.621,241.405L410.518,241.225L411.452,240.651L411.704,240.328L411.811,240.148L412.026,239.861L412.135,239.717L412.278,239.43L412.529,239.071L412.565,239L412.816,238.533L412.888,238.749L412.96,238.569L412.96,238.282L413.355,237.707L413.642,237.241L413.679,236.953L413.857,236.487L414.253,235.588L414.552,234.958L414.468,236.055L414.468,236.128L414.575,236.379L414.431,237.025L414.395,237.132L414.36,237.815L414.431,237.959L414.575,238.173L414.431,238.82L414.683,239.359L415.437,239.61L415.975,239.79L416.299,240.077L416.802,240.328L417.053,240.256L417.196,240.148L417.77,239.43L418.237,238.605L418.811,237.671L419.098,236.809L419.387,235.877L419.674,234.799L420.068,233.363L420.679,231.496L420.751,231.424L420.858,231.317L420.894,231.496L420.858,232.035L420.786,233.543L420.822,234.296L420.894,235.553L420.822,235.768L420.822,235.984L420.966,236.307L421.038,236.702L421.002,236.989L421.038,237.205L421.002,237.384L420.858,237.671L421.073,237.851L421.181,238.569L421.253,239L421.218,239.179L421.253,239.287L421.432,240.041L421.469,240.328L421.505,240.651L421.648,241.118L421.648,241.621L422.438,242.015L422.617,241.979L423.946,241.692L424.161,241.441L424.413,240.938L424.807,240.328L425.238,239.466L425.489,238.676L425.705,237.959L425.956,237.205L425.418,237.42Z" style="fill:rgb(224,219,110);fill-rule:nonzero;"/>
        <path d="M288.674,61.696C235.809,61.696 186.046,72.941 148.552,93.361C110.29,114.198 89.217,142.177 89.217,172.142C89.217,202.107 110.29,230.086 148.552,250.924C186.046,271.343 235.809,282.588 288.674,282.588C341.539,282.588 391.302,271.343 428.796,250.924C467.058,230.086 488.13,202.107 488.13,172.142C488.13,142.177 467.058,114.198 428.796,93.361C391.302,72.941 341.539,61.696 288.674,61.696ZM288.674,65.696C396.622,65.696 484.13,113.353 484.13,172.142C484.13,230.931 396.622,278.588 288.674,278.588C180.726,278.588 93.217,230.931 93.217,172.142C93.217,113.353 180.726,65.696 288.674,65.696Z" style="fill:white;fill-rule:nonzero;"/>
        <path d="M161.194,245.468C158.974,237.768 160.051,233.376 160.051,233.376C160.051,233.376 159.848,233.156 159.544,232.898C157.104,230.808 155.574,227.818 155.574,224.498C155.574,218.198 161.084,213.088 167.884,213.088C168.304,213.088 168.724,213.108 169.144,213.148L169.164,213.148C169.164,213.148 168.534,206.698 161.684,205.618C154.834,204.548 151.804,207.278 150.534,209.628C150.534,209.628 149.754,201.708 140.064,201.508C130.384,201.318 129.504,210.218 129.504,210.218C129.504,210.218 125.394,206.398 119.324,207.088C113.264,207.768 110.524,214.558 110.524,214.558C110.524,214.558 102.494,207.728 99.694,211.638C96.884,215.548 102.664,220.848 104.944,222.548C104.944,222.548 100.874,227.268 102.564,232.488C104.264,237.708 108.374,239.078 108.374,239.078C108.374,239.078 100.874,245.338 106.804,252.448C112.734,259.559 119.264,254.928 119.264,254.928C119.264,254.928 117.824,261.899 124.154,264.578C130.474,267.248 135.234,264.768 137.914,262.688C137.914,262.688 141.504,268.618 149.584,266.528C157.674,264.448 157.214,259.358 157.214,259.358C157.214,259.358 162.464,263.048 172.344,258.548C172.344,258.548 163.414,253.168 161.194,245.468Z" style="fill:white;fill-rule:nonzero;"/>
        <path d="M188.179,218.24C186.7,218.24 185.329,218.647 184.196,219.34C183.098,216.702 180.801,214.88 178.136,214.88C175.471,214.88 173.173,216.702 172.076,219.34C170.943,218.647 169.572,218.24 168.092,218.24C164.202,218.24 161.049,221.043 161.049,224.5C161.049,227.957 164.202,230.76 168.092,230.76C170.247,230.76 172.173,229.898 173.465,228.543C174.678,229.913 176.321,230.76 178.136,230.76C179.95,230.76 181.594,229.913 182.807,228.543C184.099,229.898 186.025,230.76 188.179,230.76C192.069,230.76 195.223,227.957 195.223,224.5C195.223,221.043 192.069,218.24 188.179,218.24Z" style="fill:white;fill-rule:nonzero;"/>
        <path d="M183.239,244.163C181.726,244.163 180.5,242.937 180.5,241.424C180.5,239.911 181.726,238.685 183.239,238.685C184.752,238.685 185.978,239.911 185.978,241.424C185.978,242.937 184.752,244.163 183.239,244.163ZM172.739,244.163C171.226,244.163 170,242.937 170,241.424C170,239.911 171.226,238.685 172.739,238.685C174.252,238.685 175.478,239.911 175.478,241.424C175.478,242.937 174.252,244.163 172.739,244.163ZM188.179,236.083C186.025,236.083 184.099,235.193 182.807,233.794C181.594,235.209 179.95,236.083 178.136,236.083C176.321,236.083 174.678,235.209 173.465,233.794C172.173,235.193 170.247,236.083 168.092,236.083C167.268,236.083 166.48,235.947 165.745,235.708C165.613,236.569 165.533,237.452 165.533,238.358C165.533,246.535 171.175,253.163 178.136,253.163C185.096,253.163 190.739,246.535 190.739,238.358C190.739,237.452 190.659,236.569 190.526,235.708C189.791,235.947 189.004,236.083 188.179,236.083Z" style="fill:white;fill-rule:nonzero;"/>
        <path d="M114.534,261.888C113.664,261.899 112.784,261.839 111.894,261.679L111.894,284.568L118.934,284.568L118.934,267.878C116.694,266.198 115.324,264.058 114.534,261.888Z" style="fill:white;fill-rule:nonzero;"/>
        <path d="M122.404,270.088L122.404,284.568L129.453,284.568L129.453,271.238C127.374,271.218 125.264,270.838 123.164,270.088L122.404,270.088Z" style="fill:white;fill-rule:nonzero;"/>
        <path d="M150.044,272.068L150.044,284.568L157.084,284.568L157.084,269.218C155.484,270.298 153.464,271.208 150.954,271.858C150.644,271.938 150.344,272.008 150.044,272.068Z" style="fill:white;fill-rule:nonzero;"/>
        <path d="M160.564,266.108L160.564,284.568L167.604,284.568L167.604,265.848C164.864,266.368 162.504,266.368 160.564,266.108Z" style="fill:white;fill-rule:nonzero;"/>
    </g>
</svg>
