<?xml version="1.0" standalone="no"?><!DOCTYPE svg PUBLIC "-//W3C//DTD SVG 1.1//EN" "http://www.w3.org/Graphics/SVG/1.1/DTD/svg11.dtd"><svg width="100%" height="100%" viewBox="0 0 695 153" version="1.1" xmlns="http://www.w3.org/2000/svg" xmlns:xlink="http://www.w3.org/1999/xlink" xml:space="preserve" style="fill-rule:evenodd;clip-rule:evenodd;stroke-linecap:round;stroke-linejoin:round;stroke-miterlimit:1.41421;"><g id="Layer2"><rect x="0" y="0" width="695" height="153" style="fill:#433823;"/></g><g id="Layer1">
        <path d="M205.428,106.137l-0.642,0l-0.257,-0.068l-0.192,0l-0.129,-0.068l-0.192,0l-0.193,-0.136l-0.257,0l-0.064,-0.068c-0.342,-0.046 -0.61,-0.204 -0.802,-0.477c-0.193,-0.272 -0.268,-0.59 -0.225,-0.953c0.171,-1.68 0.257,-4.018 0.257,-7.014l0,-2.724c0,-1.271 -0.043,-2.451 -0.129,-3.541c-0.042,-1.77 -0.064,-3.722 -0.064,-5.856l0,-9.329l0,-5.992c0,-10.033 0.064,-18.045 0.193,-24.038c0,-0.363 0.139,-0.681 0.417,-0.953c0.278,-0.273 0.588,-0.409 0.931,-0.409c0.342,0 0.642,0.148 0.899,0.443c0.256,0.295 0.385,0.624 0.385,0.987c0,1.68 -0.022,2.974 -0.064,3.882c-0.086,7.172 -0.129,13.868 -0.129,20.088l0,15.321c0,2.088 0.043,4.018 0.129,5.788c0.042,1.044 0.064,2.247 0.064,3.609l0,2.52c0,2.36 -0.064,4.426 -0.193,6.196l0.321,0c0.728,0 1.263,0.023 1.605,0.069l2.504,0c2.011,0.045 3.466,0.022 4.365,-0.069l0.128,0c0.343,0 0.642,0.114 0.899,0.341c0.257,0.227 0.407,0.499 0.45,0.817l0,0.272c0,0.364 -0.107,0.67 -0.321,0.92c-0.214,0.249 -0.471,0.397 -0.771,0.442c-0.813,0.137 -2.396,0.182 -4.75,0.137l-2.568,0c-0.385,-0.091 -0.92,-0.137 -1.605,-0.137Z" style="fill:#e07b53;fill-rule:nonzero;"/><path d="M220.257,106.308c-0.256,-0.296 -0.385,-0.625 -0.385,-0.988c0.257,-3.813 0.385,-8.171 0.385,-13.074l0,-3.064l0,-3.337c0,-4.676 0.022,-8.603 0.065,-11.78l0,-5.652c0.042,-1.589 0.064,-3.882 0.064,-6.878c0,-6.809 -0.15,-12.28 -0.45,-16.411c0,-0.363 0.129,-0.692 0.386,-0.987c0.256,-0.295 0.556,-0.488 0.898,-0.579c0.343,0 0.653,0.136 0.931,0.409c0.278,0.272 0.417,0.59 0.417,0.953c0.3,3.768 0.45,9.692 0.45,17.773l0,11.372c0,1.134 -0.022,1.974 -0.064,2.519l-0.065,9.601l0,2.997l0.065,3.881c0,4.04 -0.15,8.171 -0.45,12.393c-0.043,0.409 -0.192,0.738 -0.449,0.988c-0.257,0.249 -0.557,0.352 -0.899,0.306c-0.342,0 -0.642,-0.147 -0.899,-0.442Z" style="fill:#c90067;fill-rule:nonzero;"/><path d="M236.467,105.695c-0.236,-0.205 -0.375,-0.488 -0.417,-0.851l-0.065,-0.137c-0.47,-2.814 -1.048,-6.696 -1.733,-11.644c-0.085,-0.59 -0.257,-1.816 -0.513,-3.677c-0.214,-1.998 -0.685,-5.311 -1.413,-9.942l-1.22,-8.716l-0.898,-6.129c-0.985,-7.036 -1.926,-13.187 -2.825,-18.453l0,-0.137c0,-0.363 0.107,-0.692 0.321,-0.987c0.214,-0.295 0.492,-0.465 0.835,-0.511l0.128,0c0.3,0 0.588,0.102 0.867,0.307c0.278,0.204 0.438,0.465 0.481,0.783c1.07,6.764 2.012,12.961 2.825,18.59l0.899,6.196l0.898,6.401l1.734,12.189l0.834,5.788c0.043,-0.317 0.107,-0.715 0.193,-1.191c0.085,-0.477 0.15,-1.033 0.192,-1.669c0.428,-2.542 0.728,-4.471 0.899,-5.788l0.449,-3.064c0.3,-1.861 0.471,-2.837 0.514,-2.928l2.054,-14.232c0.257,-2.088 0.642,-4.449 1.156,-7.082l0.513,-3.064c0.172,-0.999 0.3,-1.725 0.386,-2.179c0.085,-0.454 0.149,-0.772 0.192,-0.953l0.578,-3.609l0.578,-3.609c0.042,-0.364 0.192,-0.659 0.449,-0.886c0.257,-0.227 0.556,-0.34 0.899,-0.34c0.385,0 0.706,0.17 0.963,0.511c0.257,0.34 0.364,0.715 0.321,1.123l-0.385,2.452c-0.257,1.089 -0.535,2.701 -0.835,4.834l-0.642,3.814c-0.3,1.361 -0.449,2.179 -0.449,2.451c-0.514,3.042 -0.878,5.357 -1.092,6.946c-0.428,3.359 -1.005,7.263 -1.733,11.712l-0.385,2.588l-0.193,1.43l-0.257,1.498c-0.085,0.635 -0.235,1.679 -0.449,3.132l-0.642,4.086l-0.257,1.634c-0.727,4.948 -1.262,9.057 -1.605,12.325c0,0.318 -0.128,0.613 -0.385,0.886c-0.257,0.272 -0.556,0.408 -0.898,0.408c-0.343,0 -0.632,-0.102 -0.867,-0.306Z" style="fill:#c90067;fill-rule:nonzero;"/><path d="M252.355,106.308c-0.256,-0.296 -0.385,-0.625 -0.385,-0.988c0.257,-3.813 0.385,-8.171 0.385,-13.074l0,-3.064l0,-3.337c0,-4.676 0.022,-8.603 0.065,-11.78l0,-5.652c0.042,-1.589 0.064,-3.882 0.064,-6.878c0,-6.809 -0.15,-12.28 -0.45,-16.411c0,-0.363 0.129,-0.692 0.386,-0.987c0.256,-0.295 0.556,-0.488 0.898,-0.579c0.343,0 0.653,0.136 0.931,0.409c0.278,0.272 0.418,0.59 0.418,0.953c0.299,3.768 0.449,9.692 0.449,17.773l0,11.372c0,1.134 -0.022,1.974 -0.064,2.519l-0.065,9.601l0,2.997l0.065,3.881c0,4.04 -0.15,8.171 -0.45,12.393c-0.042,0.409 -0.192,0.738 -0.449,0.988c-0.257,0.249 -0.556,0.352 -0.899,0.306c-0.342,0 -0.642,-0.147 -0.899,-0.442Z" style="fill:#c90067;fill-rule:nonzero;"/><path d="M261.343,106.308c-0.257,-0.25 -0.385,-0.557 -0.385,-0.92c-0.129,-2.951 -0.193,-6.264 -0.193,-9.942c0,-4.675 0.086,-9.283 0.257,-13.823c0.043,-0.545 0.064,-1.657 0.064,-3.337l0.064,-3.268c0.3,-8.762 0.471,-14.504 0.514,-17.228l0,-1.09l0,-0.613c-0.043,-0.272 -0.064,-0.612 -0.064,-1.021l0,-3.405c-0.043,-0.681 -0.064,-1.589 -0.064,-2.724c0,-1.407 0.064,-2.451 0.192,-3.132c0.128,-1.044 0.556,-1.634 1.284,-1.77l0.193,0c0.342,0 0.663,0.159 0.963,0.476c0.342,0.318 0.631,0.999 0.866,2.043c0.236,1.044 0.524,2.588 0.867,4.631l0,0.068l0.064,0l0,0.068l-0.064,0c0.085,0.681 0.15,1.067 0.192,1.157c0.428,2.815 1.434,8.762 3.018,17.841c0.042,0.182 0.085,0.386 0.128,0.613c0.043,0.227 0.086,0.5 0.128,0.817c0.814,4.449 1.477,8.353 1.991,11.713l0.192,-0.068l-0.064,-2.656c0,-1.09 0.086,-4.812 0.257,-11.168c0,-1.089 0.042,-3.041 0.128,-5.856l0.128,-5.516c0.129,-5.72 0.193,-9.964 0.193,-12.733c0,-0.364 0.128,-0.681 0.385,-0.954c0.257,-0.272 0.557,-0.408 0.899,-0.408c0.257,0 0.514,0.136 0.77,0.408c0.257,0.273 0.386,0.59 0.386,0.954c0,4.448 -0.107,10.554 -0.321,18.317l-0.065,4.971c-0.128,5.175 -0.192,9.329 -0.192,12.462c0,1.952 0.021,3.291 0.064,4.017l0,4.154c-0.086,0.182 -0.128,0.658 -0.128,1.43c-0.043,0.862 -0.065,2.202 -0.065,4.018c0,3.087 0.129,6.264 0.386,9.533c0,0.408 -0.118,0.738 -0.354,0.987c-0.235,0.25 -0.481,0.375 -0.738,0.375l-0.128,0c-0.343,0 -0.631,-0.125 -0.867,-0.375c-0.235,-0.249 -0.353,-0.533 -0.353,-0.851c-0.086,-0.136 -0.128,-0.431 -0.128,-0.885l0,-0.068c0,0 -0.043,-0.136 -0.129,-0.409c-0.214,-2.905 -0.652,-6.48 -1.316,-10.725c-0.663,-4.244 -1.808,-10.952 -3.434,-20.122c-0.043,-0.318 -0.086,-0.601 -0.129,-0.851c-0.042,-0.25 -0.085,-0.465 -0.128,-0.647c-0.385,-2.043 -0.695,-3.813 -0.931,-5.311c-0.235,-1.499 -0.439,-2.77 -0.61,-3.814c-0.171,-0.862 -0.31,-1.679 -0.417,-2.451c-0.107,-0.772 -0.225,-1.476 -0.353,-2.111l-0.128,0l0,0.681c-0.086,2.088 -0.129,3.904 -0.129,5.447l-0.385,11.849l-0.064,3.269c0,1.679 -0.022,2.791 -0.064,3.336c-0.172,4.721 -0.257,9.556 -0.257,14.504c0,2.452 0.043,5.493 0.128,9.125c0,0.363 -0.118,0.681 -0.353,0.954c-0.235,0.272 -0.503,0.408 -0.802,0.408c-0.343,0 -0.642,-0.125 -0.899,-0.374Z" style="fill:#c90067;fill-rule:nonzero;"/><path d="M283.619,105.865c-0.728,-0.499 -1.284,-1.646 -1.669,-3.439c-0.385,-1.793 -0.685,-4.21 -0.899,-7.252c-0.471,-5.175 -0.706,-12.144 -0.706,-20.905c0,-6.401 0.128,-12.121 0.385,-17.16c0.171,-3.042 0.375,-5.436 0.61,-7.184c0.235,-1.748 0.524,-2.872 0.867,-3.371c1.284,-2.043 3.274,-3.064 5.97,-3.064c1.369,0 2.354,0.522 2.953,1.566c0.599,1.044 1.006,2.542 1.22,4.494c0.085,0.182 0.128,0.432 0.128,0.749l0.064,0.749c0.086,0.364 0.129,0.636 0.129,0.818c0,0.272 -0.107,0.544 -0.321,0.817c-0.257,0.408 -0.599,0.613 -1.027,0.613c-0.257,0 -0.514,-0.091 -0.771,-0.273c-0.342,-0.272 -0.513,-0.59 -0.513,-0.953l-0.129,-1.43c-0.085,-0.182 -0.128,-0.431 -0.128,-0.749c-0.171,-1.271 -0.407,-2.247 -0.706,-2.928c-0.129,-0.182 -0.257,-0.341 -0.385,-0.477c-0.129,-0.136 -0.3,-0.204 -0.514,-0.204c-1.755,0 -3.039,0.613 -3.852,1.838c-0.043,0.046 -0.085,0.273 -0.128,0.681c-0.043,0.136 -0.097,0.397 -0.161,0.783c-0.064,0.386 -0.117,0.761 -0.16,1.124l-0.385,4.767l-0.129,1.838c-0.214,5.357 -0.321,10.873 -0.321,16.547c0,8.353 0.193,15.367 0.578,21.042c0.214,2.042 0.492,4.176 0.835,6.401c0.085,0.59 0.235,1.203 0.449,1.838l0.257,0.477c0.556,0.454 1.048,0.681 1.476,0.681c0.385,0 0.728,-0.182 1.027,-0.545c0.3,-0.363 0.621,-0.931 0.963,-1.702c0.942,-2.633 1.627,-6.424 2.055,-11.372c0,-0.409 0.042,-1.112 0.128,-2.111l0.193,-2.996c0.042,-0.137 0.074,-0.341 0.096,-0.613c0.021,-0.273 0.053,-0.59 0.096,-0.954c0,-0.908 0.022,-1.588 0.064,-2.042l0,-1.022l0.129,-2.451c0.171,-1.862 0.257,-4.449 0.257,-7.763c0,-1.498 -0.043,-2.974 -0.129,-4.426c0,-0.273 -0.064,-0.749 -0.192,-1.43c-0.214,0 -0.578,0.045 -1.092,0.136c-0.128,0.091 -0.246,0.136 -0.353,0.136c-0.107,0 -0.203,0.023 -0.289,0.068l-1.733,0.409c-0.086,0.045 -0.193,0.068 -0.321,0.068c-0.257,0 -0.492,-0.114 -0.706,-0.341c-0.214,-0.227 -0.364,-0.499 -0.45,-0.817c-0.042,-0.091 -0.064,-0.204 -0.064,-0.34c0,-0.273 0.097,-0.534 0.289,-0.783c0.193,-0.25 0.439,-0.42 0.738,-0.511l0.321,-0.068c0.086,-0.046 0.182,-0.068 0.289,-0.068c0.107,0 0.246,-0.046 0.418,-0.136c0.427,-0.137 0.62,-0.182 0.577,-0.137c0.086,-0.045 0.182,-0.068 0.289,-0.068c0.107,0 0.246,-0.045 0.417,-0.136c0.728,-0.136 1.284,-0.204 1.67,-0.204c0.128,-0.046 0.342,-0.068 0.642,-0.068c0.556,0 1.005,0.204 1.348,0.613c0.428,0.544 0.695,1.452 0.802,2.723c0.107,1.271 0.161,3.065 0.161,5.38c0,3.178 -0.065,5.856 -0.193,8.035c-0.043,0.272 -0.086,0.67 -0.128,1.192c-0.043,0.522 -0.065,0.919 -0.065,1.191l0,1.022l-0.128,2.043c-0.086,0.499 -0.128,0.998 -0.128,1.498c-0.043,1.679 -0.15,3.405 -0.321,5.175c-0.428,5.448 -1.199,9.533 -2.311,12.257c-1.113,2.679 -2.547,4.018 -4.302,4.018c-0.984,0 -2.011,-0.432 -3.081,-1.294Z" style="fill:#c90067;fill-rule:nonzero;"/><path d="M318.28,106.14c-0.913,0.142 -2.447,0.189 -4.604,0.142l-2.488,0c-0.498,-0.095 -1.016,-0.142 -1.555,-0.142l-0.622,0l-0.249,-0.071l-0.187,0l-0.124,-0.071l-0.187,0l-0.186,-0.142l-0.249,0l0,-0.071c-0.29,-0.047 -0.508,-0.177 -0.653,-0.39c-0.145,-0.213 -0.218,-0.461 -0.218,-0.745l0,-0.355c0.415,-1.608 0.809,-4.045 1.182,-7.309l0.373,-2.839c0.166,-1.939 0.27,-3.17 0.311,-3.69l0.685,-6.103l1.181,-9.722l0.809,-6.245c1.037,-8.563 2.115,-16.913 3.235,-25.05c0.041,-0.379 0.218,-0.71 0.529,-0.994c0.311,-0.284 0.632,-0.426 0.964,-0.426c0.29,0 0.539,0.119 0.746,0.355c0.208,0.237 0.311,0.544 0.311,0.923l0,0.213c-0.207,1.797 -0.394,3.146 -0.56,4.045c-1.244,9.462 -2.135,16.44 -2.674,20.934l-0.809,6.245l-1.182,9.722l-0.622,6.032l-0.187,1.987l-0.186,1.774l-0.374,2.626c-0.29,2.413 -0.601,4.565 -0.933,6.458l0.311,0c0.83,0 1.327,0.023 1.493,0.071l2.426,0c1.493,0.047 2.924,0.023 4.293,-0.071l0.124,0c0.332,0 0.601,0.118 0.809,0.354c0.207,0.237 0.311,0.521 0.311,0.852l0,0.284c-0.042,0.378 -0.187,0.698 -0.436,0.958c-0.249,0.26 -0.518,0.414 -0.808,0.461Z" style="fill:#c90067;fill-rule:nonzero;"/><path d="M334.391,105.005c-0.042,0.378 -0.197,0.709 -0.467,0.993c-0.269,0.284 -0.57,0.426 -0.902,0.426l-7.838,-0.142c-0.248,0 -0.477,-0.142 -0.684,-0.426c-0.207,-0.284 -0.311,-0.591 -0.311,-0.922l0,-0.213c0,-0.189 0.042,-0.331 0.125,-0.426c1.741,-13.862 4.084,-34.086 7.029,-60.674c0.041,-0.615 0.352,-1.065 0.933,-1.349l0.497,-0.142c1.245,0.048 3.256,0 6.034,-0.142l1.742,0c0.249,0 0.477,0.119 0.684,0.355c0.208,0.237 0.311,0.521 0.311,0.852l0,0.142c-0.041,0.378 -0.207,0.721 -0.497,1.029c-0.29,0.307 -0.581,0.461 -0.871,0.461c-0.166,0.095 -0.415,0.142 -0.747,0.142l-0.435,0l-0.435,0l-4.977,0.142c-0.622,5.772 -1.514,13.436 -2.675,22.992c0.166,-0.047 0.56,-0.071 1.182,-0.071c0.747,0 1.224,0.024 1.431,0.071l1.368,0c0.913,0 1.369,0.379 1.369,1.136l0,0.355c-0.041,0.378 -0.207,0.721 -0.498,1.029c-0.29,0.307 -0.58,0.461 -0.871,0.461c-0.124,-0.047 -0.435,-0.071 -0.933,-0.071l-0.871,0c-0.165,-0.047 -0.601,-0.071 -1.306,-0.071c-0.58,0 -0.974,0.024 -1.182,0.071c-0.954,8.705 -2.218,19.491 -3.794,32.36c2.488,0.094 4.686,0.142 6.594,0.142c0.248,0 0.476,0.13 0.684,0.39c0.207,0.26 0.311,0.556 0.311,0.887l0,0.213Z" style="fill:#c90067;fill-rule:nonzero;"/><path d="M340.611,105.36c-0.083,0.331 -0.259,0.626 -0.528,0.887c-0.27,0.26 -0.55,0.39 -0.84,0.39c-0.332,0 -0.601,-0.142 -0.809,-0.426c-0.207,-0.284 -0.311,-0.615 -0.311,-0.993l0,-0.213l2.613,-11.071c0.373,-1.703 0.788,-3.359 1.244,-4.967c2.156,-9.462 4.354,-18.096 6.594,-25.902l1.679,-5.961l0.498,-2.058c1.368,-5.11 2.55,-8.8 3.546,-11.071c0.165,-0.615 0.414,-1.088 0.746,-1.419c0.29,-0.426 0.622,-0.686 0.995,-0.78l0.311,-0.071c0.457,0 0.768,0.212 0.933,0.638c0.374,0.71 0.664,4.353 0.871,10.929l0.063,2.838c0.124,9.084 0.207,14.95 0.248,17.599c0.042,0.048 0.063,0.19 0.063,0.426c0,0.095 -0.011,0.19 -0.032,0.284c-0.02,0.095 -0.01,0.213 0.032,0.355l0.186,18.025c0.042,0.615 0.062,1.49 0.062,2.626c0.083,4.305 0.208,7.427 0.374,9.367l0,0.213c-0.042,0.378 -0.166,0.709 -0.374,0.993c-0.207,0.284 -0.456,0.45 -0.746,0.497c-0.042,0.047 -0.166,0.071 -0.373,0.071c-0.705,0 -1.058,-0.355 -1.058,-1.064c-0.249,-2.035 -0.435,-7.996 -0.56,-17.884l-0.062,-4.754l-0.124,-7.664c0,-0.426 0.02,-0.781 0.062,-1.065l-0.124,-1.135c-0.498,-0.095 -1.369,-0.142 -2.613,-0.142c-0.581,0 -1.327,0.047 -2.239,0.142l-2.115,0l-0.374,0l-4.043,16.322l-0.498,2.2l-0.684,2.767c-0.788,3.69 -1.659,7.38 -2.613,11.071ZM349.88,67.748c-0.332,1.231 -0.539,1.987 -0.622,2.271l1.928,0c0.415,-0.047 1.182,-0.071 2.302,-0.071c1.244,0 2.011,0.024 2.302,0.071c-0.083,-7.948 -0.166,-13.341 -0.249,-16.18l-0.249,-5.606c-0.747,2.318 -1.431,4.731 -2.053,7.239l-0.56,2.129l-0.56,2.129c-0.58,2.223 -0.933,3.5 -1.057,3.832c-0.249,0.709 -0.643,2.105 -1.182,4.186Z" style="fill:#c90067;fill-rule:nonzero;"/><path d="M373.207,104.65c-0.083,0.331 -0.259,0.639 -0.529,0.922c-0.269,0.284 -0.57,0.426 -0.902,0.426c-0.746,0 -1.119,-0.402 -1.119,-1.206l0,-0.142l-0.187,-12.135l-0.062,-3.832l0,-2.2c0,-3.17 -0.021,-5.89 -0.062,-8.161l-0.063,-9.083l-0.062,-6.387c-0.083,-7.38 -0.207,-13.791 -0.373,-19.231l0,-0.142c0.041,-0.379 0.187,-0.722 0.435,-1.029c0.249,-0.308 0.54,-0.485 0.871,-0.533l0.125,0c0.29,0 0.56,0.107 0.808,0.32c0.249,0.213 0.374,0.485 0.374,0.816c0.124,4.447 0.228,10.905 0.311,19.373l0.124,6.458l0,6.671l0.124,12.702l0.063,6.032l0.373,-1.277l0.373,-1.703c0.083,-0.332 0.456,-1.751 1.12,-4.258l0.498,-1.774l0.808,-3.194c0.249,-0.851 0.436,-1.537 0.56,-2.058c0.124,-0.52 0.228,-0.851 0.311,-0.993l3.857,-14.832c0.373,-1.656 1.037,-4.116 1.99,-7.38l0.933,-3.193l0.623,-2.271l0.311,-0.994l1.057,-3.761l0.995,-3.761c0.083,-0.378 0.27,-0.686 0.56,-0.923c0.29,-0.236 0.602,-0.354 0.933,-0.354c0.291,0 0.539,0.13 0.747,0.39c0.207,0.26 0.311,0.556 0.311,0.887l-0.062,0.426l-0.685,2.555c-0.166,0.425 -0.311,0.887 -0.435,1.383c-0.125,0.497 -0.27,1.006 -0.436,1.526c-0.083,0.379 -0.176,0.745 -0.279,1.1c-0.104,0.355 -0.197,0.698 -0.28,1.029l-1.12,3.974l-0.747,2.555l-0.559,2.058c-0.498,1.797 -0.954,3.524 -1.369,5.18c-1.037,4.116 -2.094,8.185 -3.172,12.206l-0.685,2.697l-0.373,1.49l-0.498,1.561c0,0.095 -0.269,1.183 -0.808,3.264l-1.12,4.258l-0.498,1.703c-1.493,5.961 -2.529,10.243 -3.11,12.845Z" style="fill:#c90067;fill-rule:nonzero;"/><path d="M387.141,106.779c-0.29,0 -0.549,-0.13 -0.777,-0.39c-0.228,-0.261 -0.343,-0.58 -0.343,-0.958l0,-0.142c0.747,-3.974 1.431,-8.516 2.053,-13.626l0.436,-3.193l0.435,-3.477c0.622,-5.299 1.141,-9.391 1.555,-12.277l0.747,-5.89c0.249,-1.561 0.56,-3.95 0.933,-7.167c0.871,-7.097 1.431,-12.798 1.679,-17.103c0.042,-0.378 0.197,-0.721 0.467,-1.029c0.269,-0.307 0.591,-0.508 0.964,-0.603c0.332,0 0.601,0.118 0.809,0.355c0.207,0.236 0.311,0.52 0.311,0.851l0,0.213c-0.166,3.88 -0.788,10.054 -1.866,18.522l-0.685,5.961l-0.746,5.89c-0.125,1.183 -0.249,2.058 -0.373,2.626l-1.307,10.006l-0.373,3.122l-0.435,4.045c-0.705,5.251 -1.39,9.557 -2.053,12.916c-0.042,0.378 -0.197,0.697 -0.467,0.958c-0.269,0.26 -0.549,0.39 -0.839,0.39l-0.125,0Z" style="fill:#c90067;fill-rule:nonzero;"/><path d="M397.094,105.289c-0.041,0.378 -0.187,0.709 -0.435,0.993c-0.249,0.284 -0.519,0.426 -0.809,0.426c-0.332,0 -0.601,-0.118 -0.809,-0.355c-0.207,-0.236 -0.311,-0.52 -0.311,-0.851l0,-0.142c0.249,-3.123 0.622,-6.576 1.12,-10.361c0.746,-6.056 1.41,-10.858 1.991,-14.406c0.124,-0.378 0.29,-1.538 0.497,-3.477l0.498,-3.407l2.239,-14.689l0.498,-3.264l0.124,-1.136l0.062,-0.639c0,-0.425 0.021,-0.78 0.063,-1.064l0.435,-3.548c0.125,-1.278 0.228,-2.224 0.311,-2.839c0.249,-1.845 0.487,-3.122 0.716,-3.832c0.228,-0.71 0.673,-1.135 1.337,-1.277l0.187,0c0.331,0 0.622,0.165 0.87,0.496c0.291,0.426 0.498,1.136 0.622,2.129l0.187,4.826l0,0.071l0.062,0l0,0.071l-0.062,0c0,0.757 0.021,1.159 0.062,1.206c0.125,6.34 0.332,12.537 0.622,18.593l0.063,1.49c0.124,1.987 0.228,4.897 0.311,8.729l0.124,3.477l0.187,-0.071l0.248,-2.768c0.125,-1.23 0.685,-5.109 1.68,-11.638c0.249,-1.608 0.539,-3.642 0.871,-6.103l0.871,-5.748c0.539,-3.784 1.14,-8.208 1.804,-13.27c0.083,-0.378 0.259,-0.71 0.528,-0.994c0.27,-0.283 0.571,-0.425 0.902,-0.425c0.249,0 0.467,0.118 0.654,0.355c0.186,0.236 0.28,0.52 0.28,0.851l0,0.213c-0.374,3.075 -1.265,9.438 -2.675,19.089l-0.685,5.181c-0.414,2.886 -1.016,7.214 -1.804,12.986c-0.29,2.413 -0.435,3.809 -0.435,4.187l-0.56,4.329c-0.124,0.378 -0.228,0.875 -0.311,1.49l-0.56,4.187c-0.414,3.501 -0.705,6.813 -0.871,9.935c-0.041,0.426 -0.186,0.769 -0.435,1.029c-0.249,0.26 -0.498,0.39 -0.746,0.39l-0.125,0c-0.29,0 -0.539,-0.118 -0.746,-0.354c-0.208,-0.237 -0.311,-0.497 -0.311,-0.781l0,-0.142c-0.042,-0.142 -0.042,-0.449 0,-0.922l0,-0.071c0,0 -0.011,-0.036 -0.031,-0.107c-0.021,-0.071 -0.032,-0.177 -0.032,-0.319c0.125,-1.94 0.187,-4.14 0.187,-6.6l-0.062,-4.613c-0.125,-4.305 -0.373,-11.283 -0.747,-20.934l-0.062,-1.561c-0.124,-2.129 -0.186,-3.974 -0.186,-5.536c-0.083,-2.081 -0.125,-3.406 -0.125,-3.974c-0.083,-0.756 -0.124,-1.277 -0.124,-1.561l0.062,-0.993l-0.124,-2.2l-0.125,0l-0.062,0.71l-0.622,4.115c-0.083,0.379 -0.166,0.899 -0.249,1.562l-1.866,12.347l-0.498,3.407c-0.166,1.561 -0.332,2.72 -0.497,3.477c-0.581,3.879 -1.286,8.918 -2.115,15.115l-1.058,9.51Z" style="fill:#c90067;fill-rule:nonzero;"/><path d="M424.154,103.018c-1.369,2.791 -2.924,4.187 -4.666,4.187c-1.078,0 -1.98,-0.391 -2.706,-1.171c-0.726,-0.781 -1.151,-2.046 -1.275,-3.797c-0.083,-0.615 -0.124,-1.703 -0.124,-3.264c0,-1.798 0.041,-3.217 0.124,-4.258c0.29,-6.103 0.974,-13.365 2.053,-21.786c0.746,-6.198 1.596,-12.159 2.55,-17.883c0.581,-3.359 1.099,-5.867 1.555,-7.522c0.374,-1.703 0.788,-2.863 1.244,-3.478c1.493,-2.129 3.546,-3.193 6.159,-3.193c1.285,0 2.167,0.52 2.643,1.561c0.477,1.041 0.695,2.626 0.654,4.755c0,0.047 0.01,0.154 0.031,0.319c0.02,0.166 0.01,0.32 -0.031,0.461l0,1.633c-0.042,0.331 -0.208,0.662 -0.498,0.993c-0.29,0.331 -0.622,0.497 -0.995,0.497c-0.291,0 -0.55,-0.107 -0.778,-0.319c-0.228,-0.213 -0.342,-0.509 -0.342,-0.888l0,-0.07l0.062,-1.491c0,-0.047 -0.01,-0.153 -0.031,-0.319c-0.021,-0.166 -0.01,-0.319 0.031,-0.461c0,-1.467 -0.103,-2.484 -0.311,-3.052c-0.249,-0.473 -0.518,-0.709 -0.808,-0.709c-1.701,0 -3.007,0.638 -3.919,1.916c-0.042,0.047 -0.083,0.142 -0.125,0.283c-0.041,0.142 -0.083,0.284 -0.124,0.426c-0.042,0.189 -0.114,0.45 -0.218,0.781c-0.104,0.331 -0.218,0.733 -0.342,1.206l-0.995,4.968l-0.311,1.916c-0.83,5.062 -1.659,10.81 -2.489,17.244c-0.995,8.374 -1.7,15.683 -2.115,21.928l-0.062,3.264l0.062,3.407c0,0.615 0.063,1.253 0.187,1.916l0.187,0.497c0.456,0.473 0.912,0.709 1.368,0.709c0.373,0 0.715,-0.177 1.027,-0.532c0.311,-0.355 0.694,-0.958 1.15,-1.81c1.12,-2.412 2.281,-6.363 3.484,-11.851l0.373,-2.2l0.56,-3.122c0.083,-0.095 0.135,-0.201 0.155,-0.319c0.021,-0.119 0.052,-0.225 0.094,-0.32c0,-0.189 0.041,-0.52 0.124,-0.993c0.125,-0.946 0.249,-1.656 0.373,-2.129l0.125,-1.065l0.435,-2.554c0.332,-1.514 0.747,-4.211 1.244,-8.09c0.125,-0.946 0.27,-2.484 0.436,-4.613c0.041,-0.095 0.062,-0.284 0.062,-0.568c0,-0.378 -0.021,-0.686 -0.062,-0.922l-1.058,0.142l-0.373,0.142c-0.166,0 -0.27,0.023 -0.311,0.071l-1.742,0.425c-0.041,0.048 -0.145,0.071 -0.311,0.071c-0.249,0 -0.456,-0.118 -0.622,-0.354c-0.166,-0.237 -0.269,-0.521 -0.311,-0.852c-0.041,-0.047 -0.062,-0.166 -0.062,-0.355c0.083,-0.284 0.228,-0.556 0.435,-0.816c0.208,-0.26 0.457,-0.438 0.747,-0.532l0.311,-0.071c0.041,-0.047 0.145,-0.071 0.311,-0.071l0.435,-0.142c0.415,-0.142 0.602,-0.189 0.56,-0.142c0.042,-0.047 0.145,-0.071 0.311,-0.071l0.373,-0.142c0.747,-0.142 1.307,-0.213 1.68,-0.213c0.083,-0.047 0.29,-0.071 0.622,-0.071c0.498,0 0.912,0.213 1.244,0.639c0.332,0.615 0.477,1.561 0.436,2.839c-0.291,2.98 -0.477,4.849 -0.56,5.606c-0.498,3.926 -0.913,6.718 -1.244,8.374l-0.498,2.483l-0.124,1.065l-0.374,2.129c-0.166,0.615 -0.269,1.135 -0.311,1.561l-0.248,1.419c-0.208,1.325 -0.457,2.65 -0.747,3.974c-1.12,5.725 -2.385,9.982 -3.794,12.774Z" style="fill:#c90067;fill-rule:nonzero;"/></g><path d="M0,150.5l38.495,0l0.141,-54.498l-11.011,-0.002l27.711,-54.443l14.664,5.703l0,-7.659l10.603,-4.321l10.189,9.615l0.108,8.612l19.431,7.494l21.863,-21.992l37.24,37.491l-6.519,0l-0.015,20.656l30.698,16.344l-9.241,-0.043l0.043,37.043l510.6,-0.042" style="fill:none;stroke-width:1px;stroke:#d2cfce;"/><path d="M695,150.958l0,2.042l-695,0l0,-2l38.495,0c0.063,-0.013 0.131,-0.013 0.191,-0.038c0.165,-0.068 0.176,-0.13 0.27,-0.27l0.039,-0.191l0.141,-54.498l-0.038,-0.191l-0.108,-0.163l-0.163,-0.109l-0.191,-0.038l-10.195,-0.002l27.136,-53.313l14.242,5.539c0.063,0.011 0.125,0.035 0.19,0.034c0.131,-0.003 0.256,-0.056 0.348,-0.15c0.045,-0.046 0.07,-0.107 0.106,-0.161l0.037,-0.189l0,-7.323l9.994,-4.072l9.801,9.248l0.105,8.4l0.041,0.193l0.113,0.161l0.166,0.106l19.431,7.494c0.063,0.011 0.125,0.035 0.189,0.034c0.176,-0.004 0.208,-0.055 0.346,-0.148l21.508,-21.634l36.038,36.281l-5.317,0c-0.064,0.013 -0.132,0.013 -0.192,0.038c-0.122,0.051 -0.219,0.148 -0.27,0.27c-0.025,0.06 -0.026,0.128 -0.038,0.192l-0.015,20.656c0.028,0.153 0.016,0.207 0.124,0.33c0.04,0.045 0.094,0.074 0.141,0.111l28.912,15.394l-7.218,-0.034l-0.192,0.038l-0.163,0.108l-0.109,0.163l-0.038,0.192l0.043,37.043c0.033,0.165 0.02,0.226 0.147,0.353c0.046,0.046 0.108,0.072 0.162,0.108l0.191,0.038l510.6,-0.042Z" style="fill:#f4f3f3;"/><g transform="matrix(0.663497,0,0,0.647208,71.0762,105.021)"><path d="M197.884,51.282c-0.054,0.215 -0.174,0.402 -0.362,0.563c-0.187,0.161 -0.401,0.241 -0.642,0.241c-0.188,0 -0.349,-0.067 -0.482,-0.201c-0.134,-0.134 -0.201,-0.308 -0.201,-0.522l0,-0.121l0.482,-3.254c0.08,-0.401 0.14,-0.783 0.181,-1.145c0.04,-0.361 0.087,-0.689 0.14,-0.984l0.924,-7.191c0.027,-0.187 0.054,-0.368 0.08,-0.542c0.027,-0.174 0.041,-0.355 0.041,-0.542l0.08,-0.643l0.08,-0.522l0.723,-6.066l0.322,-2.732c0.027,-0.214 0.14,-0.402 0.341,-0.563c0.201,-0.16 0.409,-0.241 0.623,-0.241c0.214,0 0.382,0.061 0.502,0.181c0.121,0.121 0.181,0.288 0.181,0.502l0,0.121c-0.429,3.669 -0.777,6.588 -1.045,8.757l-0.08,0.483l-0.08,0.682c0,0.188 -0.014,0.375 -0.041,0.563c-0.026,0.187 -0.053,0.375 -0.08,0.562c-0.268,2.33 -0.616,5.075 -1.044,8.236l-0.643,4.378ZM201.982,22.72c-0.108,0.294 -0.268,0.542 -0.483,0.743c-0.214,0.201 -0.441,0.301 -0.682,0.301l-0.161,0c-0.402,0 -0.71,-0.16 -0.924,-0.482c-0.107,-0.321 -0.161,-0.522 -0.161,-0.602l0,-0.121l0.04,-0.161c0.054,-0.241 0.107,-0.415 0.161,-0.522c0.321,-0.455 0.737,-0.683 1.245,-0.683c0.349,0 0.63,0.074 0.844,0.221c0.214,0.147 0.321,0.368 0.321,0.663c0,0.134 -0.013,0.241 -0.04,0.321c-0.08,0.081 -0.134,0.174 -0.16,0.282l0,0.04Z" style="fill:#878888;fill-rule:nonzero;"/><path d="M210.98,51.242c-0.053,0.215 -0.174,0.409 -0.361,0.583c-0.188,0.174 -0.389,0.261 -0.603,0.261c-0.187,0 -0.348,-0.067 -0.482,-0.201c-0.134,-0.134 -0.201,-0.308 -0.201,-0.522l0,-0.121l0.161,-1.245l0.08,-0.321l0.08,-0.603c0.108,-0.643 0.175,-1.004 0.201,-1.085c0.241,-1.553 0.536,-3.468 0.884,-5.744c0.563,-4.071 0.844,-7.285 0.844,-9.642c0,-1.285 -0.067,-2.223 -0.201,-2.812c-0.161,-0.83 -0.388,-1.285 -0.683,-1.366l-0.08,0c-0.108,0 -0.268,0.067 -0.482,0.201c-0.187,0.107 -0.416,0.308 -0.683,0.603l-0.643,0.602c-0.938,1.072 -1.835,3.04 -2.692,5.906c-0.857,2.865 -1.526,6.012 -2.008,9.44c-0.349,2.384 -0.523,4.325 -0.523,5.825l-0.04,0.081c-0.027,0.214 -0.114,0.401 -0.261,0.562c-0.147,0.161 -0.315,0.241 -0.502,0.241l-0.08,0c-0.134,0.08 -0.282,0.121 -0.442,0.121c-0.188,0 -0.355,-0.074 -0.503,-0.221c-0.147,-0.148 -0.22,-0.302 -0.22,-0.462l0,-0.081l0.241,-2.45c0.267,-1.795 0.816,-4.901 1.647,-9.32l0.241,-1.286c0.91,-4.579 1.459,-7.619 1.647,-9.119l0.201,-1.687l0,-0.04c0.026,-0.215 0.14,-0.402 0.341,-0.563c0.201,-0.161 0.395,-0.241 0.583,-0.241c0.214,0 0.395,0.074 0.542,0.221c0.147,0.147 0.221,0.315 0.221,0.502l0,0.081c0.027,0.08 -0.013,0.468 -0.121,1.165c-0.107,0.749 -0.187,1.218 -0.241,1.406c0.429,-0.59 0.683,-0.924 0.764,-1.005c1.232,-1.446 2.316,-2.169 3.254,-2.169c1.124,0 1.848,0.83 2.169,2.491c0.161,0.83 0.241,1.901 0.241,3.214c0,2.624 -0.295,5.999 -0.884,10.123c-0.053,0.562 -0.201,1.527 -0.442,2.892l-0.401,2.571c-0.081,0.242 -0.161,0.603 -0.241,1.085l-0.081,0.723c-0.053,0.054 -0.08,0.121 -0.08,0.201l-0.161,1.205Z" style="fill:#878888;fill-rule:nonzero;"/><path d="M222.188,49.234c-0.187,0.857 -0.669,1.58 -1.446,2.169c-0.777,0.589 -1.62,0.884 -2.531,0.884c-0.776,0 -1.399,-0.241 -1.868,-0.723c-0.468,-0.482 -0.703,-1.139 -0.703,-1.969c0,-0.321 0.014,-0.562 0.04,-0.723l2.049,-13.859l0.924,-6.589c-0.803,0 -1.393,0.027 -1.767,0.081c-0.188,0 -0.349,-0.081 -0.483,-0.241c-0.133,-0.161 -0.2,-0.349 -0.2,-0.563l0,-0.08l0.04,-0.04c0.027,-0.188 0.127,-0.362 0.301,-0.523c0.174,-0.16 0.368,-0.241 0.583,-0.241c0.187,-0.026 0.763,-0.04 1.727,-0.04l0.603,-4.017l0.482,-3.214c0.026,-0.214 0.134,-0.402 0.321,-0.562c0.187,-0.161 0.388,-0.241 0.603,-0.241c0.187,0 0.354,0.073 0.502,0.221c0.147,0.147 0.221,0.328 0.221,0.542l0,0.08c-0.188,1.232 -0.348,2.357 -0.482,3.375l-0.603,3.816l2.852,-0.08c0.215,0 0.395,0.067 0.543,0.201c0.147,0.134 0.221,0.308 0.221,0.522l0,0.08c-0.054,0.241 -0.161,0.442 -0.322,0.603c-0.161,0.161 -0.361,0.241 -0.602,0.241l-2.893,0.08l-0.924,6.589l-2.049,14.14l-0.04,0.362c0,0.777 0.362,1.165 1.085,1.165c0.268,0 0.542,-0.054 0.823,-0.161c0.282,-0.107 0.503,-0.227 0.663,-0.361c0.375,-0.295 0.603,-0.657 0.683,-1.085c0.054,-0.214 0.174,-0.395 0.362,-0.542c0.187,-0.148 0.375,-0.221 0.562,-0.221c0.214,0 0.389,0.073 0.522,0.221c0.134,0.147 0.201,0.328 0.201,0.542l0,0.161Z" style="fill:#878888;fill-rule:nonzero;"/><path d="M229.66,51.724c-0.749,0.295 -1.365,0.442 -1.848,0.442c-1.419,0 -2.417,-0.723 -2.992,-2.169c-0.576,-1.446 -0.864,-3.227 -0.864,-5.343c0,-1.607 0.107,-3.12 0.321,-4.54c0.429,-3.053 1.139,-5.804 2.129,-8.255c0.991,-2.451 2.197,-3.997 3.616,-4.64c0.643,-0.214 1.138,-0.321 1.486,-0.321c0.991,0 1.748,0.455 2.27,1.366c0.522,0.91 0.783,2.115 0.783,3.615c0,0.75 -0.053,1.446 -0.16,2.089c-0.027,0.268 -0.134,0.884 -0.322,1.848c-0.053,0.214 -0.174,0.395 -0.361,0.542c-0.188,0.148 -0.375,0.221 -0.563,0.221l-0.321,0l-0.683,0c-0.428,0 -0.75,0.014 -0.964,0.04l-3.495,0.041c-0.268,0.053 -0.522,0.08 -0.763,0.08l-0.282,0l-0.12,0c-0.375,1.741 -0.603,2.933 -0.683,3.575c-0.187,1.286 -0.281,2.612 -0.281,3.977c0,1.875 0.227,3.388 0.683,4.54c0.455,1.125 1.084,1.687 1.888,1.687c0.214,0 0.361,-0.013 0.442,-0.04l0.16,-0.08c0,0 0.027,-0.027 0.081,-0.081c0.857,-0.268 1.433,-0.629 1.727,-1.084c0.107,-0.375 0.161,-0.71 0.161,-1.005l0.08,-0.602c0.027,-0.215 0.141,-0.402 0.342,-0.563c0.201,-0.16 0.408,-0.241 0.622,-0.241c0.187,0.027 0.348,0.107 0.482,0.241c0.134,0.134 0.201,0.308 0.201,0.523l0,0.12l-0.04,0.362c-0.053,0.83 -0.241,1.513 -0.562,2.048c-0.322,0.536 -0.964,1.032 -1.929,1.487l-0.241,0.12ZM227.612,33.205c-0.134,0.268 -0.268,0.616 -0.402,1.044c-0.134,0.429 -0.214,0.697 -0.241,0.804l0.161,0c0.374,0 0.642,-0.014 0.803,-0.04l3.415,-0.041c0.214,-0.026 0.549,-0.04 1.004,-0.04l0.241,0c0.187,-0.964 0.281,-1.901 0.281,-2.812c0,-0.857 -0.107,-1.634 -0.321,-2.33c-0.322,-0.803 -0.75,-1.205 -1.286,-1.205c-0.294,0 -0.562,0.054 -0.803,0.161c-0.991,0.455 -1.942,1.941 -2.852,4.459Z" style="fill:#878888;fill-rule:nonzero;"/><path d="M236.45,52.206c-0.054,0.027 -0.134,0.027 -0.241,0l-0.081,0c-0.187,0 -0.341,-0.073 -0.462,-0.221c-0.12,-0.147 -0.207,-0.328 -0.261,-0.542c0.134,-0.857 0.201,-1.406 0.201,-1.647l0.08,-0.803l0.241,-2.049l0.362,-2.33l0.402,-3.013l0.602,-4.138c0.482,-3.642 0.884,-6.936 1.205,-9.882c0.027,-0.215 0.127,-0.409 0.301,-0.583c0.174,-0.174 0.382,-0.274 0.623,-0.301c0.214,0 0.388,0.067 0.522,0.201c0.134,0.134 0.201,0.294 0.201,0.482l0,0.12l-0.241,1.969l-0.442,3.937c1.285,-2.973 2.624,-4.942 4.017,-5.906c0.83,-0.616 1.741,-0.91 2.732,-0.884c0.187,0.027 0.335,0.114 0.442,0.262c0.108,0.147 0.161,0.328 0.161,0.542l0,0.12c-0.053,0.215 -0.181,0.402 -0.382,0.563c-0.201,0.161 -0.408,0.228 -0.622,0.201c-1.018,-0.107 -2.062,0.656 -3.134,2.29c-0.964,1.473 -1.861,3.454 -2.692,5.945c-0.83,2.491 -1.513,5.196 -2.048,8.115c-0.134,1.152 -0.362,2.839 -0.683,5.062l0,1.526l-0.04,0.161c-0.027,0.214 -0.107,0.395 -0.241,0.542c-0.134,0.148 -0.308,0.235 -0.522,0.261Z" style="fill:#878888;fill-rule:nonzero;"/><path d="M247.417,51.282c-0.054,0.215 -0.174,0.402 -0.362,0.563c-0.187,0.161 -0.402,0.241 -0.643,0.241c-0.187,0 -0.348,-0.067 -0.482,-0.201c-0.134,-0.134 -0.201,-0.308 -0.201,-0.522l0,-0.121l0.482,-3.254c0.081,-0.401 0.141,-0.783 0.181,-1.145c0.04,-0.361 0.087,-0.689 0.141,-0.984l0.924,-7.191c0.027,-0.187 0.053,-0.368 0.08,-0.542c0.027,-0.174 0.04,-0.355 0.04,-0.542l0.081,-0.643l0.08,-0.522l0.723,-6.066l0.321,-2.732c0.027,-0.214 0.141,-0.402 0.342,-0.563c0.201,-0.16 0.408,-0.241 0.623,-0.241c0.214,0 0.381,0.061 0.502,0.181c0.12,0.121 0.181,0.288 0.181,0.502l0,0.121c-0.429,3.669 -0.777,6.588 -1.045,8.757l-0.08,0.483l-0.081,0.682c0,0.188 -0.013,0.375 -0.04,0.563c-0.027,0.187 -0.053,0.375 -0.08,0.562c-0.268,2.33 -0.616,5.075 -1.045,8.236l-0.642,4.378ZM251.514,22.72c-0.107,0.294 -0.268,0.542 -0.482,0.743c-0.214,0.201 -0.442,0.301 -0.683,0.301l-0.16,0c-0.402,0 -0.71,-0.16 -0.924,-0.482c-0.108,-0.321 -0.161,-0.522 -0.161,-0.602l0,-0.121l0.04,-0.161c0.054,-0.241 0.107,-0.415 0.161,-0.522c0.321,-0.455 0.736,-0.683 1.245,-0.683c0.348,0 0.63,0.074 0.844,0.221c0.214,0.147 0.321,0.368 0.321,0.663c0,0.134 -0.013,0.241 -0.04,0.321c-0.08,0.081 -0.134,0.174 -0.161,0.282l0,0.04Z" style="fill:#878888;fill-rule:nonzero;"/><path d="M257.219,51.724c-0.75,0.295 -1.366,0.442 -1.848,0.442c-1.42,0 -2.417,-0.723 -2.993,-2.169c-0.576,-1.446 -0.864,-3.227 -0.864,-5.343c0,-1.607 0.107,-3.12 0.322,-4.54c0.428,-3.053 1.138,-5.804 2.129,-8.255c0.991,-2.451 2.196,-3.997 3.615,-4.64c0.643,-0.214 1.138,-0.321 1.487,-0.321c0.991,0 1.747,0.455 2.269,1.366c0.523,0.91 0.784,2.115 0.784,3.615c0,0.75 -0.054,1.446 -0.161,2.089c-0.027,0.268 -0.134,0.884 -0.321,1.848c-0.054,0.214 -0.174,0.395 -0.362,0.542c-0.187,0.148 -0.375,0.221 -0.562,0.221l-0.322,0l-0.683,0c-0.428,0 -0.749,0.014 -0.964,0.04l-3.495,0.041c-0.268,0.053 -0.522,0.08 -0.763,0.08l-0.281,0l-0.121,0c-0.375,1.741 -0.602,2.933 -0.683,3.575c-0.187,1.286 -0.281,2.612 -0.281,3.977c0,1.875 0.228,3.388 0.683,4.54c0.455,1.125 1.085,1.687 1.888,1.687c0.214,0 0.362,-0.013 0.442,-0.04l0.161,-0.08c0,0 0.027,-0.027 0.08,-0.081c0.857,-0.268 1.433,-0.629 1.727,-1.084c0.107,-0.375 0.161,-0.71 0.161,-1.005l0.08,-0.602c0.027,-0.215 0.141,-0.402 0.342,-0.563c0.201,-0.16 0.408,-0.241 0.623,-0.241c0.187,0.027 0.348,0.107 0.482,0.241c0.134,0.134 0.201,0.308 0.201,0.523l0,0.12l-0.041,0.362c-0.053,0.83 -0.241,1.513 -0.562,2.048c-0.321,0.536 -0.964,1.032 -1.928,1.487l-0.241,0.12ZM255.17,33.205c-0.134,0.268 -0.268,0.616 -0.402,1.044c-0.134,0.429 -0.214,0.697 -0.241,0.804l0.161,0c0.375,0 0.643,-0.014 0.803,-0.04l3.415,-0.041c0.214,-0.026 0.549,-0.04 1.004,-0.04l0.241,0c0.188,-0.964 0.281,-1.901 0.281,-2.812c0,-0.857 -0.107,-1.634 -0.321,-2.33c-0.321,-0.803 -0.75,-1.205 -1.285,-1.205c-0.295,0 -0.563,0.054 -0.804,0.161c-0.991,0.455 -1.942,1.941 -2.852,4.459Z" style="fill:#878888;fill-rule:nonzero;"/><path d="M272.163,51.805c-0.027,0.294 -0.268,0.522 -0.723,0.683l-0.201,0.04c-0.187,0 -0.341,-0.06 -0.462,-0.181c-0.12,-0.12 -0.181,-0.261 -0.181,-0.422c-0.053,-0.803 -0.08,-1.486 -0.08,-2.049c0,-0.669 0.053,-1.941 0.161,-3.816l-0.121,0l-0.201,0.723c-0.053,0.214 -0.08,0.388 -0.08,0.522l-0.04,0.161c-0.348,1.339 -0.964,2.457 -1.848,3.354c-0.884,0.898 -1.821,1.346 -2.812,1.346c-0.804,0 -1.44,-0.321 -1.909,-0.964c-0.468,-0.643 -0.703,-1.54 -0.703,-2.691c0,-1.286 0.188,-3.187 0.563,-5.705l0.562,-4.017l0.322,-2.451l0.522,-3.575c0.107,-0.563 0.174,-0.884 0.201,-0.964l0.442,-2.812c0.107,-0.857 0.16,-1.353 0.16,-1.487c0.027,-0.241 0.134,-0.435 0.322,-0.582c0.187,-0.148 0.388,-0.221 0.602,-0.221c0.161,0 0.308,0.067 0.442,0.201c0.134,0.134 0.201,0.281 0.201,0.442l0,0.08l-0.201,1.486l-0.241,1.527l-0.361,2.37l-0.523,3.495l-0.281,2.37l-0.602,4.138c-0.375,2.625 -0.563,4.499 -0.563,5.624c0,0.83 0.174,1.446 0.522,1.848c0.161,0.214 0.402,0.322 0.724,0.322c0.616,0 1.231,-0.375 1.847,-1.125c0.483,-0.616 0.844,-1.339 1.085,-2.17l0.121,-0.602c0.16,-0.83 0.428,-1.835 0.803,-3.013c0.429,-1.5 0.696,-2.571 0.804,-3.214l1.004,-3.897c0.857,-3.749 1.366,-6.267 1.526,-7.552c0.054,-0.322 0.108,-0.871 0.161,-1.647l0.04,-0.121c0.027,-0.187 0.121,-0.361 0.281,-0.522c0.161,-0.161 0.362,-0.241 0.603,-0.241c0.188,0 0.355,0.067 0.502,0.201c0.148,0.134 0.221,0.308 0.221,0.522l-0.201,1.768c-0.08,0.321 -0.154,0.696 -0.221,1.125c-0.067,0.428 -0.113,0.763 -0.14,1.004l-0.281,1.687l-0.643,4.138l-0.322,2.129c-0.589,4.205 -0.883,7.78 -0.883,10.726c0,0.83 0.013,1.433 0.04,1.808c0.027,0.027 0.04,0.094 0.04,0.201Z" style="fill:#878888;fill-rule:nonzero;"/><path d="M276.662,52.206c-0.053,0.027 -0.134,0.027 -0.241,0l-0.08,0c-0.188,0 -0.342,-0.073 -0.462,-0.221c-0.121,-0.147 -0.208,-0.328 -0.261,-0.542c0.134,-0.857 0.201,-1.406 0.201,-1.647l0.08,-0.803l0.241,-2.049l0.362,-2.33l0.401,-3.013l0.603,-4.138c0.482,-3.642 0.884,-6.936 1.205,-9.882c0.027,-0.215 0.127,-0.409 0.301,-0.583c0.174,-0.174 0.382,-0.274 0.623,-0.301c0.214,0 0.388,0.067 0.522,0.201c0.134,0.134 0.201,0.294 0.201,0.482l0,0.12l-0.241,1.969l-0.442,3.937c1.286,-2.973 2.625,-4.942 4.017,-5.906c0.831,-0.616 1.741,-0.91 2.732,-0.884c0.188,0.027 0.335,0.114 0.442,0.262c0.107,0.147 0.161,0.328 0.161,0.542l0,0.12c-0.054,0.215 -0.181,0.402 -0.382,0.563c-0.201,0.161 -0.408,0.228 -0.622,0.201c-1.018,-0.107 -2.063,0.656 -3.134,2.29c-0.964,1.473 -1.861,3.454 -2.692,5.945c-0.83,2.491 -1.513,5.196 -2.048,8.115c-0.134,1.152 -0.362,2.839 -0.683,5.062l0,1.526l-0.04,0.161c-0.027,0.214 -0.108,0.395 -0.241,0.542c-0.134,0.148 -0.308,0.235 -0.523,0.261Z" style="fill:#878888;fill-rule:nonzero;"/><path d="M291.606,52.407c-0.026,0.027 -0.107,0.04 -0.241,0.04c-0.187,0 -0.348,-0.053 -0.482,-0.16c-0.134,-0.107 -0.214,-0.241 -0.241,-0.402c-0.053,-0.161 -0.107,-0.656 -0.16,-1.486c-0.482,0.535 -1.024,0.95 -1.627,1.245c-0.603,0.295 -1.185,0.442 -1.747,0.442c-0.75,0 -1.353,-0.268 -1.808,-0.804c-0.669,-0.669 -1.004,-1.821 -1.004,-3.454c0,-0.643 0.04,-1.286 0.12,-1.929c0.241,-1.714 0.729,-3.381 1.466,-5.001c0.736,-1.62 1.573,-2.832 2.51,-3.636c0.777,-0.616 1.514,-0.924 2.21,-0.924c0.509,0 1.031,0.161 1.567,0.482c0.321,-2.142 0.535,-3.749 0.642,-4.82c0.107,-1.098 0.161,-1.955 0.161,-2.571c0,-0.509 -0.047,-0.871 -0.141,-1.085c-0.093,-0.214 -0.247,-0.362 -0.462,-0.442c0,-0.054 -0.04,-0.08 -0.12,-0.08c-0.268,0 -0.616,0.187 -1.045,0.562c-0.374,0.268 -0.99,0.884 -1.847,1.848c-0.161,0.214 -0.389,0.321 -0.683,0.321c-0.134,0 -0.288,-0.067 -0.462,-0.2c-0.174,-0.134 -0.262,-0.308 -0.262,-0.523l0,-0.08c0,-0.161 0.081,-0.335 0.242,-0.522c1.767,-2.036 3.2,-3.053 4.298,-3.053c0.67,0 1.198,0.281 1.587,0.843c0.388,0.563 0.582,1.353 0.582,2.37c0,1.045 -0.187,2.839 -0.562,5.384l-0.643,4.499l-0.12,0.763l-0.281,2.089c-0.428,3.107 -0.683,5.129 -0.763,6.066c-0.053,0.536 -0.08,1.219 -0.08,2.049c0,0.536 0.013,0.897 0.04,1.085c0.027,0.026 0.04,0.107 0.04,0.241c-0.053,0.187 -0.14,0.361 -0.261,0.522c-0.121,0.161 -0.261,0.268 -0.422,0.321ZM285.982,47.667c0,1.982 0.536,2.892 1.607,2.732c0.563,-0.134 1.085,-0.422 1.567,-0.864c0.482,-0.442 0.977,-1.078 1.486,-1.908l0.121,-0.603c0.026,-0.589 0.214,-2.062 0.562,-4.419l0.362,-2.571l0.16,-1.085c-0.535,-0.616 -1.017,-0.923 -1.446,-0.923c-0.348,0 -0.71,0.174 -1.085,0.522c-0.696,0.562 -1.352,1.553 -1.968,2.973c-0.616,1.419 -1.031,2.905 -1.245,4.459c-0.081,0.562 -0.121,1.125 -0.121,1.687Z" style="fill:#878888;fill-rule:nonzero;"/><path d="M299.842,52.046c-0.08,0.027 -0.295,0.04 -0.643,0.04l-0.2,0c-0.884,0.08 -1.6,-0.241 -2.149,-0.964c-0.549,-0.723 -0.904,-1.754 -1.065,-3.094c-0.133,-0.776 -0.2,-1.754 -0.2,-2.932c0,-1.312 0.093,-2.611 0.281,-3.897c0.241,-1.687 0.616,-3.334 1.125,-4.941c0.509,-1.607 1.085,-2.959 1.727,-4.058c1.286,-2.008 2.678,-3.012 4.178,-3.012c0.295,0 0.616,0.053 0.965,0.16c0.16,-1.205 0.254,-1.928 0.281,-2.169l0.121,-0.844l0.12,-0.924l0.201,-1.687l0.2,-1.848l0.321,-2.41c0,0.16 0.053,-0.295 0.161,-1.366c0.107,-0.884 0.214,-1.594 0.321,-2.129c0.053,-0.214 0.174,-0.402 0.361,-0.563c0.188,-0.16 0.402,-0.241 0.643,-0.241c0.187,0 0.348,0.067 0.482,0.201c0.134,0.134 0.201,0.308 0.201,0.522l0,0.121c-0.107,0.509 -0.254,1.473 -0.442,2.892c-0.187,1.286 -0.428,3.187 -0.723,5.705l-0.321,2.531l-0.482,4.178l-0.161,1.647l-0.763,5.624c-0.937,6.561 -1.807,10.699 -2.611,12.413c-0.402,0.67 -1.045,1.018 -1.929,1.045ZM297.432,47.587c0.267,1.928 0.816,2.879 1.647,2.852l0.241,0c0.455,0 0.776,-0.04 0.964,-0.121c0.776,-1.633 1.607,-5.637 2.49,-12.011l0.724,-5.343c0.107,-0.723 0.161,-1.339 0.161,-1.848c-0.134,0 -0.227,-0.027 -0.281,-0.081c-0.214,-0.08 -0.428,-0.12 -0.643,-0.12c-0.831,0 -1.614,0.536 -2.35,1.607c-0.737,1.071 -1.346,2.41 -1.828,4.017c-0.429,1.42 -0.764,2.96 -1.005,4.62c-0.214,1.5 -0.321,2.785 -0.321,3.857c0,0.83 0.067,1.687 0.201,2.571Z" style="fill:#878888;fill-rule:nonzero;"/><path d="M310.367,51.724c-0.161,0.161 -0.361,0.241 -0.603,0.241c-0.214,0 -0.388,-0.053 -0.522,-0.16c-0.134,-0.107 -0.201,-0.268 -0.201,-0.482l0,-0.081l0,-3.334c0,-5.758 -0.08,-12.494 -0.241,-20.207l0,-0.08c0.054,-0.241 0.154,-0.442 0.302,-0.603c0.147,-0.16 0.328,-0.254 0.542,-0.281l0.08,0c0.215,0 0.395,0.067 0.543,0.201c0.147,0.134 0.221,0.294 0.221,0.482l0.2,14.663l0,0.844c0,0.214 -0.006,0.549 -0.02,1.004c-0.013,0.455 -0.006,0.87 0.02,1.245c0.509,-1.794 1.152,-3.803 1.929,-6.026l0.442,-1.366l0.281,-0.843c0.08,-0.295 0.134,-0.455 0.161,-0.482c0.696,-2.036 1.325,-4.004 1.888,-5.906c0.187,-0.535 0.495,-1.553 0.924,-3.053c0.214,-0.482 0.549,-0.723 1.004,-0.723c0.187,0 0.348,0.074 0.482,0.221c0.134,0.147 0.201,0.328 0.201,0.542l-0.04,0.201l-0.964,3.094c-0.402,1.419 -1.045,3.401 -1.929,5.945c-0.08,0.268 -0.134,0.442 -0.16,0.522c-0.027,0.108 -0.067,0.221 -0.121,0.342c-0.054,0.12 -0.107,0.261 -0.161,0.422l-0.442,1.406l-0.803,2.531c-1.286,3.91 -2.156,6.936 -2.611,9.079c-0.027,0.294 -0.161,0.508 -0.402,0.642Z" style="fill:#878888;fill-rule:nonzero;"/><path d="M320.008,51.282c-0.053,0.215 -0.174,0.402 -0.361,0.563c-0.188,0.161 -0.402,0.241 -0.643,0.241c-0.187,0 -0.348,-0.067 -0.482,-0.201c-0.134,-0.134 -0.201,-0.308 -0.201,-0.522l0,-0.121l0.482,-3.254c0.081,-0.401 0.141,-0.783 0.181,-1.145c0.04,-0.361 0.087,-0.689 0.141,-0.984l0.924,-7.191c0.026,-0.187 0.053,-0.368 0.08,-0.542c0.027,-0.174 0.04,-0.355 0.04,-0.542l0.081,-0.643l0.08,-0.522l0.723,-6.066l0.321,-2.732c0.027,-0.214 0.141,-0.402 0.342,-0.563c0.201,-0.16 0.408,-0.241 0.623,-0.241c0.214,0 0.381,0.061 0.502,0.181c0.12,0.121 0.18,0.288 0.18,0.502l0,0.121c-0.428,3.669 -0.776,6.588 -1.044,8.757l-0.08,0.483l-0.081,0.682c0,0.188 -0.013,0.375 -0.04,0.563c-0.027,0.187 -0.053,0.375 -0.08,0.562c-0.268,2.33 -0.616,5.075 -1.045,8.236l-0.642,4.378ZM324.106,22.72c-0.107,0.294 -0.268,0.542 -0.482,0.743c-0.214,0.201 -0.442,0.301 -0.683,0.301l-0.161,0c-0.401,0 -0.709,-0.16 -0.924,-0.482c-0.107,-0.321 -0.16,-0.522 -0.16,-0.602l0,-0.121l0.04,-0.161c0.053,-0.241 0.107,-0.415 0.161,-0.522c0.321,-0.455 0.736,-0.683 1.245,-0.683c0.348,0 0.629,0.074 0.844,0.221c0.214,0.147 0.321,0.368 0.321,0.663c0,0.134 -0.013,0.241 -0.04,0.321c-0.081,0.081 -0.134,0.174 -0.161,0.282l0,0.04Z" style="fill:#878888;fill-rule:nonzero;"/><path d="M329.811,51.724c-0.75,0.295 -1.366,0.442 -1.848,0.442c-1.42,0 -2.417,-0.723 -2.993,-2.169c-0.576,-1.446 -0.864,-3.227 -0.864,-5.343c0,-1.607 0.107,-3.12 0.321,-4.54c0.429,-3.053 1.139,-5.804 2.13,-8.255c0.991,-2.451 2.196,-3.997 3.615,-4.64c0.643,-0.214 1.138,-0.321 1.487,-0.321c0.991,0 1.747,0.455 2.269,1.366c0.523,0.91 0.784,2.115 0.784,3.615c0,0.75 -0.054,1.446 -0.161,2.089c-0.027,0.268 -0.134,0.884 -0.321,1.848c-0.054,0.214 -0.174,0.395 -0.362,0.542c-0.187,0.148 -0.375,0.221 -0.562,0.221l-0.322,0l-0.683,0c-0.428,0 -0.75,0.014 -0.964,0.04l-3.495,0.041c-0.268,0.053 -0.522,0.08 -0.763,0.08l-0.281,0l-0.121,0c-0.375,1.741 -0.602,2.933 -0.683,3.575c-0.187,1.286 -0.281,2.612 -0.281,3.977c0,1.875 0.228,3.388 0.683,4.54c0.455,1.125 1.085,1.687 1.888,1.687c0.214,0 0.362,-0.013 0.442,-0.04l0.16,-0.08c0,0 0.027,-0.027 0.08,-0.081c0.857,-0.268 1.433,-0.629 1.727,-1.084c0.107,-0.375 0.161,-0.71 0.161,-1.005l0.08,-0.602c0.027,-0.215 0.141,-0.402 0.342,-0.563c0.201,-0.16 0.408,-0.241 0.623,-0.241c0.187,0.027 0.348,0.107 0.482,0.241c0.134,0.134 0.201,0.308 0.201,0.523l0,0.12l-0.041,0.362c-0.053,0.83 -0.241,1.513 -0.562,2.048c-0.321,0.536 -0.964,1.032 -1.928,1.487l-0.241,0.12ZM327.762,33.205c-0.134,0.268 -0.268,0.616 -0.402,1.044c-0.134,0.429 -0.214,0.697 -0.241,0.804l0.161,0c0.375,0 0.643,-0.014 0.803,-0.04l3.415,-0.041c0.214,-0.026 0.549,-0.04 1.004,-0.04l0.241,0c0.188,-0.964 0.281,-1.901 0.281,-2.812c0,-0.857 -0.107,-1.634 -0.321,-2.33c-0.321,-0.803 -0.75,-1.205 -1.286,-1.205c-0.295,0 -0.563,0.054 -0.804,0.161c-0.991,0.455 -1.942,1.941 -2.852,4.459Z" style="fill:#878888;fill-rule:nonzero;"/><path d="M340.938,51.082c-0.749,0.669 -1.593,1.004 -2.53,1.004c-0.616,0 -1.185,-0.154 -1.708,-0.462c-0.522,-0.308 -0.944,-0.743 -1.265,-1.306c-0.375,-0.669 -0.563,-1.406 -0.563,-2.209c0,-0.268 0.054,-0.75 0.161,-1.446c0.027,-0.188 0.147,-0.362 0.362,-0.523c0.214,-0.16 0.428,-0.241 0.642,-0.241c0.188,0.027 0.342,0.114 0.462,0.261c0.121,0.148 0.181,0.315 0.181,0.503l0,0.16c-0.08,0.348 -0.12,0.683 -0.12,1.005c0,0.749 0.194,1.365 0.582,1.848c0.389,0.482 0.877,0.723 1.466,0.723c0.456,0 0.898,-0.174 1.326,-0.523c0.643,-0.562 1.085,-1.432 1.326,-2.611c0.027,-0.107 0.094,-0.562 0.201,-1.366c0.134,-0.937 0.201,-1.674 0.201,-2.209c0,-0.777 -0.108,-1.446 -0.322,-2.009c-0.107,-0.375 -0.274,-0.663 -0.502,-0.864c-0.228,-0.2 -0.649,-0.475 -1.265,-0.823c-0.965,-0.589 -1.641,-1.178 -2.029,-1.768c-0.388,-0.589 -0.609,-1.419 -0.663,-2.49c-0.027,-0.161 -0.04,-0.415 -0.04,-0.764c0,-0.294 0.027,-0.709 0.08,-1.245c0.188,-1.259 0.596,-2.43 1.225,-3.515c0.63,-1.085 1.386,-1.948 2.27,-2.591c0.777,-0.563 1.5,-0.844 2.17,-0.844c0.749,0 1.352,0.348 1.807,1.045c0.456,0.696 0.683,1.674 0.683,2.932l0,0.121c-0.027,0.214 -0.12,0.395 -0.281,0.542c-0.161,0.147 -0.335,0.221 -0.522,0.221l-0.121,0c-0.187,0 -0.355,-0.06 -0.502,-0.181c-0.148,-0.12 -0.221,-0.261 -0.221,-0.422l0,-0.08c0,-1.339 -0.241,-2.129 -0.723,-2.37c-0.107,-0.054 -0.228,-0.08 -0.361,-0.08c-0.295,0 -0.656,0.147 -1.085,0.442c-0.669,0.482 -1.245,1.165 -1.727,2.048c-0.482,0.884 -0.79,1.821 -0.924,2.812c-0.053,0.536 -0.08,0.951 -0.08,1.246c0,1.017 0.174,1.754 0.522,2.209c0.295,0.402 0.804,0.83 1.527,1.286c0.723,0.428 1.259,0.803 1.607,1.125c0.348,0.321 0.602,0.749 0.763,1.285c0.295,0.75 0.442,1.62 0.442,2.611c0,0.643 -0.054,1.272 -0.161,1.888c-0.16,1.206 -0.448,2.324 -0.863,3.355c-0.416,1.031 -0.891,1.788 -1.427,2.27Z" style="fill:#878888;fill-rule:nonzero;"/><path d="M357.891,48.591c-0.16,0.161 -0.335,0.241 -0.522,0.241c-0.187,0 -0.341,-0.047 -0.462,-0.141c-0.121,-0.093 -0.181,-0.234 -0.181,-0.421l0,-0.081c0.054,-0.187 0.121,-0.308 0.201,-0.361c1.152,-1.339 2.303,-2.297 3.455,-2.873c1.152,-0.576 2.424,-0.863 3.816,-0.863c0.616,0 1.018,0.013 1.205,0.04l0.683,0.12l0.804,0.121c0.509,0.08 1.272,0.16 2.29,0.241c0.803,0 1.526,-0.081 2.169,-0.241c1.607,-0.509 3.107,-1.821 4.499,-3.937c0.134,-0.241 0.349,-0.362 0.643,-0.362c0.134,0 0.255,0.027 0.362,0.081c0.16,0.107 0.241,0.294 0.241,0.562l-0.161,0.321c-1.634,2.491 -3.428,4.018 -5.383,4.58c-0.777,0.214 -1.527,0.322 -2.25,0.322c-0.776,0 -1.7,-0.081 -2.772,-0.242l-0.763,-0.12l-0.683,-0.121c-0.161,-0.026 -0.522,-0.04 -1.085,-0.04c-1.178,0 -2.243,0.241 -3.193,0.723c-0.951,0.482 -1.922,1.299 -2.913,2.451ZM360.583,43.047c-0.027,0.188 -0.121,0.342 -0.281,0.462c-0.161,0.121 -0.335,0.181 -0.523,0.181c-0.321,-0.054 -0.482,-0.228 -0.482,-0.522l0,-0.161l0.04,-0.763l0.041,-0.322l0,-0.562l0.08,-0.402c0.027,-0.857 0.107,-1.754 0.241,-2.691c0.187,-1.259 0.482,-2.351 0.884,-3.275c0.402,-0.923 0.924,-1.506 1.567,-1.747l0.401,-0.08c0.509,0 0.851,0.334 1.025,1.004c0.174,0.669 0.247,1.674 0.221,3.013c-0.134,2.062 -0.308,3.789 -0.523,5.182c-0.026,0.188 -0.12,0.342 -0.281,0.462c-0.161,0.121 -0.335,0.181 -0.522,0.181c-0.134,-0.027 -0.255,-0.087 -0.362,-0.181c-0.107,-0.094 -0.16,-0.207 -0.16,-0.341l0,-0.081l0,-0.08l0.361,-3.053l-0.201,0.08l-0.281,0.081c0,0.026 -0.04,0.04 -0.12,0.04c-0.188,0 -0.308,0.013 -0.362,0.04l-0.402,0.12l-0.08,0c-0.107,1.554 -0.161,2.21 -0.161,1.969l0,0.562l-0.12,0.884ZM361.627,35.695c-0.268,0.831 -0.468,1.701 -0.602,2.612l0.281,-0.081l0.281,-0.08l0.121,0c0.026,-0.027 0.067,-0.04 0.12,-0.04l0.08,0l0.322,-0.121l0.161,-0.08c0.026,-0.107 0.04,-0.254 0.04,-0.442l0,-0.12c0.026,-1.072 0,-1.862 -0.081,-2.371l-0.08,-0.361c-0.214,0.187 -0.428,0.549 -0.643,1.084ZM368.778,42.244c-0.054,0.16 -0.154,0.308 -0.301,0.442c-0.148,0.133 -0.302,0.2 -0.462,0.2l-0.04,0c-0.134,-0.026 -0.255,-0.087 -0.362,-0.18c-0.107,-0.094 -0.161,-0.208 -0.161,-0.342l0,-0.08l0,-0.081c0.027,-0.187 0.04,-0.441 0.04,-0.763c0,-0.375 -0.013,-0.629 -0.04,-0.763c-0.053,-0.643 -0.401,-1.728 -1.044,-3.254c0,-0.054 -0.054,-0.188 -0.161,-0.402c-0.187,1.312 -0.308,2.33 -0.361,3.053l-0.161,1.969c-0.027,0.187 -0.121,0.355 -0.281,0.502c-0.161,0.147 -0.322,0.221 -0.482,0.221l-0.081,0c-0.134,0 -0.247,-0.047 -0.341,-0.141c-0.094,-0.093 -0.141,-0.207 -0.141,-0.341l0,-0.121l0,-0.04c0.081,-1.393 0.188,-2.531 0.322,-3.415l0.16,-1.647l0.201,-1.165c0.295,-0.883 0.643,-1.325 1.045,-1.325c0.428,0 0.696,0.201 0.803,0.602l0.08,0.081l0.081,0.2l0.08,0.241l0.321,0.643c0.108,-0.83 0.362,-1.58 0.764,-2.249c0.027,-0.134 0.107,-0.241 0.241,-0.322c0.134,-0.08 0.281,-0.12 0.442,-0.12c0.134,0 0.214,0.013 0.241,0.04c0.214,0.161 0.321,0.348 0.321,0.562l0,0.081c0,0.053 -0.013,0.1 -0.04,0.14c-0.027,0.04 -0.054,0.087 -0.08,0.141c-0.322,0.482 -0.523,1.071 -0.603,1.767c-0.054,0.375 -0.08,0.67 -0.08,0.884l0.04,0.723c0.027,0.268 0.033,0.509 0.02,0.723c-0.013,0.215 -0.007,0.389 0.02,0.523c0.027,0.375 0.04,0.883 0.04,1.526c0,0.723 -0.013,1.205 -0.04,1.446l0,0.041ZM357.61,35.937c-0.107,0.187 -0.308,0.281 -0.603,0.281l-0.321,-0.081c-0.161,-0.08 -0.241,-0.227 -0.241,-0.442l0,-0.12c0,-0.134 0.054,-0.241 0.161,-0.321c1.901,-2.571 3.749,-4.004 5.544,-4.299l0.964,-0.08c0.589,0 1.339,0.12 2.249,0.361c1.018,0.215 1.848,0.322 2.491,0.322c0.562,0 1.044,-0.054 1.446,-0.161c1.741,-0.321 3.723,-1.379 5.946,-3.174c0.187,-0.134 0.335,-0.2 0.442,-0.2c0.214,0 0.375,0.08 0.482,0.241c0.08,0.107 0.12,0.227 0.12,0.361c0,0.241 -0.093,0.442 -0.281,0.603c-2.357,1.928 -4.566,3.08 -6.628,3.455c-0.857,0.133 -1.46,0.2 -1.808,0.2c-0.563,0 -1.446,-0.12 -2.652,-0.361c-1.017,-0.214 -1.687,-0.322 -2.008,-0.322c-0.081,0 -0.335,0.027 -0.763,0.081c-1.34,0.241 -2.853,1.459 -4.54,3.656ZM374.241,39.311c-0.133,1.045 -0.448,1.948 -0.944,2.712c-0.495,0.763 -1.305,1.078 -2.43,0.944c-0.455,-0.027 -0.737,-0.268 -0.844,-0.723c-0.107,-0.456 -0.147,-1.112 -0.12,-1.969l0.201,-1.486l0.04,-0.402l0.08,-1.968l0,-0.603l0,-1.004l0.04,-0.081c0.027,-0.267 0.255,-0.482 0.683,-0.642l0.081,0c0.026,-0.054 0.08,-0.121 0.16,-0.201c0.295,-0.268 0.643,-0.402 1.045,-0.402c0.643,0 1.158,0.429 1.546,1.286c0.389,0.857 0.583,1.874 0.583,3.053c0,0.508 -0.04,1.004 -0.121,1.486ZM371.269,41.521c0,0.026 -0.007,0.046 -0.02,0.06c-0.014,0.013 -0.007,0.033 0.02,0.06c0.857,0.027 1.406,-0.763 1.647,-2.37c0.053,-0.536 0.08,-0.951 0.08,-1.245c0,-1.179 -0.187,-2.116 -0.562,-2.813c-0.081,-0.214 -0.215,-0.348 -0.402,-0.401l-0.08,0.04c-0.108,0.107 -0.241,0.174 -0.402,0.201l0.04,0.241l0,0.281l-0.04,0.12l0,0.563l-0.08,2.009l-0.041,0.482l0,0.2l-0.04,0.161c-0.027,0.027 -0.04,0.06 -0.04,0.101c0,0.04 -0.013,0.073 -0.04,0.1l0,0.121c-0.054,0.723 -0.08,1.392 -0.08,2.008l0.04,0.081Z" style="fill:#fff;fill-rule:nonzero;"/><path d="M392.319,51.724c-0.161,0.161 -0.361,0.241 -0.602,0.241c-0.215,0 -0.389,-0.053 -0.523,-0.16c-0.134,-0.107 -0.201,-0.268 -0.201,-0.482l0,-0.081l0,-3.334c0,-5.758 -0.08,-12.494 -0.241,-20.207l0,-0.08c0.054,-0.241 0.154,-0.442 0.302,-0.603c0.147,-0.16 0.328,-0.254 0.542,-0.281l0.08,0c0.215,0 0.395,0.067 0.543,0.201c0.147,0.134 0.221,0.294 0.221,0.482l0.2,14.663l0,0.844c0,0.214 -0.006,0.549 -0.02,1.004c-0.013,0.455 -0.006,0.87 0.02,1.245c0.509,-1.794 1.152,-3.803 1.929,-6.026l0.442,-1.366l0.281,-0.843c0.08,-0.295 0.134,-0.455 0.161,-0.482c0.696,-2.036 1.325,-4.004 1.888,-5.906c0.187,-0.535 0.495,-1.553 0.924,-3.053c0.214,-0.482 0.549,-0.723 1.004,-0.723c0.187,0 0.348,0.074 0.482,0.221c0.134,0.147 0.201,0.328 0.201,0.542l-0.04,0.201l-0.964,3.094c-0.402,1.419 -1.045,3.401 -1.929,5.945c-0.08,0.268 -0.134,0.442 -0.16,0.522c-0.027,0.108 -0.067,0.221 -0.121,0.342c-0.053,0.12 -0.107,0.261 -0.161,0.422l-0.442,1.406l-0.803,2.531c-1.285,3.91 -2.156,6.936 -2.611,9.079c-0.027,0.294 -0.161,0.508 -0.402,0.642Z" style="fill:#878888;fill-rule:nonzero;"/><path d="M406.54,52.407c-0.027,0.027 -0.107,0.04 -0.241,0.04c-0.187,0 -0.348,-0.053 -0.482,-0.16c-0.134,-0.107 -0.214,-0.241 -0.241,-0.402c-0.054,-0.161 -0.107,-0.656 -0.161,-1.486c-0.482,0.535 -1.024,0.95 -1.627,1.245c-0.602,0.295 -1.185,0.442 -1.747,0.442c-0.75,0 -1.353,-0.268 -1.808,-0.804c-0.669,-0.669 -1.004,-1.821 -1.004,-3.454c0,-0.643 0.04,-1.286 0.12,-1.929c0.241,-1.714 0.73,-3.381 1.467,-5.001c0.736,-1.62 1.573,-2.832 2.51,-3.636c0.777,-0.616 1.514,-0.924 2.21,-0.924c0.509,0 1.031,0.161 1.567,0.482c0.321,-2.142 0.535,-3.749 0.642,-4.82c0.107,-1.098 0.161,-1.955 0.161,-2.571c0,-0.509 -0.047,-0.871 -0.141,-1.085c-0.093,-0.214 -0.247,-0.362 -0.462,-0.442c0,-0.054 -0.04,-0.08 -0.12,-0.08c-0.268,0 -0.616,0.187 -1.045,0.562c-0.374,0.268 -0.99,0.884 -1.847,1.848c-0.161,0.214 -0.389,0.321 -0.683,0.321c-0.134,0 -0.288,-0.067 -0.462,-0.2c-0.174,-0.134 -0.262,-0.308 -0.262,-0.523l0,-0.08c0,-0.161 0.081,-0.335 0.242,-0.522c1.767,-2.036 3.2,-3.053 4.298,-3.053c0.67,0 1.198,0.281 1.587,0.843c0.388,0.563 0.582,1.353 0.582,2.37c0,1.045 -0.187,2.839 -0.562,5.384l-0.643,4.499l-0.12,0.763l-0.282,2.089c-0.428,3.107 -0.683,5.129 -0.763,6.066c-0.053,0.536 -0.08,1.219 -0.08,2.049c0,0.536 0.013,0.897 0.04,1.085c0.027,0.026 0.04,0.107 0.04,0.241c-0.053,0.187 -0.14,0.361 -0.261,0.522c-0.121,0.161 -0.261,0.268 -0.422,0.321ZM400.916,47.667c0,1.982 0.536,2.892 1.607,2.732c0.563,-0.134 1.085,-0.422 1.567,-0.864c0.482,-0.442 0.977,-1.078 1.486,-1.908l0.121,-0.603c0.026,-0.589 0.214,-2.062 0.562,-4.419l0.362,-2.571l0.16,-1.085c-0.535,-0.616 -1.017,-0.923 -1.446,-0.923c-0.348,0 -0.71,0.174 -1.085,0.522c-0.696,0.562 -1.352,1.553 -1.968,2.973c-0.616,1.419 -1.031,2.905 -1.245,4.459c-0.081,0.562 -0.121,1.125 -0.121,1.687Z" style="fill:#878888;fill-rule:nonzero;"/><path d="M416.021,51.082c-0.75,0.669 -1.594,1.004 -2.531,1.004c-0.616,0 -1.185,-0.154 -1.707,-0.462c-0.523,-0.308 -0.944,-0.743 -1.266,-1.306c-0.375,-0.669 -0.562,-1.406 -0.562,-2.209c0,-0.268 0.053,-0.75 0.161,-1.446c0.026,-0.188 0.147,-0.362 0.362,-0.523c0.214,-0.16 0.429,-0.241 0.643,-0.241c0.187,0.027 0.341,0.114 0.462,0.261c0.12,0.148 0.181,0.315 0.181,0.503l0,0.16c-0.081,0.348 -0.121,0.683 -0.121,1.005c0,0.749 0.194,1.365 0.583,1.848c0.388,0.482 0.877,0.723 1.466,0.723c0.455,0 0.897,-0.174 1.326,-0.523c0.642,-0.562 1.084,-1.432 1.325,-2.611c0.027,-0.107 0.094,-0.562 0.201,-1.366c0.134,-0.937 0.201,-1.674 0.201,-2.209c0,-0.777 -0.108,-1.446 -0.322,-2.009c-0.107,-0.375 -0.275,-0.663 -0.503,-0.864c-0.227,-0.2 -0.649,-0.475 -1.265,-0.823c-0.964,-0.589 -1.64,-1.178 -2.029,-1.768c-0.388,-0.589 -0.609,-1.419 -0.663,-2.49c-0.026,-0.161 -0.04,-0.415 -0.04,-0.764c0,-0.294 0.027,-0.709 0.081,-1.245c0.187,-1.259 0.596,-2.43 1.225,-3.515c0.629,-1.085 1.386,-1.948 2.27,-2.591c0.776,-0.563 1.499,-0.844 2.169,-0.844c0.75,0 1.352,0.348 1.808,1.045c0.455,0.696 0.683,1.674 0.683,2.932l0,0.121c-0.027,0.214 -0.12,0.395 -0.282,0.542c-0.16,0.147 -0.334,0.221 -0.522,0.221l-0.12,0c-0.188,0 -0.355,-0.06 -0.502,-0.181c-0.148,-0.12 -0.221,-0.261 -0.221,-0.422l0,-0.08c0,-1.339 -0.241,-2.129 -0.723,-2.37c-0.108,-0.054 -0.228,-0.08 -0.361,-0.08c-0.295,0 -0.656,0.147 -1.085,0.442c-0.669,0.482 -1.245,1.165 -1.727,2.048c-0.482,0.884 -0.79,1.821 -0.924,2.812c-0.054,0.536 -0.08,0.951 -0.08,1.246c0,1.017 0.174,1.754 0.522,2.209c0.294,0.402 0.803,0.83 1.526,1.286c0.723,0.428 1.259,0.803 1.607,1.125c0.348,0.321 0.603,0.749 0.764,1.285c0.294,0.75 0.441,1.62 0.441,2.611c0,0.643 -0.053,1.272 -0.16,1.888c-0.161,1.206 -0.449,2.324 -0.864,3.355c-0.415,1.031 -0.89,1.788 -1.426,2.27Z" style="fill:#878888;fill-rule:nonzero;"/><path d="M428.113,49.234c-0.188,0.857 -0.67,1.58 -1.446,2.169c-0.777,0.589 -1.621,0.884 -2.531,0.884c-0.777,0 -1.399,-0.241 -1.868,-0.723c-0.469,-0.482 -0.703,-1.139 -0.703,-1.969c0,-0.321 0.013,-0.562 0.04,-0.723l2.049,-13.859l0.924,-6.589c-0.804,0 -1.393,0.027 -1.768,0.081c-0.187,0 -0.348,-0.081 -0.482,-0.241c-0.134,-0.161 -0.2,-0.349 -0.2,-0.563l0,-0.08l0.04,-0.04c0.027,-0.188 0.128,-0.362 0.302,-0.523c0.174,-0.16 0.368,-0.241 0.582,-0.241c0.188,-0.026 0.764,-0.04 1.728,-0.04l0.602,-4.017l0.482,-3.214c0.027,-0.214 0.134,-0.402 0.322,-0.562c0.187,-0.161 0.388,-0.241 0.602,-0.241c0.188,0 0.355,0.073 0.502,0.221c0.148,0.147 0.221,0.328 0.221,0.542l0,0.08c-0.187,1.232 -0.348,2.357 -0.482,3.375l-0.602,3.816l2.852,-0.08c0.214,0 0.395,0.067 0.542,0.201c0.148,0.134 0.221,0.308 0.221,0.522l0,0.08c-0.053,0.241 -0.16,0.442 -0.321,0.603c-0.161,0.161 -0.362,0.241 -0.603,0.241l-2.892,0.08l-0.924,6.589l-2.049,14.14l-0.04,0.362c0,0.777 0.362,1.165 1.085,1.165c0.268,0 0.542,-0.054 0.823,-0.161c0.281,-0.107 0.502,-0.227 0.663,-0.361c0.375,-0.295 0.603,-0.657 0.683,-1.085c0.054,-0.214 0.174,-0.395 0.362,-0.542c0.187,-0.148 0.374,-0.221 0.562,-0.221c0.214,0 0.388,0.073 0.522,0.221c0.134,0.147 0.201,0.328 0.201,0.542l0,0.161Z" style="fill:#878888;fill-rule:nonzero;"/><path d="M433.737,63.856c-0.375,0.188 -0.803,0.282 -1.286,0.282c-0.723,0 -1.372,-0.208 -1.948,-0.623c-0.576,-0.415 -0.931,-0.944 -1.064,-1.587c-0.134,-0.482 -0.201,-1.004 -0.201,-1.567c0,-0.857 0.12,-1.874 0.361,-3.053l0.081,-0.442l0.16,-0.682l0.402,-2.21c0.027,-0.241 0.134,-0.435 0.321,-0.582c0.188,-0.148 0.389,-0.221 0.603,-0.221c0.214,0 0.388,0.06 0.522,0.18c0.134,0.121 0.201,0.275 0.201,0.462l0,0.161c-0.027,0.402 -0.174,1.165 -0.442,2.29l-0.241,1.125c-0.187,0.91 -0.281,1.781 -0.281,2.611c0,0.536 0.04,1.004 0.12,1.406c0.054,0.295 0.241,0.542 0.563,0.743c0.321,0.201 0.683,0.301 1.085,0.301c0.214,0 0.415,-0.04 0.602,-0.12c0.429,-0.241 0.804,-0.643 1.125,-1.205l0.04,-0.322l0.241,-1.124c0.214,-0.857 0.442,-2.116 0.683,-3.777l0.402,-2.45l1.004,-6.147l-0.442,0.482c-0.723,0.75 -1.459,1.125 -2.209,1.125c-0.697,0 -1.299,-0.214 -1.808,-0.642c-0.509,-0.429 -0.803,-0.938 -0.884,-1.527c-0.053,-0.375 -0.08,-0.71 -0.08,-1.004c0,-0.241 0.027,-0.683 0.08,-1.326c0.027,-0.911 0.214,-2.598 0.563,-5.062c0.803,-5.517 1.526,-8.931 2.169,-10.244c0.482,-0.91 1.071,-1.62 1.768,-2.129c0.696,-0.509 1.406,-0.763 2.129,-0.763c0.776,0 1.432,0.254 1.968,0.763c0.134,-0.107 0.295,-0.161 0.482,-0.161c0.161,0 0.315,0.067 0.462,0.201c0.147,0.134 0.221,0.295 0.221,0.482l0,0.121c0,0.535 -0.228,2.41 -0.683,5.624c-0.161,1.473 -0.268,2.37 -0.321,2.692c-0.107,1.071 -0.348,2.41 -0.723,4.017c-0.268,2.116 -0.509,3.749 -0.723,4.901c-0.563,3.803 -1.139,7.512 -1.728,11.128l-0.643,3.816c-0.241,1.178 -0.549,2.056 -0.924,2.631c-0.375,0.576 -0.95,1.052 -1.727,1.426ZM433.215,46.663c0.375,0.348 0.736,0.522 1.084,0.522c0.322,0 0.643,-0.161 0.965,-0.482c0.562,-0.589 1.031,-1.413 1.406,-2.471c0.375,-1.058 0.776,-2.511 1.205,-4.359c0.321,-2.169 0.629,-4.352 0.924,-6.548c0,-0.107 0.027,-0.348 0.08,-0.723l0.121,-1.366l0.12,-0.683l0.241,-1.566l-0.12,-0.161c-0.456,-0.643 -0.924,-0.964 -1.406,-0.964c-0.777,0 -1.5,0.616 -2.17,1.848c-0.214,0.428 -0.515,1.56 -0.904,3.394c-0.388,1.835 -0.716,3.69 -0.984,5.564l-0.241,1.567c-0.214,1.553 -0.348,2.892 -0.402,4.017c-0.053,0.643 -0.08,1.058 -0.08,1.246l0.04,0.683c0.054,0.294 0.094,0.455 0.121,0.482Z" style="fill:#878888;fill-rule:nonzero;"/><path d="M449.284,48.069c-1.259,2.785 -2.544,4.178 -3.857,4.178c-1.098,0 -1.915,-0.636 -2.45,-1.909c-0.536,-1.272 -0.804,-2.979 -0.804,-5.122c0,-1.66 0.148,-3.481 0.442,-5.463c0.482,-3.482 1.259,-6.475 2.33,-8.979c1.071,-2.504 2.344,-3.957 3.817,-4.358l0.16,0c0.027,0 0.148,0.026 0.362,0.08c0.83,0.027 1.5,0.422 2.008,1.185c0.509,0.763 0.844,1.855 1.005,3.274c0.053,0.857 0.08,1.553 0.08,2.089c0,1.339 -0.12,2.919 -0.361,4.74c-0.268,1.848 -0.643,3.676 -1.125,5.484c-0.482,1.808 -1.018,3.408 -1.607,4.801ZM444.664,49.716c0.295,0.562 0.616,0.857 0.964,0.884l0.04,0c0.241,0 0.482,-0.188 0.723,-0.563c0.509,-0.696 0.965,-1.5 1.366,-2.41c0.563,-1.259 1.072,-2.752 1.527,-4.479c0.455,-1.728 0.817,-3.502 1.084,-5.323c0.215,-1.42 0.322,-2.933 0.322,-4.54c0,-1.58 -0.147,-2.832 -0.442,-3.756c-0.295,-0.924 -0.737,-1.386 -1.326,-1.386l-0.12,0c-0.884,0.348 -1.728,1.54 -2.531,3.575c-0.911,2.25 -1.594,4.888 -2.049,7.914c-0.241,1.714 -0.362,3.295 -0.362,4.741c0,0.991 0.067,1.995 0.201,3.013c0.188,1.151 0.389,1.928 0.603,2.33Z" style="fill:#878888;fill-rule:nonzero;"/><path d="M459.729,51.724c-0.75,0.295 -1.366,0.442 -1.848,0.442c-1.42,0 -2.417,-0.723 -2.993,-2.169c-0.576,-1.446 -0.864,-3.227 -0.864,-5.343c0,-1.607 0.107,-3.12 0.322,-4.54c0.428,-3.053 1.138,-5.804 2.129,-8.255c0.991,-2.451 2.196,-3.997 3.615,-4.64c0.643,-0.214 1.138,-0.321 1.487,-0.321c0.991,0 1.747,0.455 2.269,1.366c0.523,0.91 0.784,2.115 0.784,3.615c0,0.75 -0.054,1.446 -0.161,2.089c-0.027,0.268 -0.134,0.884 -0.321,1.848c-0.054,0.214 -0.174,0.395 -0.362,0.542c-0.187,0.148 -0.375,0.221 -0.562,0.221l-0.322,0l-0.683,0c-0.428,0 -0.75,0.014 -0.964,0.04l-3.495,0.041c-0.268,0.053 -0.522,0.08 -0.763,0.08l-0.281,0l-0.121,0c-0.375,1.741 -0.602,2.933 -0.683,3.575c-0.187,1.286 -0.281,2.612 -0.281,3.977c0,1.875 0.228,3.388 0.683,4.54c0.455,1.125 1.085,1.687 1.888,1.687c0.214,0 0.362,-0.013 0.442,-0.04l0.161,-0.08c0,0 0.026,-0.027 0.08,-0.081c0.857,-0.268 1.433,-0.629 1.727,-1.084c0.108,-0.375 0.161,-0.71 0.161,-1.005l0.08,-0.602c0.027,-0.215 0.141,-0.402 0.342,-0.563c0.201,-0.16 0.408,-0.241 0.623,-0.241c0.187,0.027 0.348,0.107 0.482,0.241c0.134,0.134 0.201,0.308 0.201,0.523l0,0.12l-0.041,0.362c-0.053,0.83 -0.241,1.513 -0.562,2.048c-0.321,0.536 -0.964,1.032 -1.928,1.487l-0.241,0.12ZM457.68,33.205c-0.134,0.268 -0.268,0.616 -0.402,1.044c-0.134,0.429 -0.214,0.697 -0.241,0.804l0.161,0c0.375,0 0.643,-0.014 0.803,-0.04l3.415,-0.041c0.214,-0.026 0.549,-0.04 1.004,-0.04l0.241,0c0.188,-0.964 0.281,-1.901 0.281,-2.812c0,-0.857 -0.107,-1.634 -0.321,-2.33c-0.321,-0.803 -0.75,-1.205 -1.285,-1.205c-0.295,0 -0.563,0.054 -0.804,0.161c-0.991,0.455 -1.942,1.941 -2.852,4.459Z" style="fill:#878888;fill-rule:nonzero;"/><path d="M469.41,52.046c-0.08,0.027 -0.294,0.04 -0.643,0.04l-0.2,0c-0.884,0.08 -1.6,-0.241 -2.149,-0.964c-0.549,-0.723 -0.903,-1.754 -1.064,-3.094c-0.134,-0.776 -0.2,-1.754 -0.2,-2.932c0,-1.312 0.093,-2.611 0.281,-3.897c0.241,-1.687 0.616,-3.334 1.125,-4.941c0.509,-1.607 1.085,-2.959 1.727,-4.058c1.286,-2.008 2.678,-3.012 4.178,-3.012c0.295,0 0.616,0.053 0.965,0.16c0.16,-1.205 0.254,-1.928 0.281,-2.169l0.12,-0.844l0.121,-0.924l0.201,-1.687l0.2,-1.848l0.322,-2.41c0,0.16 0.053,-0.295 0.161,-1.366c0.107,-0.884 0.214,-1.594 0.321,-2.129c0.053,-0.214 0.174,-0.402 0.361,-0.563c0.188,-0.16 0.402,-0.241 0.643,-0.241c0.188,0 0.348,0.067 0.482,0.201c0.134,0.134 0.201,0.308 0.201,0.522l0,0.121c-0.107,0.509 -0.254,1.473 -0.442,2.892c-0.187,1.286 -0.428,3.187 -0.723,5.705l-0.321,2.531l-0.482,4.178l-0.161,1.647l-0.763,5.624c-0.938,6.561 -1.808,10.699 -2.611,12.413c-0.402,0.67 -1.045,1.018 -1.929,1.045ZM467,47.587c0.268,1.928 0.817,2.879 1.647,2.852l0.241,0c0.455,0 0.777,-0.04 0.964,-0.121c0.777,-1.633 1.607,-5.637 2.491,-12.011l0.723,-5.343c0.107,-0.723 0.161,-1.339 0.161,-1.848c-0.134,0 -0.228,-0.027 -0.282,-0.081c-0.214,-0.08 -0.428,-0.12 -0.642,-0.12c-0.831,0 -1.614,0.536 -2.35,1.607c-0.737,1.071 -1.346,2.41 -1.828,4.017c-0.429,1.42 -0.764,2.96 -1.005,4.62c-0.214,1.5 -0.321,2.785 -0.321,3.857c0,0.83 0.067,1.687 0.201,2.571Z" style="fill:#878888;fill-rule:nonzero;"/><path d="M475.958,64.861c-0.026,0.214 -0.14,0.402 -0.341,0.562c-0.201,0.161 -0.409,0.241 -0.623,0.241c-0.187,0 -0.348,-0.073 -0.482,-0.221c-0.134,-0.147 -0.201,-0.328 -0.201,-0.542l0,-0.08c0.375,-2.063 0.777,-4.5 1.205,-7.312c0.563,-4.205 1.085,-8.583 1.567,-13.136l0,-0.201c0.482,-4.232 1.071,-8.959 1.768,-14.181l0.402,-2.692c0.026,-0.214 0.133,-0.401 0.321,-0.562c0.187,-0.161 0.388,-0.241 0.602,-0.241c0.054,0 0.188,0.027 0.402,0.08c0.456,-0.134 0.924,-0.201 1.406,-0.201c1.259,0 2.196,0.596 2.812,1.788c0.616,1.192 0.924,2.886 0.924,5.082c0,0.643 -0.013,1.138 -0.04,1.486c-0.107,1.232 -0.201,2.17 -0.281,2.812c-0.268,1.822 -0.629,3.603 -1.085,5.343c-0.455,1.741 -0.91,3.054 -1.366,3.937c-0.321,0.777 -0.984,1.513 -1.988,2.21c-1.004,0.696 -1.868,1.044 -2.591,1.044c-0.134,0 -0.228,-0.013 -0.281,-0.04c-0.215,1.928 -0.402,3.455 -0.563,4.58l-0.482,3.696c-0.348,2.517 -0.71,4.7 -1.085,6.548ZM478.77,44.292l-0.522,4.178c0.081,-0.026 0.201,-0.04 0.362,-0.04c0.107,0 0.174,-0.013 0.201,-0.04c0.026,-0.027 0.073,-0.054 0.14,-0.08c0.067,-0.027 0.127,-0.04 0.181,-0.04c0.161,-0.108 0.348,-0.215 0.562,-0.322c0.215,-0.107 0.349,-0.187 0.402,-0.241c0.643,-0.428 1.112,-0.91 1.406,-1.446c0.375,-0.777 0.784,-1.995 1.225,-3.656c0.442,-1.66 0.784,-3.334 1.025,-5.021c0.107,-0.911 0.187,-1.822 0.241,-2.732c0.027,-0.348 0.04,-0.83 0.04,-1.446c0,-1.714 -0.214,-3.067 -0.643,-4.058c-0.321,-0.857 -0.91,-1.285 -1.767,-1.285c-0.268,0 -0.563,0.04 -0.884,0.12l-0.321,2.37c-0.724,5.196 -1.259,9.709 -1.607,13.539l-0.041,0.2Z" style="fill:#878888;fill-rule:nonzero;"/><path d="M487.89,52.206c-0.054,0.027 -0.134,0.027 -0.241,0l-0.081,0c-0.187,0 -0.341,-0.073 -0.462,-0.221c-0.12,-0.147 -0.207,-0.328 -0.261,-0.542c0.134,-0.857 0.201,-1.406 0.201,-1.647l0.08,-0.803l0.241,-2.049l0.362,-2.33l0.402,-3.013l0.602,-4.138c0.482,-3.642 0.884,-6.936 1.205,-9.882c0.027,-0.215 0.128,-0.409 0.302,-0.583c0.174,-0.174 0.381,-0.274 0.622,-0.301c0.215,0 0.389,0.067 0.523,0.201c0.134,0.134 0.201,0.294 0.201,0.482l0,0.12l-0.242,1.969l-0.441,3.937c1.285,-2.973 2.624,-4.942 4.017,-5.906c0.83,-0.616 1.741,-0.91 2.732,-0.884c0.187,0.027 0.335,0.114 0.442,0.262c0.108,0.147 0.161,0.328 0.161,0.542l0,0.12c-0.053,0.215 -0.181,0.402 -0.381,0.563c-0.201,0.161 -0.409,0.228 -0.623,0.201c-1.018,-0.107 -2.062,0.656 -3.134,2.29c-0.964,1.473 -1.861,3.454 -2.691,5.945c-0.83,2.491 -1.513,5.196 -2.048,8.115c-0.134,1.152 -0.362,2.839 -0.683,5.062l0,1.526l-0.04,0.161c-0.027,0.214 -0.107,0.395 -0.241,0.542c-0.134,0.148 -0.308,0.235 -0.522,0.261Z" style="fill:#878888;fill-rule:nonzero;"/><path d="M501.87,51.724c-0.75,0.295 -1.366,0.442 -1.848,0.442c-1.42,0 -2.417,-0.723 -2.993,-2.169c-0.576,-1.446 -0.864,-3.227 -0.864,-5.343c0,-1.607 0.107,-3.12 0.322,-4.54c0.428,-3.053 1.138,-5.804 2.129,-8.255c0.991,-2.451 2.196,-3.997 3.615,-4.64c0.643,-0.214 1.138,-0.321 1.487,-0.321c0.991,0 1.747,0.455 2.269,1.366c0.523,0.91 0.784,2.115 0.784,3.615c0,0.75 -0.054,1.446 -0.161,2.089c-0.027,0.268 -0.134,0.884 -0.321,1.848c-0.054,0.214 -0.174,0.395 -0.362,0.542c-0.187,0.148 -0.375,0.221 -0.562,0.221l-0.322,0l-0.683,0c-0.428,0 -0.75,0.014 -0.964,0.04l-3.495,0.041c-0.268,0.053 -0.522,0.08 -0.763,0.08l-0.281,0l-0.121,0c-0.375,1.741 -0.602,2.933 -0.683,3.575c-0.187,1.286 -0.281,2.612 -0.281,3.977c0,1.875 0.228,3.388 0.683,4.54c0.455,1.125 1.085,1.687 1.888,1.687c0.214,0 0.362,-0.013 0.442,-0.04l0.161,-0.08c0,0 0.026,-0.027 0.08,-0.081c0.857,-0.268 1.433,-0.629 1.727,-1.084c0.108,-0.375 0.161,-0.71 0.161,-1.005l0.081,-0.602c0.027,-0.215 0.141,-0.402 0.342,-0.563c0.201,-0.16 0.408,-0.241 0.623,-0.241c0.187,0.027 0.348,0.107 0.482,0.241c0.134,0.134 0.201,0.308 0.201,0.523l0,0.12l-0.041,0.362c-0.053,0.83 -0.241,1.513 -0.562,2.048c-0.321,0.536 -0.964,1.032 -1.928,1.487l-0.241,0.12ZM499.821,33.205c-0.134,0.268 -0.268,0.616 -0.402,1.044c-0.134,0.429 -0.214,0.697 -0.241,0.804l0.161,0c0.375,0 0.643,-0.014 0.803,-0.04l3.414,-0.041c0.214,-0.026 0.549,-0.04 1.004,-0.04l0.241,0c0.188,-0.964 0.281,-1.901 0.281,-2.812c0,-0.857 -0.107,-1.634 -0.321,-2.33c-0.322,-0.803 -0.75,-1.205 -1.286,-1.205c-0.295,0 -0.563,0.054 -0.804,0.161c-0.991,0.455 -1.942,1.941 -2.852,4.459Z" style="fill:#878888;fill-rule:nonzero;"/><path d="M512.997,51.082c-0.749,0.669 -1.593,1.004 -2.53,1.004c-0.616,0 -1.185,-0.154 -1.708,-0.462c-0.522,-0.308 -0.944,-0.743 -1.265,-1.306c-0.375,-0.669 -0.563,-1.406 -0.563,-2.209c0,-0.268 0.054,-0.75 0.161,-1.446c0.027,-0.188 0.147,-0.362 0.362,-0.523c0.214,-0.16 0.428,-0.241 0.642,-0.241c0.188,0.027 0.342,0.114 0.462,0.261c0.121,0.148 0.181,0.315 0.181,0.503l0,0.16c-0.081,0.348 -0.121,0.683 -0.121,1.005c0,0.749 0.194,1.365 0.583,1.848c0.388,0.482 0.877,0.723 1.466,0.723c0.456,0 0.898,-0.174 1.326,-0.523c0.643,-0.562 1.085,-1.432 1.326,-2.611c0.027,-0.107 0.094,-0.562 0.201,-1.366c0.134,-0.937 0.201,-1.674 0.201,-2.209c0,-0.777 -0.108,-1.446 -0.322,-2.009c-0.107,-0.375 -0.274,-0.663 -0.502,-0.864c-0.228,-0.2 -0.649,-0.475 -1.265,-0.823c-0.965,-0.589 -1.641,-1.178 -2.029,-1.768c-0.388,-0.589 -0.609,-1.419 -0.663,-2.49c-0.027,-0.161 -0.04,-0.415 -0.04,-0.764c0,-0.294 0.027,-0.709 0.081,-1.245c0.187,-1.259 0.596,-2.43 1.225,-3.515c0.63,-1.085 1.386,-1.948 2.27,-2.591c0.777,-0.563 1.499,-0.844 2.169,-0.844c0.75,0 1.352,0.348 1.808,1.045c0.455,0.696 0.683,1.674 0.683,2.932l0,0.121c-0.027,0.214 -0.12,0.395 -0.281,0.542c-0.161,0.147 -0.335,0.221 -0.522,0.221l-0.121,0c-0.187,0 -0.355,-0.06 -0.502,-0.181c-0.148,-0.12 -0.221,-0.261 -0.221,-0.422l0,-0.08c0,-1.339 -0.241,-2.129 -0.723,-2.37c-0.107,-0.054 -0.228,-0.08 -0.361,-0.08c-0.295,0 -0.656,0.147 -1.085,0.442c-0.669,0.482 -1.245,1.165 -1.727,2.048c-0.482,0.884 -0.79,1.821 -0.924,2.812c-0.053,0.536 -0.08,0.951 -0.08,1.246c0,1.017 0.174,1.754 0.522,2.209c0.295,0.402 0.804,0.83 1.527,1.286c0.723,0.428 1.259,0.803 1.607,1.125c0.348,0.321 0.603,0.749 0.764,1.285c0.294,0.75 0.441,1.62 0.441,2.611c0,0.643 -0.053,1.272 -0.16,1.888c-0.161,1.206 -0.449,2.324 -0.864,3.355c-0.415,1.031 -0.89,1.788 -1.426,2.27Z" style="fill:#878888;fill-rule:nonzero;"/><path d="M523.402,51.724c-0.75,0.295 -1.366,0.442 -1.848,0.442c-1.419,0 -2.417,-0.723 -2.993,-2.169c-0.576,-1.446 -0.864,-3.227 -0.864,-5.343c0,-1.607 0.107,-3.12 0.322,-4.54c0.428,-3.053 1.138,-5.804 2.129,-8.255c0.991,-2.451 2.196,-3.997 3.616,-4.64c0.642,-0.214 1.138,-0.321 1.486,-0.321c0.991,0 1.747,0.455 2.269,1.366c0.523,0.91 0.784,2.115 0.784,3.615c0,0.75 -0.054,1.446 -0.161,2.089c-0.027,0.268 -0.134,0.884 -0.321,1.848c-0.054,0.214 -0.174,0.395 -0.362,0.542c-0.187,0.148 -0.375,0.221 -0.562,0.221l-0.321,0l-0.683,0c-0.428,0 -0.75,0.014 -0.964,0.04l-3.495,0.041c-0.268,0.053 -0.522,0.08 -0.763,0.08l-0.281,0l-0.121,0c-0.375,1.741 -0.602,2.933 -0.683,3.575c-0.188,1.286 -0.281,2.612 -0.281,3.977c0,1.875 0.227,3.388 0.683,4.54c0.455,1.125 1.084,1.687 1.888,1.687c0.214,0 0.361,-0.013 0.442,-0.04l0.16,-0.08c0,0 0.027,-0.027 0.08,-0.081c0.857,-0.268 1.433,-0.629 1.727,-1.084c0.107,-0.375 0.161,-0.71 0.161,-1.005l0.08,-0.602c0.027,-0.215 0.141,-0.402 0.342,-0.563c0.201,-0.16 0.409,-0.241 0.623,-0.241c0.187,0.027 0.348,0.107 0.482,0.241c0.134,0.134 0.201,0.308 0.201,0.523l0,0.12l-0.041,0.362c-0.053,0.83 -0.241,1.513 -0.562,2.048c-0.321,0.536 -0.964,1.032 -1.928,1.487l-0.241,0.12ZM521.353,33.205c-0.134,0.268 -0.267,0.616 -0.401,1.044c-0.134,0.429 -0.215,0.697 -0.241,0.804l0.161,0c0.375,0 0.643,-0.014 0.803,-0.04l3.414,-0.041c0.214,-0.026 0.549,-0.04 1.005,-0.04l0.241,0c0.187,-0.964 0.281,-1.901 0.281,-2.812c0,-0.857 -0.107,-1.634 -0.321,-2.33c-0.322,-0.803 -0.75,-1.205 -1.286,-1.205c-0.295,0 -0.563,0.054 -0.804,0.161c-0.991,0.455 -1.942,1.941 -2.852,4.459Z" style="fill:#878888;fill-rule:nonzero;"/><path d="M537.583,51.242c-0.053,0.215 -0.174,0.409 -0.361,0.583c-0.188,0.174 -0.389,0.261 -0.603,0.261c-0.188,0 -0.348,-0.067 -0.482,-0.201c-0.134,-0.134 -0.201,-0.308 -0.201,-0.522l0,-0.121l0.161,-1.245l0.08,-0.321l0.08,-0.603c0.108,-0.643 0.174,-1.004 0.201,-1.085c0.241,-1.553 0.536,-3.468 0.884,-5.744c0.562,-4.071 0.844,-7.285 0.844,-9.642c0,-1.285 -0.067,-2.223 -0.201,-2.812c-0.161,-0.83 -0.389,-1.285 -0.683,-1.366l-0.08,0c-0.108,0 -0.268,0.067 -0.482,0.201c-0.187,0.107 -0.415,0.308 -0.682,0.603l-0.643,0.602c-0.938,1.072 -1.835,3.04 -2.692,5.906c-0.857,2.865 -1.526,6.012 -2.008,9.44c-0.349,2.384 -0.523,4.325 -0.523,5.825l-0.04,0.081c-0.027,0.214 -0.114,0.401 -0.261,0.562c-0.147,0.161 -0.315,0.241 -0.502,0.241l-0.08,0c-0.134,0.08 -0.282,0.121 -0.442,0.121c-0.188,0 -0.355,-0.074 -0.503,-0.221c-0.147,-0.148 -0.22,-0.302 -0.22,-0.462l0,-0.081l0.241,-2.45c0.267,-1.795 0.816,-4.901 1.647,-9.32l0.241,-1.286c0.91,-4.579 1.459,-7.619 1.647,-9.119l0.201,-1.687l0,-0.04c0.026,-0.215 0.14,-0.402 0.341,-0.563c0.201,-0.161 0.395,-0.241 0.583,-0.241c0.214,0 0.395,0.074 0.542,0.221c0.147,0.147 0.221,0.315 0.221,0.502l0,0.081c0.027,0.08 -0.014,0.468 -0.121,1.165c-0.107,0.749 -0.187,1.218 -0.241,1.406c0.429,-0.59 0.683,-0.924 0.764,-1.005c1.232,-1.446 2.316,-2.169 3.254,-2.169c1.124,0 1.848,0.83 2.169,2.491c0.161,0.83 0.241,1.901 0.241,3.214c0,2.624 -0.295,5.999 -0.884,10.123c-0.053,0.562 -0.201,1.527 -0.442,2.892l-0.401,2.571c-0.081,0.242 -0.161,0.603 -0.242,1.085l-0.08,0.723c-0.053,0.054 -0.08,0.121 -0.08,0.201l-0.161,1.205Z" style="fill:#878888;fill-rule:nonzero;"/><path d="M548.791,49.234c-0.187,0.857 -0.669,1.58 -1.446,2.169c-0.777,0.589 -1.62,0.884 -2.531,0.884c-0.777,0 -1.399,-0.241 -1.868,-0.723c-0.469,-0.482 -0.703,-1.139 -0.703,-1.969c0,-0.321 0.013,-0.562 0.04,-0.723l2.049,-13.859l0.924,-6.589c-0.803,0 -1.393,0.027 -1.768,0.081c-0.187,0 -0.348,-0.081 -0.482,-0.241c-0.134,-0.161 -0.2,-0.349 -0.2,-0.563l0,-0.08l0.04,-0.04c0.026,-0.188 0.127,-0.362 0.301,-0.523c0.174,-0.16 0.368,-0.241 0.582,-0.241c0.188,-0.026 0.764,-0.04 1.728,-0.04l0.602,-4.017l0.482,-3.214c0.026,-0.214 0.133,-0.402 0.321,-0.562c0.187,-0.161 0.388,-0.241 0.603,-0.241c0.187,0 0.354,0.073 0.502,0.221c0.147,0.147 0.221,0.328 0.221,0.542l0,0.08c-0.187,1.232 -0.348,2.357 -0.482,3.375l-0.602,3.816l2.852,-0.08c0.214,0 0.395,0.067 0.543,0.201c0.147,0.134 0.221,0.308 0.221,0.522l0,0.08c-0.054,0.241 -0.161,0.442 -0.322,0.603c-0.161,0.161 -0.361,0.241 -0.602,0.241l-2.892,0.08l-0.924,6.589l-2.049,14.14l-0.04,0.362c0,0.777 0.362,1.165 1.085,1.165c0.268,0 0.542,-0.054 0.823,-0.161c0.282,-0.107 0.503,-0.227 0.663,-0.361c0.375,-0.295 0.603,-0.657 0.683,-1.085c0.054,-0.214 0.174,-0.395 0.362,-0.542c0.187,-0.148 0.375,-0.221 0.562,-0.221c0.214,0 0.388,0.073 0.522,0.221c0.134,0.147 0.201,0.328 0.201,0.542l0,0.161Z" style="fill:#878888;fill-rule:nonzero;"/><path d="M557.629,52.407c-0.027,0.027 -0.107,0.04 -0.241,0.04c-0.187,0 -0.348,-0.053 -0.482,-0.16c-0.134,-0.107 -0.214,-0.241 -0.241,-0.402c-0.054,-0.161 -0.107,-0.656 -0.161,-1.486c-0.482,0.535 -1.024,0.95 -1.627,1.245c-0.602,0.295 -1.185,0.442 -1.747,0.442c-0.75,0 -1.353,-0.268 -1.808,-0.804c-0.669,-0.669 -1.004,-1.821 -1.004,-3.454c0,-0.643 0.04,-1.286 0.12,-1.929c0.241,-1.714 0.73,-3.381 1.467,-5.001c0.736,-1.62 1.573,-2.832 2.51,-3.636c0.777,-0.616 1.514,-0.924 2.21,-0.924c0.509,0 1.031,0.161 1.567,0.482c0.321,-2.142 0.535,-3.749 0.642,-4.82c0.107,-1.098 0.161,-1.955 0.161,-2.571c0,-0.509 -0.047,-0.871 -0.141,-1.085c-0.093,-0.214 -0.247,-0.362 -0.462,-0.442c0,-0.054 -0.04,-0.08 -0.12,-0.08c-0.268,0 -0.616,0.187 -1.045,0.562c-0.374,0.268 -0.99,0.884 -1.847,1.848c-0.161,0.214 -0.389,0.321 -0.683,0.321c-0.134,0 -0.288,-0.067 -0.462,-0.2c-0.174,-0.134 -0.262,-0.308 -0.262,-0.523l0,-0.08c0,-0.161 0.081,-0.335 0.242,-0.522c1.767,-2.036 3.2,-3.053 4.298,-3.053c0.67,0 1.198,0.281 1.587,0.843c0.388,0.563 0.582,1.353 0.582,2.37c0,1.045 -0.187,2.839 -0.562,5.384l-0.643,4.499l-0.12,0.763l-0.282,2.089c-0.428,3.107 -0.683,5.129 -0.763,6.066c-0.053,0.536 -0.08,1.219 -0.08,2.049c0,0.536 0.013,0.897 0.04,1.085c0.027,0.026 0.04,0.107 0.04,0.241c-0.053,0.187 -0.14,0.361 -0.261,0.522c-0.121,0.161 -0.261,0.268 -0.422,0.321ZM552.005,47.667c0,1.982 0.536,2.892 1.607,2.732c0.562,-0.134 1.085,-0.422 1.567,-0.864c0.482,-0.442 0.977,-1.078 1.486,-1.908l0.121,-0.603c0.026,-0.589 0.214,-2.062 0.562,-4.419l0.362,-2.571l0.16,-1.085c-0.535,-0.616 -1.017,-0.923 -1.446,-0.923c-0.348,0 -0.71,0.174 -1.085,0.522c-0.696,0.562 -1.352,1.553 -1.968,2.973c-0.616,1.419 -1.031,2.905 -1.245,4.459c-0.081,0.562 -0.121,1.125 -0.121,1.687Z" style="fill:#878888;fill-rule:nonzero;"/><path d="M568.998,49.234c-0.187,0.857 -0.67,1.58 -1.446,2.169c-0.777,0.589 -1.62,0.884 -2.531,0.884c-0.777,0 -1.399,-0.241 -1.868,-0.723c-0.469,-0.482 -0.703,-1.139 -0.703,-1.969c0,-0.321 0.013,-0.562 0.04,-0.723l2.049,-13.859l0.924,-6.589c-0.804,0 -1.393,0.027 -1.768,0.081c-0.187,0 -0.348,-0.081 -0.482,-0.241c-0.134,-0.161 -0.2,-0.349 -0.2,-0.563l0,-0.08l0.04,-0.04c0.027,-0.188 0.128,-0.362 0.302,-0.523c0.174,-0.16 0.368,-0.241 0.582,-0.241c0.188,-0.026 0.764,-0.04 1.728,-0.04l0.602,-4.017l0.482,-3.214c0.027,-0.214 0.134,-0.402 0.322,-0.562c0.187,-0.161 0.388,-0.241 0.602,-0.241c0.188,0 0.355,0.073 0.502,0.221c0.148,0.147 0.221,0.328 0.221,0.542l0,0.08c-0.187,1.232 -0.348,2.357 -0.482,3.375l-0.602,3.816l2.852,-0.08c0.214,0 0.395,0.067 0.542,0.201c0.148,0.134 0.221,0.308 0.221,0.522l0,0.08c-0.053,0.241 -0.161,0.442 -0.321,0.603c-0.161,0.161 -0.362,0.241 -0.603,0.241l-2.892,0.08l-0.924,6.589l-2.049,14.14l-0.04,0.362c0,0.777 0.362,1.165 1.085,1.165c0.268,0 0.543,-0.054 0.824,-0.161c0.281,-0.107 0.502,-0.227 0.663,-0.361c0.375,-0.295 0.603,-0.657 0.683,-1.085c0.054,-0.214 0.174,-0.395 0.362,-0.542c0.187,-0.148 0.374,-0.221 0.562,-0.221c0.214,0 0.388,0.073 0.522,0.221c0.134,0.147 0.201,0.328 0.201,0.542l0,0.161Z" style="fill:#878888;fill-rule:nonzero;"/><path d="M572.855,51.282c-0.054,0.215 -0.174,0.402 -0.362,0.563c-0.187,0.161 -0.402,0.241 -0.643,0.241c-0.187,0 -0.348,-0.067 -0.482,-0.201c-0.134,-0.134 -0.201,-0.308 -0.201,-0.522l0,-0.121l0.482,-3.254c0.081,-0.401 0.141,-0.783 0.181,-1.145c0.04,-0.361 0.087,-0.689 0.141,-0.984l0.924,-7.191c0.027,-0.187 0.053,-0.368 0.08,-0.542c0.027,-0.174 0.04,-0.355 0.04,-0.542l0.08,-0.643l0.08,-0.522l0.723,-6.066l0.322,-2.732c0.027,-0.214 0.141,-0.402 0.342,-0.563c0.201,-0.16 0.408,-0.241 0.623,-0.241c0.214,0 0.381,0.061 0.502,0.181c0.12,0.121 0.181,0.288 0.181,0.502l0,0.121c-0.429,3.669 -0.777,6.588 -1.045,8.757l-0.08,0.483l-0.081,0.682c0,0.188 -0.013,0.375 -0.04,0.563c-0.027,0.187 -0.053,0.375 -0.08,0.562c-0.268,2.33 -0.616,5.075 -1.045,8.236l-0.642,4.378ZM576.952,22.72c-0.107,0.294 -0.268,0.542 -0.482,0.743c-0.214,0.201 -0.442,0.301 -0.683,0.301l-0.16,0c-0.402,0 -0.71,-0.16 -0.924,-0.482c-0.108,-0.321 -0.161,-0.522 -0.161,-0.602l0,-0.121l0.04,-0.161c0.054,-0.241 0.107,-0.415 0.161,-0.522c0.321,-0.455 0.736,-0.683 1.245,-0.683c0.348,0 0.63,0.074 0.844,0.221c0.214,0.147 0.321,0.368 0.321,0.663c0,0.134 -0.013,0.241 -0.04,0.321c-0.08,0.081 -0.134,0.174 -0.161,0.282l0,0.04Z" style="fill:#878888;fill-rule:nonzero;"/><path d="M582.657,51.724c-0.75,0.295 -1.366,0.442 -1.848,0.442c-1.42,0 -2.417,-0.723 -2.993,-2.169c-0.576,-1.446 -0.864,-3.227 -0.864,-5.343c0,-1.607 0.107,-3.12 0.322,-4.54c0.428,-3.053 1.138,-5.804 2.129,-8.255c0.991,-2.451 2.196,-3.997 3.615,-4.64c0.643,-0.214 1.138,-0.321 1.487,-0.321c0.991,0 1.747,0.455 2.269,1.366c0.523,0.91 0.784,2.115 0.784,3.615c0,0.75 -0.054,1.446 -0.161,2.089c-0.027,0.268 -0.134,0.884 -0.321,1.848c-0.054,0.214 -0.174,0.395 -0.362,0.542c-0.187,0.148 -0.375,0.221 -0.562,0.221l-0.322,0l-0.683,0c-0.428,0 -0.75,0.014 -0.964,0.04l-3.495,0.041c-0.268,0.053 -0.522,0.08 -0.763,0.08l-0.281,0l-0.121,0c-0.375,1.741 -0.602,2.933 -0.683,3.575c-0.187,1.286 -0.281,2.612 -0.281,3.977c0,1.875 0.228,3.388 0.683,4.54c0.455,1.125 1.085,1.687 1.888,1.687c0.214,0 0.362,-0.013 0.442,-0.04l0.16,-0.08c0,0 0.027,-0.027 0.08,-0.081c0.857,-0.268 1.433,-0.629 1.727,-1.084c0.108,-0.375 0.161,-0.71 0.161,-1.005l0.08,-0.602c0.027,-0.215 0.141,-0.402 0.342,-0.563c0.201,-0.16 0.408,-0.241 0.623,-0.241c0.187,0.027 0.348,0.107 0.482,0.241c0.134,0.134 0.201,0.308 0.201,0.523l0,0.12l-0.041,0.362c-0.053,0.83 -0.241,1.513 -0.562,2.048c-0.321,0.536 -0.964,1.032 -1.928,1.487l-0.241,0.12ZM580.608,33.205c-0.134,0.268 -0.268,0.616 -0.402,1.044c-0.134,0.429 -0.214,0.697 -0.241,0.804l0.161,0c0.375,0 0.643,-0.014 0.803,-0.04l3.415,-0.041c0.214,-0.026 0.549,-0.04 1.004,-0.04l0.241,0c0.188,-0.964 0.281,-1.901 0.281,-2.812c0,-0.857 -0.107,-1.634 -0.321,-2.33c-0.322,-0.803 -0.75,-1.205 -1.286,-1.205c-0.295,0 -0.563,0.054 -0.804,0.161c-0.991,0.455 -1.942,1.941 -2.852,4.459Z" style="fill:#878888;fill-rule:nonzero;"/></g><path d="M307.917,136.664c-0.107,0.104 -0.222,0.156 -0.346,0.156c-0.125,0 -0.227,-0.03 -0.307,-0.091c-0.079,-0.061 -0.119,-0.152 -0.119,-0.273l0,-0.052c0.035,-0.121 0.079,-0.199 0.133,-0.234c0.763,-0.867 1.527,-1.486 2.29,-1.859c0.764,-0.373 1.607,-0.559 2.531,-0.559c0.408,0 0.674,0.009 0.799,0.026l0.452,0.078l0.533,0.078c0.337,0.052 0.844,0.104 1.518,0.156c0.533,0 1.012,-0.052 1.438,-0.156c1.066,-0.329 2.06,-1.179 2.984,-2.548c0.088,-0.156 0.23,-0.234 0.426,-0.234c0.088,0 0.168,0.017 0.239,0.052c0.107,0.069 0.16,0.191 0.16,0.364l-0.106,0.208c-1.083,1.612 -2.273,2.6 -3.569,2.964c-0.515,0.139 -1.012,0.208 -1.492,0.208c-0.515,0 -1.127,-0.052 -1.838,-0.156l-0.506,-0.078l-0.452,-0.078c-0.107,-0.017 -0.347,-0.026 -0.72,-0.026c-0.781,0 -1.487,0.156 -2.117,0.468c-0.63,0.312 -1.274,0.841 -1.931,1.586ZM307.731,128.474c-0.071,0.121 -0.205,0.182 -0.4,0.182l-0.213,-0.052c-0.107,-0.052 -0.16,-0.147 -0.16,-0.286l0,-0.078c0,-0.087 0.036,-0.156 0.107,-0.208c1.26,-1.664 2.486,-2.591 3.675,-2.782l0.639,-0.052c0.391,0 0.888,0.078 1.492,0.234c0.675,0.139 1.225,0.208 1.651,0.208c0.373,0 0.693,-0.035 0.959,-0.104c1.154,-0.208 2.468,-0.893 3.942,-2.054c0.124,-0.087 0.222,-0.13 0.293,-0.13c0.142,0 0.249,0.052 0.32,0.156c0.053,0.069 0.08,0.147 0.08,0.234c0,0.156 -0.063,0.286 -0.187,0.39c-1.562,1.248 -3.027,1.993 -4.395,2.236c-0.568,0.087 -0.967,0.13 -1.198,0.13c-0.373,0 -0.959,-0.078 -1.758,-0.234c-0.675,-0.139 -1.119,-0.208 -1.332,-0.208c-0.053,0 -0.222,0.017 -0.506,0.052c-0.888,0.156 -1.891,0.945 -3.009,2.366Z" style="fill:#878888;fill-rule:nonzero;"/><g><path d="M309.855,132.56c-0.178,-0.246 -0.297,-0.555 -0.359,-0.927c-0.061,-0.372 -0.063,-0.771 -0.007,-1.197c0.079,-0.606 0.246,-1.149 0.499,-1.629c0.35,-0.684 0.8,-1.104 1.351,-1.26c0.217,-0.048 0.4,-0.072 0.55,-0.072c0.47,0 0.819,0.165 1.045,0.495c0.192,0.294 0.259,0.657 0.202,1.089c-0.011,0.084 -0.039,0.222 -0.084,0.414c-0.016,0.048 -0.057,0.088 -0.121,0.121c-0.064,0.033 -0.132,0.05 -0.202,0.05l-0.12,0l-0.255,0c-0.682,0.012 -1.238,0.018 -1.668,0.018c-0.072,0.012 -0.162,0.018 -0.273,0.018l-0.105,0l-0.045,0c-0.083,0.252 -0.143,0.519 -0.18,0.801c-0.048,0.366 -0.047,0.717 0.004,1.053c0.051,0.336 0.166,0.621 0.346,0.855c0.187,0.252 0.435,0.378 0.745,0.378c0.07,0 0.126,-0.003 0.167,-0.009c0.01,-0.006 0.024,-0.011 0.039,-0.014c0.015,-0.003 0.029,-0.01 0.04,-0.022c0.319,-0.066 0.525,-0.147 0.618,-0.243c0.028,-0.066 0.043,-0.141 0.044,-0.225l0.018,-0.135c0.006,-0.048 0.044,-0.09 0.114,-0.126c0.07,-0.036 0.145,-0.054 0.225,-0.054c0.079,0.006 0.146,0.028 0.201,0.067c0.055,0.039 0.079,0.083 0.073,0.131l-0.011,0.081c-0.002,0.168 -0.045,0.303 -0.128,0.405c-0.109,0.144 -0.346,0.273 -0.711,0.387l-0.094,0.027c-0.259,0.066 -0.488,0.099 -0.688,0.099c-0.53,0 -0.94,-0.192 -1.23,-0.576ZM310.448,129.302c0.11,0 0.206,-0.003 0.286,-0.009c0.421,0 0.972,-0.006 1.654,-0.018l0.09,0c0.094,-0.492 0.05,-0.876 -0.134,-1.152c-0.136,-0.18 -0.305,-0.27 -0.505,-0.27c-0.1,0 -0.196,0.012 -0.29,0.036c-0.362,0.096 -0.686,0.429 -0.971,0.999c-0.038,0.06 -0.075,0.133 -0.112,0.22c-0.036,0.087 -0.062,0.152 -0.078,0.194l0.06,0Z" style="fill:#878888;fill-rule:nonzero;stroke-width:0.25px;stroke-linecap:butt;stroke:#878888;"/><path d="M316.513,133.059c-0.055,-0.039 -0.079,-0.082 -0.073,-0.13l0.037,-0.279l0.024,-0.072l0.018,-0.135c0.015,-0.114 0.03,-0.195 0.047,-0.243c0.092,-0.552 0.159,-0.981 0.199,-1.287c0.179,-1.362 0.161,-2.292 -0.054,-2.79c-0.075,-0.186 -0.172,-0.288 -0.29,-0.306l-0.03,0c-0.04,0 -0.097,0.015 -0.171,0.045c-0.074,0.03 -0.157,0.075 -0.25,0.135c-0.093,0.06 -0.166,0.105 -0.22,0.135c-0.333,0.246 -0.624,0.694 -0.875,1.345c-0.251,0.651 -0.425,1.349 -0.523,2.093c-0.065,0.498 -0.087,0.933 -0.066,1.305l-0.003,0.018c-0.006,0.048 -0.036,0.09 -0.091,0.126c-0.055,0.036 -0.117,0.054 -0.187,0.054l-0.03,0c-0.033,0.018 -0.084,0.027 -0.154,0.027c-0.08,0 -0.143,-0.015 -0.189,-0.045c-0.065,-0.042 -0.099,-0.084 -0.104,-0.126c0.006,-0.192 0.02,-0.375 0.042,-0.549c0.059,-0.444 0.19,-1.14 0.395,-2.088c0.014,-0.108 0.037,-0.204 0.068,-0.288c0.22,-0.99 0.355,-1.671 0.403,-2.043l0.035,-0.378l0.001,-0.009c0.007,-0.048 0.045,-0.09 0.114,-0.126c0.07,-0.036 0.14,-0.054 0.21,-0.054c0.08,0 0.15,0.018 0.211,0.054c0.06,0.036 0.092,0.078 0.096,0.126c0.003,0.048 -0.003,0.135 -0.02,0.261c-0.017,0.132 -0.036,0.237 -0.056,0.315c0.103,-0.102 0.188,-0.177 0.255,-0.225c0.432,-0.324 0.824,-0.486 1.174,-0.486c0.41,0 0.696,0.186 0.857,0.558c0.237,0.558 0.261,1.554 0.073,2.988c-0.038,0.288 -0.102,0.696 -0.191,1.224c-0.027,0.054 -0.048,0.135 -0.062,0.243l-0.021,0.162c-0.012,0.012 -0.019,0.027 -0.021,0.045l-0.036,0.27c-0.006,0.048 -0.044,0.091 -0.114,0.13c-0.071,0.039 -0.146,0.059 -0.226,0.059c-0.08,0 -0.147,-0.02 -0.202,-0.059Z" style="fill:#878888;fill-rule:nonzero;stroke-width:0.25px;stroke-linecap:butt;stroke:#878888;"/></g></svg>