<svg width="437" height="153" viewBox="0 0 437 153" fill="none" xmlns="http://www.w3.org/2000/svg">
<path d="M437 0H0V153H437V0Z" fill="white"/>
<path d="M234.959 138.312C234.852 138.416 234.737 138.468 234.613 138.468C234.488 138.468 234.386 138.438 234.306 138.377C234.227 138.316 234.187 138.225 234.187 138.104V138.052C234.222 137.931 234.266 137.853 234.32 137.818C235.083 136.951 235.847 136.332 236.61 135.959C237.374 135.586 238.217 135.4 239.141 135.4C239.549 135.4 239.815 135.409 239.94 135.426L240.392 135.504L240.925 135.582C241.262 135.634 241.769 135.686 242.443 135.738C242.976 135.738 243.455 135.686 243.881 135.582C244.947 135.253 245.941 134.403 246.865 133.034C246.953 132.878 247.095 132.8 247.291 132.8C247.379 132.8 247.459 132.817 247.53 132.852C247.637 132.921 247.69 133.043 247.69 133.216L247.584 133.424C246.501 135.036 245.311 136.024 244.015 136.388C243.5 136.527 243.003 136.596 242.523 136.596C242.008 136.596 241.396 136.544 240.685 136.44L240.179 136.362L239.727 136.284C239.62 136.267 239.38 136.258 239.007 136.258C238.226 136.258 237.52 136.414 236.89 136.726C236.26 137.038 235.616 137.567 234.959 138.312ZM234.773 130.122C234.702 130.243 234.568 130.304 234.373 130.304L234.16 130.252C234.053 130.2 234 130.105 234 129.966V129.888C234 129.801 234.036 129.732 234.107 129.68C235.367 128.016 236.593 127.089 237.782 126.898L238.421 126.846C238.812 126.846 239.309 126.924 239.913 127.08C240.588 127.219 241.138 127.288 241.564 127.288C241.937 127.288 242.257 127.253 242.523 127.184C243.677 126.976 244.991 126.291 246.465 125.13C246.589 125.043 246.687 125 246.758 125C246.9 125 247.007 125.052 247.078 125.156C247.131 125.225 247.158 125.303 247.158 125.39C247.158 125.546 247.095 125.676 246.971 125.78C245.409 127.028 243.944 127.773 242.576 128.016C242.008 128.103 241.609 128.146 241.378 128.146C241.005 128.146 240.419 128.068 239.62 127.912C238.945 127.773 238.501 127.704 238.288 127.704C238.235 127.704 238.066 127.721 237.782 127.756C236.894 127.912 235.891 128.701 234.773 130.122Z" fill="#807A6B"/>
<path d="M236.897 134.208C236.719 133.962 236.6 133.653 236.538 133.281C236.477 132.909 236.475 132.51 236.531 132.084C236.61 131.478 236.777 130.935 237.03 130.455C237.38 129.771 237.83 129.351 238.381 129.195C238.598 129.147 238.781 129.123 238.931 129.123C239.401 129.123 239.75 129.288 239.976 129.618C240.168 129.912 240.235 130.275 240.178 130.707C240.167 130.791 240.139 130.929 240.094 131.121C240.078 131.169 240.037 131.209 239.973 131.242C239.909 131.275 239.841 131.292 239.771 131.292H239.651H239.396C238.714 131.304 238.158 131.31 237.728 131.31C237.656 131.322 237.566 131.328 237.455 131.328H237.35H237.305C237.222 131.58 237.162 131.847 237.125 132.129C237.077 132.495 237.078 132.846 237.129 133.182C237.18 133.518 237.295 133.803 237.475 134.037C237.662 134.289 237.91 134.415 238.22 134.415C238.29 134.415 238.346 134.412 238.387 134.406C238.397 134.4 238.411 134.395 238.426 134.392C238.441 134.389 238.455 134.382 238.466 134.37C238.785 134.304 238.991 134.223 239.084 134.127C239.112 134.061 239.127 133.986 239.128 133.902L239.146 133.767C239.152 133.719 239.19 133.677 239.26 133.641C239.33 133.605 239.405 133.587 239.485 133.587C239.564 133.593 239.631 133.615 239.686 133.654C239.741 133.693 239.765 133.737 239.759 133.785L239.748 133.866C239.746 134.034 239.703 134.169 239.62 134.271C239.511 134.415 239.274 134.544 238.909 134.658L238.815 134.685C238.556 134.751 238.327 134.784 238.127 134.784C237.597 134.784 237.187 134.592 236.897 134.208ZM237.49 130.95C237.6 130.95 237.696 130.947 237.776 130.941C238.197 130.941 238.748 130.935 239.43 130.923H239.52C239.614 130.431 239.57 130.047 239.386 129.771C239.25 129.591 239.081 129.501 238.881 129.501C238.781 129.501 238.685 129.513 238.591 129.537C238.229 129.633 237.905 129.966 237.62 130.536C237.582 130.596 237.545 130.669 237.508 130.756C237.472 130.843 237.446 130.908 237.43 130.95H237.49Z" fill="#807A6B" stroke="#878888" stroke-width="0.25" stroke-miterlimit="1.41421" stroke-linejoin="round"/>
<path d="M243.555 134.708C243.5 134.669 243.476 134.626 243.482 134.578L243.519 134.299L243.543 134.227L243.561 134.092C243.576 133.978 243.591 133.897 243.608 133.849C243.7 133.297 243.767 132.868 243.807 132.562C243.986 131.2 243.968 130.27 243.753 129.772C243.678 129.586 243.581 129.484 243.463 129.466H243.433C243.393 129.466 243.336 129.481 243.262 129.511C243.188 129.541 243.105 129.586 243.012 129.646C242.919 129.706 242.846 129.751 242.792 129.781C242.459 130.027 242.168 130.475 241.917 131.126C241.666 131.777 241.492 132.475 241.394 133.219C241.329 133.717 241.307 134.152 241.328 134.524L241.325 134.542C241.319 134.59 241.289 134.632 241.234 134.668C241.179 134.704 241.117 134.722 241.047 134.722H241.017C240.984 134.74 240.933 134.749 240.863 134.749C240.783 134.749 240.72 134.734 240.674 134.704C240.609 134.662 240.575 134.62 240.57 134.578C240.576 134.386 240.59 134.203 240.612 134.029C240.671 133.585 240.802 132.889 241.007 131.941C241.021 131.833 241.044 131.737 241.075 131.653C241.295 130.663 241.43 129.982 241.478 129.61L241.513 129.232L241.514 129.223C241.521 129.175 241.559 129.133 241.628 129.097C241.698 129.061 241.768 129.043 241.838 129.043C241.918 129.043 241.988 129.061 242.049 129.097C242.109 129.133 242.141 129.175 242.145 129.223C242.148 129.271 242.142 129.358 242.125 129.484C242.108 129.616 242.089 129.721 242.069 129.799C242.172 129.697 242.257 129.622 242.324 129.574C242.756 129.25 243.148 129.088 243.498 129.088C243.908 129.088 244.194 129.274 244.355 129.646C244.592 130.204 244.616 131.2 244.428 132.634C244.39 132.922 244.326 133.33 244.237 133.858C244.21 133.912 244.189 133.993 244.175 134.101L244.154 134.263C244.142 134.275 244.135 134.29 244.133 134.308L244.097 134.578C244.091 134.626 244.053 134.669 243.983 134.708C243.912 134.747 243.837 134.767 243.757 134.767C243.677 134.767 243.61 134.747 243.555 134.708Z" fill="#807A6B" stroke="#878888" stroke-width="0.25" stroke-miterlimit="1.41421" stroke-linejoin="round"/>
<path d="M160 140.097L59.515 139.827C59.421 139.967 59.41 140.029 59.245 140.097C59.185 140.122 59.117 140.122 59.054 140.135L59.515 139.827L59.554 139.636L59.695 85.138L59.657 84.947L59.549 84.784L59.386 84.675L59.195 84.637L49 84.635L76.136 31.322L90.378 36.861C90.441 36.872 90.503 36.896 90.568 36.895C90.699 36.892 90.824 36.839 90.916 36.745C90.961 36.699 90.986 36.638 91.022 36.584L91.059 36.395V29.072L101.053 25L110.854 34.248L110.959 42.648L111 42.841L111.113 43.002L111.279 43.108L130.899 50.636L160 62.5V105V140.097Z" fill="#F4F3F3"/>
<path d="M127.119 136.374C127.083 136.513 127.004 136.634 126.879 136.739C126.755 136.843 126.613 136.895 126.453 136.895C126.328 136.895 126.222 136.851 126.133 136.764C126.044 136.678 126 136.565 126 136.427V136.348L126.32 134.242C126.373 133.983 126.413 133.736 126.44 133.501C126.466 133.268 126.498 133.055 126.533 132.864L127.146 128.21C127.164 128.089 127.182 127.972 127.199 127.86C127.217 127.747 127.226 127.63 127.226 127.509L127.279 127.093L127.332 126.755L127.812 122.829L128.026 121.061C128.044 120.922 128.119 120.8 128.252 120.696C128.385 120.593 128.523 120.54 128.665 120.54C128.807 120.54 128.919 120.58 128.998 120.657C129.079 120.736 129.118 120.844 129.118 120.982V121.061C128.834 123.435 128.603 125.324 128.425 126.728L128.372 127.041L128.319 127.482C128.319 127.604 128.31 127.725 128.292 127.847C128.274 127.968 128.257 128.089 128.239 128.21C128.061 129.718 127.83 131.495 127.546 133.541L127.119 136.374ZM129.838 117.889C129.767 118.079 129.661 118.239 129.518 118.37C129.376 118.5 129.225 118.564 129.065 118.564H128.959C128.692 118.564 128.487 118.461 128.345 118.252C128.274 118.045 128.239 117.915 128.239 117.863V117.784L128.265 117.68C128.301 117.524 128.336 117.412 128.372 117.342C128.585 117.048 128.861 116.9 129.198 116.9C129.43 116.9 129.616 116.948 129.758 117.043C129.9 117.139 129.971 117.282 129.971 117.473C129.971 117.559 129.962 117.628 129.944 117.68C129.891 117.733 129.856 117.793 129.838 117.863V117.889Z" fill="#807A6B"/>
<path d="M135.808 136.347C135.773 136.486 135.693 136.612 135.569 136.725C135.444 136.837 135.311 136.894 135.169 136.894C135.045 136.894 134.938 136.85 134.849 136.763C134.76 136.677 134.716 136.564 134.716 136.426V136.347L134.822 135.542L134.875 135.334L134.929 134.944C135 134.527 135.045 134.294 135.062 134.241C135.222 133.236 135.418 131.997 135.648 130.524C136.022 127.889 136.208 125.809 136.208 124.283C136.208 123.452 136.164 122.845 136.075 122.463C135.968 121.926 135.818 121.632 135.622 121.579H135.569C135.497 121.579 135.391 121.623 135.249 121.709C135.124 121.779 134.973 121.909 134.796 122.1L134.369 122.489C133.747 123.183 133.152 124.457 132.583 126.312C132.014 128.166 131.571 130.203 131.251 132.421C131.019 133.964 130.904 135.221 130.904 136.191L130.877 136.244C130.859 136.382 130.802 136.503 130.704 136.608C130.607 136.712 130.495 136.763 130.371 136.763H130.318C130.229 136.815 130.131 136.842 130.025 136.842C129.9 136.842 129.789 136.794 129.692 136.699C129.593 136.603 129.545 136.503 129.545 136.4V136.347L129.705 134.762C129.882 133.6 130.246 131.59 130.798 128.73L130.958 127.897C131.561 124.934 131.926 122.966 132.05 121.996L132.184 120.904V120.878C132.201 120.739 132.277 120.618 132.41 120.513C132.543 120.409 132.672 120.357 132.797 120.357C132.939 120.357 133.059 120.405 133.156 120.5C133.254 120.596 133.303 120.704 133.303 120.825V120.878C133.321 120.93 133.294 121.181 133.223 121.632C133.152 122.117 133.099 122.42 133.063 122.542C133.347 122.16 133.516 121.944 133.57 121.891C134.387 120.955 135.106 120.488 135.729 120.488C136.474 120.488 136.955 121.025 137.168 122.1C137.275 122.637 137.328 123.33 137.328 124.18C137.328 125.878 137.132 128.062 136.741 130.732C136.706 131.095 136.608 131.72 136.448 132.603L136.182 134.267C136.128 134.424 136.075 134.657 136.022 134.969L135.968 135.437C135.933 135.472 135.915 135.516 135.915 135.567L135.808 136.347Z" fill="#807A6B"/>
<path d="M143.245 135.048C143.121 135.603 142.801 136.071 142.286 136.452C141.77 136.833 141.211 137.024 140.606 137.024C140.091 137.024 139.678 136.868 139.367 136.556C139.056 136.245 138.9 135.819 138.9 135.282C138.9 135.074 138.91 134.918 138.927 134.814L140.286 125.845L140.9 121.58C140.367 121.58 139.975 121.598 139.727 121.632C139.602 121.632 139.496 121.58 139.407 121.477C139.318 121.372 139.274 121.251 139.274 121.112V121.06L139.3 121.034C139.318 120.913 139.385 120.8 139.5 120.696C139.616 120.592 139.744 120.54 139.887 120.54C140.011 120.523 140.393 120.514 141.033 120.514L141.433 117.914L141.753 115.834C141.77 115.696 141.842 115.574 141.966 115.47C142.09 115.366 142.223 115.314 142.366 115.314C142.49 115.314 142.601 115.362 142.699 115.457C142.796 115.553 142.846 115.67 142.846 115.808V115.86C142.721 116.657 142.615 117.386 142.526 118.044L142.126 120.514L144.018 120.462C144.161 120.462 144.28 120.506 144.378 120.592C144.476 120.679 144.525 120.792 144.525 120.93V120.982C144.489 121.138 144.418 121.268 144.311 121.372C144.205 121.477 144.072 121.528 143.912 121.528L141.992 121.58L141.379 125.845L140.02 134.996L139.993 135.23C139.993 135.733 140.233 135.984 140.713 135.984C140.891 135.984 141.073 135.949 141.259 135.88C141.446 135.811 141.593 135.733 141.699 135.646C141.948 135.456 142.099 135.221 142.152 134.944C142.188 134.806 142.268 134.689 142.392 134.593C142.516 134.498 142.641 134.45 142.765 134.45C142.907 134.45 143.023 134.498 143.112 134.593C143.201 134.689 143.245 134.806 143.245 134.944V135.048Z" fill="#807A6B"/>
<path d="M148.203 136.659C147.706 136.85 147.297 136.945 146.976 136.945C146.035 136.945 145.373 136.478 144.991 135.542C144.609 134.606 144.418 133.453 144.418 132.084C144.418 131.044 144.489 130.064 144.631 129.145C144.916 127.169 145.387 125.389 146.044 123.803C146.701 122.216 147.501 121.216 148.443 120.8C148.869 120.661 149.198 120.592 149.429 120.592C150.086 120.592 150.588 120.886 150.935 121.476C151.281 122.065 151.454 122.845 151.454 123.816C151.454 124.301 151.419 124.751 151.348 125.168C151.33 125.341 151.259 125.74 151.135 126.364C151.099 126.502 151.019 126.619 150.895 126.714C150.77 126.81 150.646 126.857 150.521 126.857H150.308H149.855C149.571 126.857 149.358 126.866 149.216 126.883L146.897 126.91C146.719 126.944 146.55 126.962 146.391 126.962H146.203H146.124C145.875 128.088 145.724 128.86 145.671 129.275C145.547 130.108 145.484 130.966 145.484 131.849C145.484 133.063 145.635 134.042 145.937 134.788C146.239 135.516 146.657 135.879 147.19 135.879C147.332 135.879 147.43 135.871 147.483 135.854L147.589 135.802C147.589 135.802 147.607 135.784 147.643 135.749C148.212 135.576 148.594 135.342 148.789 135.048C148.86 134.805 148.896 134.588 148.896 134.397L148.949 134.008C148.967 133.869 149.043 133.748 149.176 133.643C149.309 133.54 149.447 133.487 149.589 133.487C149.713 133.505 149.82 133.557 149.908 133.643C149.997 133.73 150.042 133.843 150.042 133.982V134.06L150.015 134.294C149.98 134.831 149.855 135.273 149.642 135.619C149.429 135.966 149.003 136.287 148.362 136.582L148.203 136.659ZM146.844 124.674C146.755 124.847 146.666 125.072 146.577 125.349C146.488 125.627 146.435 125.801 146.417 125.87H146.524C146.772 125.87 146.95 125.861 147.057 125.844L149.323 125.817C149.465 125.801 149.687 125.791 149.989 125.791H150.149C150.273 125.168 150.335 124.561 150.335 123.972C150.335 123.417 150.264 122.914 150.122 122.464C149.908 121.944 149.624 121.684 149.269 121.684C149.074 121.684 148.896 121.719 148.736 121.788C148.078 122.082 147.448 123.044 146.844 124.674Z" fill="#807A6B"/>
<path d="M152.707 136.971C152.671 136.989 152.618 136.989 152.547 136.971H152.493C152.369 136.971 152.267 136.924 152.187 136.828C152.107 136.733 152.05 136.616 152.014 136.477C152.103 135.923 152.147 135.567 152.147 135.412L152.2 134.892L152.36 133.566L152.6 132.058L152.867 130.108L153.266 127.429C153.586 125.072 153.853 122.94 154.066 121.034C154.084 120.895 154.151 120.769 154.266 120.656C154.382 120.544 154.519 120.479 154.679 120.462C154.822 120.462 154.937 120.505 155.026 120.592C155.114 120.678 155.159 120.782 155.159 120.904V120.981L154.999 122.256L154.706 124.804C155.559 122.88 156.447 121.605 157.371 120.981C157.922 120.583 158.527 120.392 159.183 120.409C159.308 120.427 159.406 120.483 159.477 120.579C159.548 120.674 159.584 120.791 159.584 120.93V121.007C159.548 121.146 159.463 121.267 159.33 121.372C159.197 121.476 159.059 121.519 158.917 121.502C158.242 121.432 157.549 121.926 156.838 122.984C156.198 123.937 155.603 125.219 155.052 126.831C154.502 128.444 154.049 130.194 153.693 132.084C153.604 132.829 153.453 133.921 153.24 135.36V136.347L153.213 136.452C153.195 136.59 153.142 136.707 153.053 136.802C152.964 136.898 152.849 136.954 152.707 136.971Z" fill="#807A6B"/>
<path d="M159.985 136.374C159.949 136.513 159.87 136.634 159.745 136.739C159.621 136.843 159.478 136.895 159.318 136.895C159.194 136.895 159.087 136.851 158.999 136.764C158.91 136.678 158.865 136.565 158.865 136.427V136.348L159.185 134.242C159.239 133.983 159.279 133.736 159.305 133.501C159.332 133.268 159.363 133.055 159.399 132.864L160.012 128.21C160.03 128.089 160.047 127.972 160.065 127.86C160.083 127.747 160.091 127.63 160.091 127.509L160.145 127.093L160.198 126.755L160.678 122.829L160.892 121.061C160.909 120.922 160.984 120.8 161.118 120.696C161.251 120.593 161.389 120.54 161.531 120.54C161.673 120.54 161.784 120.58 161.864 120.657C161.944 120.736 161.984 120.844 161.984 120.982V121.061C161.7 123.435 161.469 125.324 161.291 126.728L161.238 127.041L161.184 127.482C161.184 127.604 161.176 127.725 161.158 127.847C161.14 127.968 161.122 128.089 161.105 128.21C160.927 129.718 160.696 131.495 160.411 133.541L159.985 136.374ZM162.704 117.889C162.633 118.079 162.526 118.239 162.384 118.37C162.242 118.5 162.09 118.564 161.931 118.564H161.824C161.558 118.564 161.353 118.461 161.211 118.252C161.14 118.045 161.105 117.915 161.105 117.863V117.784L161.131 117.68C161.167 117.524 161.202 117.412 161.238 117.342C161.451 117.048 161.726 116.9 162.064 116.9C162.295 116.9 162.482 116.948 162.624 117.043C162.766 117.139 162.837 117.282 162.837 117.473C162.837 117.559 162.828 117.628 162.81 117.68C162.757 117.733 162.721 117.793 162.704 117.863V117.889Z" fill="#807A6B"/>
<path d="M166.488 136.659C165.991 136.85 165.582 136.945 165.262 136.945C164.32 136.945 163.659 136.478 163.276 135.542C162.894 134.606 162.703 133.453 162.703 132.084C162.703 131.044 162.774 130.064 162.917 129.145C163.201 127.169 163.672 125.389 164.329 123.803C164.987 122.216 165.786 121.216 166.728 120.8C167.155 120.661 167.484 120.592 167.715 120.592C168.372 120.592 168.874 120.886 169.22 121.476C169.567 122.065 169.74 122.845 169.74 123.816C169.74 124.301 169.704 124.751 169.633 125.168C169.615 125.341 169.544 125.74 169.42 126.364C169.385 126.502 169.305 126.619 169.18 126.714C169.056 126.81 168.931 126.857 168.807 126.857H168.594H168.14C167.857 126.857 167.644 126.866 167.501 126.883L165.182 126.91C165.005 126.944 164.836 126.962 164.676 126.962H164.489H164.409C164.16 128.088 164.01 128.86 163.956 129.275C163.832 130.108 163.769 130.966 163.769 131.849C163.769 133.063 163.921 134.042 164.223 134.788C164.524 135.516 164.942 135.879 165.475 135.879C165.617 135.879 165.715 135.871 165.768 135.854L165.875 135.802C165.875 135.802 165.893 135.784 165.928 135.749C166.497 135.576 166.879 135.342 167.075 135.048C167.146 134.805 167.181 134.588 167.181 134.397L167.235 134.008C167.252 133.869 167.328 133.748 167.461 133.643C167.594 133.54 167.732 133.487 167.874 133.487C167.998 133.505 168.105 133.557 168.194 133.643C168.283 133.73 168.328 133.843 168.328 133.982V134.06L168.301 134.294C168.265 134.831 168.14 135.273 167.927 135.619C167.715 135.966 167.288 136.287 166.648 136.582L166.488 136.659ZM165.129 124.674C165.04 124.847 164.951 125.072 164.862 125.349C164.773 125.627 164.72 125.801 164.702 125.87H164.809C165.058 125.87 165.236 125.861 165.342 125.844L167.608 125.817C167.75 125.801 167.972 125.791 168.274 125.791H168.434C168.558 125.168 168.621 124.561 168.621 123.972C168.621 123.417 168.549 122.914 168.407 122.464C168.194 121.944 167.91 121.684 167.555 121.684C167.359 121.684 167.181 121.719 167.021 121.788C166.364 122.082 165.733 123.044 165.129 124.674Z" fill="#807A6B"/>
<path d="M176.403 136.712C176.385 136.902 176.225 137.05 175.923 137.154L175.79 137.18C175.666 137.18 175.564 137.141 175.483 137.063C175.404 136.985 175.363 136.894 175.363 136.79C175.328 136.27 175.31 135.828 175.31 135.464C175.31 135.031 175.345 134.208 175.417 132.994H175.337L175.203 133.462C175.168 133.6 175.15 133.713 175.15 133.8L175.124 133.904C174.893 134.771 174.484 135.494 173.898 136.075C173.311 136.656 172.689 136.946 172.032 136.946C171.498 136.946 171.076 136.738 170.765 136.322C170.455 135.906 170.299 135.325 170.299 134.58C170.299 133.748 170.424 132.518 170.672 130.888L171.045 128.288L171.259 126.702L171.605 124.388C171.676 124.024 171.721 123.816 171.739 123.764L172.032 121.944C172.103 121.39 172.138 121.069 172.138 120.982C172.156 120.826 172.227 120.7 172.352 120.605C172.476 120.509 172.609 120.462 172.751 120.462C172.858 120.462 172.955 120.505 173.044 120.592C173.133 120.679 173.178 120.774 173.178 120.878V120.93L173.044 121.892L172.884 122.88L172.645 124.414L172.298 126.676L172.111 128.21L171.712 130.888C171.463 132.587 171.339 133.8 171.339 134.528C171.339 135.065 171.454 135.464 171.685 135.724C171.792 135.862 171.952 135.932 172.165 135.932C172.574 135.932 172.982 135.69 173.391 135.204C173.711 134.806 173.951 134.338 174.111 133.8L174.191 133.41C174.297 132.873 174.475 132.223 174.724 131.46C175.008 130.489 175.185 129.796 175.257 129.38L175.923 126.858C176.492 124.431 176.83 122.802 176.936 121.97C176.972 121.762 177.007 121.406 177.043 120.904L177.069 120.826C177.087 120.705 177.149 120.592 177.256 120.488C177.362 120.384 177.496 120.332 177.656 120.332C177.78 120.332 177.891 120.375 177.989 120.462C178.087 120.549 178.135 120.661 178.135 120.8L178.002 121.944C177.949 122.152 177.9 122.395 177.855 122.672C177.811 122.949 177.78 123.166 177.763 123.322L177.576 124.414L177.149 127.092L176.936 128.47C176.545 131.192 176.35 133.505 176.35 135.412C176.35 135.949 176.359 136.339 176.376 136.582C176.394 136.6 176.403 136.643 176.403 136.712Z" fill="#807A6B"/>
<path d="M179.388 136.971C179.353 136.989 179.299 136.989 179.228 136.971H179.175C179.05 136.971 178.948 136.924 178.868 136.828C178.788 136.733 178.73 136.616 178.695 136.477C178.784 135.923 178.829 135.567 178.829 135.412L178.882 134.892L179.042 133.566L179.282 132.058L179.548 130.108L179.948 127.429C180.268 125.072 180.535 122.94 180.748 121.034C180.765 120.895 180.832 120.769 180.947 120.656C181.063 120.544 181.201 120.479 181.361 120.462C181.503 120.462 181.618 120.505 181.707 120.592C181.796 120.678 181.84 120.782 181.84 120.904V120.981L181.68 122.256L181.387 124.804C182.24 122.88 183.129 121.605 184.052 120.981C184.604 120.583 185.208 120.392 185.865 120.409C185.99 120.427 186.087 120.483 186.158 120.579C186.229 120.674 186.265 120.791 186.265 120.93V121.007C186.229 121.146 186.145 121.267 186.012 121.372C185.878 121.476 185.741 121.519 185.599 121.502C184.924 121.432 184.23 121.926 183.52 122.984C182.88 123.937 182.285 125.219 181.733 126.831C181.183 128.444 180.73 130.194 180.375 132.084C180.286 132.829 180.134 133.921 179.921 135.36V136.347L179.895 136.452C179.877 136.59 179.823 136.707 179.735 136.802C179.646 136.898 179.531 136.954 179.388 136.971Z" fill="#807A6B"/>
<path d="M189.304 137.103C189.287 137.12 189.233 137.128 189.144 137.128C189.02 137.128 188.913 137.094 188.824 137.025C188.735 136.956 188.682 136.869 188.664 136.765C188.629 136.661 188.593 136.34 188.558 135.803C188.238 136.149 187.878 136.418 187.479 136.609C187.079 136.8 186.692 136.895 186.319 136.895C185.821 136.895 185.422 136.721 185.119 136.374C184.675 135.941 184.453 135.196 184.453 134.139C184.453 133.723 184.48 133.307 184.533 132.891C184.693 131.781 185.017 130.702 185.506 129.654C185.994 128.605 186.55 127.821 187.172 127.301C187.687 126.902 188.176 126.703 188.638 126.703C188.976 126.703 189.322 126.807 189.677 127.015C189.89 125.628 190.033 124.588 190.104 123.895C190.175 123.184 190.21 122.63 190.21 122.231C190.21 121.902 190.179 121.667 190.117 121.529C190.055 121.39 189.953 121.295 189.811 121.243C189.811 121.208 189.784 121.191 189.731 121.191C189.553 121.191 189.322 121.312 189.038 121.555C188.789 121.728 188.38 122.127 187.812 122.751C187.705 122.889 187.554 122.958 187.359 122.958C187.27 122.958 187.167 122.915 187.052 122.829C186.937 122.742 186.879 122.63 186.879 122.491V122.439C186.879 122.335 186.932 122.222 187.039 122.101C188.211 120.783 189.162 120.125 189.89 120.125C190.335 120.125 190.686 120.307 190.943 120.671C191.201 121.035 191.33 121.546 191.33 122.204C191.33 122.881 191.206 124.042 190.957 125.689L190.53 128.601L190.45 129.095L190.264 130.447C189.979 132.458 189.811 133.766 189.757 134.373C189.722 134.72 189.704 135.162 189.704 135.699C189.704 136.046 189.713 136.279 189.731 136.401C189.748 136.418 189.757 136.47 189.757 136.557C189.722 136.678 189.664 136.791 189.584 136.895C189.504 136.999 189.411 137.068 189.304 137.103ZM185.572 134.035C185.572 135.318 185.928 135.907 186.639 135.803C187.012 135.716 187.359 135.53 187.678 135.244C187.998 134.958 188.327 134.546 188.664 134.009L188.745 133.619C188.763 133.237 188.887 132.284 189.118 130.759L189.358 129.095L189.465 128.392C189.109 127.994 188.789 127.795 188.504 127.795C188.274 127.795 188.034 127.908 187.785 128.133C187.323 128.497 186.887 129.138 186.479 130.057C186.07 130.975 185.795 131.937 185.653 132.943C185.6 133.307 185.572 133.671 185.572 134.035Z" fill="#807A6B"/>
<path d="M194.769 136.868C194.715 136.886 194.573 136.894 194.342 136.894H194.209C193.622 136.946 193.147 136.738 192.783 136.27C192.418 135.802 192.183 135.135 192.076 134.268C191.988 133.766 191.943 133.133 191.943 132.37C191.943 131.521 192.005 130.68 192.13 129.848C192.29 128.756 192.538 127.69 192.876 126.65C193.213 125.61 193.595 124.735 194.022 124.024C194.875 122.724 195.799 122.075 196.794 122.075C196.99 122.075 197.203 122.109 197.434 122.178C197.541 121.398 197.603 120.93 197.62 120.774L197.701 120.228L197.78 119.63L197.913 118.538L198.047 117.342L198.26 115.782C198.26 115.886 198.296 115.591 198.367 114.898C198.438 114.326 198.509 113.867 198.58 113.52C198.615 113.382 198.696 113.26 198.82 113.156C198.945 113.052 199.087 113 199.246 113C199.371 113 199.477 113.043 199.566 113.13C199.655 113.217 199.7 113.329 199.7 113.468V113.546C199.629 113.876 199.53 114.5 199.406 115.418C199.282 116.25 199.122 117.481 198.927 119.11L198.713 120.748L198.393 123.452L198.287 124.518L197.78 128.158C197.158 132.405 196.581 135.083 196.048 136.192C195.781 136.626 195.355 136.851 194.769 136.868ZM193.169 133.982C193.347 135.23 193.711 135.846 194.262 135.828H194.422C194.724 135.828 194.937 135.802 195.062 135.75C195.577 134.693 196.128 132.102 196.714 127.976L197.194 124.518C197.265 124.05 197.3 123.652 197.3 123.322C197.212 123.322 197.15 123.305 197.114 123.27C196.972 123.218 196.83 123.192 196.687 123.192C196.137 123.192 195.617 123.539 195.128 124.232C194.64 124.925 194.235 125.792 193.915 126.832C193.631 127.751 193.409 128.748 193.249 129.822C193.107 130.793 193.036 131.625 193.036 132.319C193.036 132.856 193.081 133.41 193.169 133.982Z" fill="#807A6B"/>
<path d="M201.751 136.66C201.644 136.764 201.511 136.816 201.351 136.816C201.209 136.816 201.093 136.782 201.004 136.712C200.915 136.643 200.871 136.539 200.871 136.401V136.348V134.19C200.871 130.464 200.818 126.104 200.711 121.112V121.06C200.747 120.904 200.813 120.774 200.911 120.67C201.009 120.567 201.129 120.506 201.271 120.488H201.324C201.467 120.488 201.586 120.532 201.684 120.618C201.782 120.705 201.831 120.809 201.831 120.93L201.964 130.42V130.967C201.964 131.105 201.96 131.322 201.95 131.616C201.942 131.911 201.946 132.179 201.964 132.422C202.301 131.261 202.728 129.961 203.244 128.522L203.537 127.638L203.723 127.092C203.776 126.901 203.812 126.798 203.83 126.78C204.292 125.463 204.709 124.189 205.083 122.958C205.207 122.612 205.411 121.953 205.696 120.982C205.838 120.67 206.06 120.514 206.362 120.514C206.486 120.514 206.593 120.562 206.682 120.657C206.771 120.752 206.815 120.869 206.815 121.008L206.789 121.138L206.149 123.141C205.882 124.059 205.456 125.342 204.869 126.988C204.816 127.162 204.78 127.274 204.763 127.326C204.745 127.396 204.718 127.469 204.683 127.547C204.647 127.625 204.612 127.716 204.576 127.821L204.283 128.73L203.75 130.369C202.897 132.899 202.319 134.858 202.017 136.245C201.999 136.435 201.911 136.573 201.751 136.66Z" fill="#807A6B"/>
<path d="M208.149 136.374C208.113 136.513 208.033 136.634 207.909 136.739C207.784 136.843 207.642 136.895 207.482 136.895C207.358 136.895 207.252 136.851 207.163 136.764C207.074 136.678 207.029 136.565 207.029 136.427V136.348L207.349 134.242C207.403 133.983 207.443 133.736 207.469 133.501C207.496 133.268 207.527 133.055 207.563 132.864L208.176 128.21C208.193 128.089 208.211 127.972 208.229 127.86C208.247 127.747 208.255 127.63 208.255 127.509L208.309 127.093L208.362 126.755L208.842 122.829L209.055 121.061C209.073 120.922 209.148 120.8 209.282 120.696C209.415 120.593 209.553 120.54 209.695 120.54C209.837 120.54 209.948 120.58 210.028 120.657C210.108 120.736 210.148 120.844 210.148 120.982V121.061C209.864 123.435 209.633 125.324 209.455 126.728L209.402 127.041L209.348 127.482C209.348 127.604 209.34 127.725 209.322 127.847C209.304 127.968 209.287 128.089 209.269 128.21C209.091 129.718 208.86 131.495 208.575 133.541L208.149 136.374ZM210.868 117.889C210.797 118.079 210.69 118.239 210.548 118.37C210.406 118.5 210.255 118.564 210.095 118.564H209.988C209.722 118.564 209.517 118.461 209.375 118.252C209.304 118.045 209.269 117.915 209.269 117.863V117.784L209.295 117.68C209.33 117.524 209.366 117.412 209.402 117.342C209.615 117.048 209.89 116.9 210.228 116.9C210.459 116.9 210.645 116.948 210.788 117.043C210.93 117.139 211.001 117.282 211.001 117.473C211.001 117.559 210.992 117.628 210.974 117.68C210.921 117.733 210.886 117.793 210.868 117.863V117.889Z" fill="#807A6B"/>
<path d="M214.652 136.659C214.155 136.85 213.746 136.945 213.426 136.945C212.484 136.945 211.823 136.478 211.44 135.542C211.058 134.606 210.867 133.453 210.867 132.084C210.867 131.044 210.938 130.064 211.08 129.145C211.365 127.169 211.836 125.389 212.493 123.803C213.151 122.216 213.95 121.216 214.892 120.8C215.319 120.661 215.647 120.592 215.879 120.592C216.535 120.592 217.038 120.886 217.384 121.476C217.731 122.065 217.904 122.845 217.904 123.816C217.904 124.301 217.868 124.751 217.797 125.168C217.78 125.341 217.709 125.74 217.584 126.364C217.549 126.502 217.468 126.619 217.344 126.714C217.22 126.81 217.095 126.857 216.971 126.857H216.758H216.305C216.021 126.857 215.807 126.866 215.665 126.883L213.346 126.91C213.168 126.944 213 126.962 212.84 126.962H212.653H212.573C212.324 128.088 212.174 128.86 212.12 129.275C211.996 130.108 211.933 130.966 211.933 131.849C211.933 133.063 212.085 134.042 212.387 134.788C212.688 135.516 213.106 135.879 213.639 135.879C213.781 135.879 213.879 135.871 213.933 135.854L214.039 135.802C214.039 135.802 214.057 135.784 214.092 135.749C214.661 135.576 215.043 135.342 215.238 135.048C215.31 134.805 215.345 134.588 215.345 134.397L215.398 134.008C215.416 133.869 215.492 133.748 215.625 133.643C215.759 133.54 215.896 133.487 216.038 133.487C216.163 133.505 216.269 133.557 216.358 133.643C216.447 133.73 216.492 133.843 216.492 133.982V134.06L216.464 134.294C216.429 134.831 216.305 135.273 216.092 135.619C215.879 135.966 215.452 136.287 214.812 136.582L214.652 136.659ZM213.293 124.674C213.204 124.847 213.115 125.072 213.026 125.349C212.937 125.627 212.884 125.801 212.866 125.87H212.973C213.222 125.87 213.399 125.861 213.506 125.844L215.772 125.817C215.914 125.801 216.136 125.791 216.438 125.791H216.598C216.723 125.168 216.784 124.561 216.784 123.972C216.784 123.417 216.713 122.914 216.571 122.464C216.358 121.944 216.074 121.684 215.718 121.684C215.523 121.684 215.345 121.719 215.185 121.788C214.528 122.082 213.897 123.044 213.293 124.674Z" fill="#807A6B"/>
<path d="M222.035 136.244C221.538 136.677 220.978 136.894 220.356 136.894C219.947 136.894 219.569 136.794 219.223 136.595C218.876 136.396 218.596 136.114 218.383 135.75C218.134 135.317 218.01 134.84 218.01 134.32C218.01 134.146 218.046 133.835 218.117 133.384C218.134 133.262 218.214 133.15 218.357 133.046C218.499 132.942 218.641 132.89 218.783 132.89C218.907 132.907 219.01 132.963 219.089 133.059C219.17 133.154 219.209 133.262 219.209 133.384V133.488C219.156 133.713 219.13 133.93 219.13 134.138C219.13 134.623 219.258 135.021 219.516 135.334C219.773 135.646 220.098 135.802 220.489 135.802C220.791 135.802 221.084 135.689 221.368 135.464C221.795 135.1 222.088 134.537 222.248 133.774C222.266 133.704 222.311 133.41 222.382 132.89C222.47 132.283 222.515 131.806 222.515 131.46C222.515 130.957 222.443 130.524 222.301 130.16C222.23 129.917 222.119 129.731 221.968 129.6C221.817 129.471 221.538 129.293 221.129 129.068C220.489 128.687 220.04 128.305 219.783 127.924C219.525 127.542 219.379 127.005 219.343 126.312C219.325 126.208 219.316 126.043 219.316 125.818C219.316 125.627 219.334 125.359 219.369 125.012C219.494 124.197 219.765 123.439 220.182 122.737C220.6 122.035 221.102 121.476 221.688 121.06C222.204 120.696 222.683 120.514 223.127 120.514C223.625 120.514 224.025 120.739 224.327 121.19C224.629 121.64 224.78 122.273 224.78 123.088V123.166C224.762 123.304 224.7 123.422 224.594 123.517C224.487 123.612 224.371 123.66 224.247 123.66H224.167C224.043 123.66 223.931 123.621 223.834 123.543C223.736 123.465 223.687 123.374 223.687 123.269V123.218C223.687 122.351 223.527 121.84 223.208 121.684C223.137 121.649 223.056 121.632 222.967 121.632C222.772 121.632 222.532 121.727 222.248 121.918C221.804 122.23 221.421 122.672 221.102 123.244C220.782 123.816 220.577 124.422 220.489 125.064C220.453 125.41 220.436 125.679 220.436 125.87C220.436 126.528 220.551 127.005 220.782 127.3C220.978 127.56 221.315 127.837 221.795 128.132C222.275 128.409 222.63 128.652 222.861 128.86C223.092 129.068 223.261 129.345 223.367 129.692C223.563 130.177 223.661 130.74 223.661 131.382C223.661 131.798 223.625 132.205 223.554 132.604C223.448 133.384 223.257 134.108 222.981 134.775C222.705 135.442 222.39 135.932 222.035 136.244Z" fill="#807A6B"/>
<path d="M256.126 136.66C256.019 136.764 255.886 136.816 255.726 136.816C255.584 136.816 255.468 136.782 255.379 136.712C255.29 136.643 255.246 136.539 255.246 136.401V136.348V134.19C255.246 130.464 255.193 126.104 255.086 121.112V121.06C255.122 120.904 255.188 120.774 255.286 120.67C255.384 120.567 255.504 120.506 255.646 120.488H255.699C255.842 120.488 255.961 120.532 256.059 120.618C256.157 120.705 256.206 120.809 256.206 120.93L256.339 130.42V130.967C256.339 131.105 256.335 131.322 256.325 131.616C256.317 131.911 256.321 132.179 256.339 132.422C256.676 131.261 257.103 129.961 257.618 128.522L257.912 127.638L258.098 127.092C258.151 126.901 258.187 126.798 258.205 126.78C258.667 125.463 259.084 124.189 259.458 122.958C259.582 122.612 259.786 121.953 260.071 120.982C260.213 120.67 260.435 120.514 260.737 120.514C260.861 120.514 260.968 120.562 261.057 120.657C261.146 120.752 261.19 120.869 261.19 121.008L261.164 121.138L260.524 123.141C260.257 124.059 259.831 125.342 259.244 126.988C259.191 127.162 259.155 127.274 259.138 127.326C259.12 127.396 259.093 127.469 259.058 127.547C259.022 127.625 258.987 127.716 258.951 127.821L258.658 128.73L258.125 130.369C257.272 132.899 256.694 134.858 256.392 136.245C256.374 136.435 256.286 136.573 256.126 136.66Z" fill="#807A6B"/>
<path d="M265.562 137.103C265.544 137.12 265.491 137.128 265.402 137.128C265.278 137.128 265.171 137.094 265.082 137.025C264.993 136.956 264.94 136.869 264.922 136.765C264.886 136.661 264.851 136.34 264.815 135.803C264.496 136.149 264.136 136.418 263.736 136.609C263.336 136.8 262.95 136.895 262.577 136.895C262.079 136.895 261.679 136.721 261.377 136.374C260.933 135.941 260.711 135.196 260.711 134.139C260.711 133.723 260.737 133.307 260.791 132.891C260.95 131.781 261.275 130.702 261.764 129.654C262.252 128.605 262.808 127.821 263.429 127.301C263.945 126.902 264.434 126.703 264.896 126.703C265.233 126.703 265.58 126.807 265.935 127.015C266.148 125.628 266.29 124.588 266.361 123.895C266.432 123.184 266.468 122.63 266.468 122.231C266.468 121.902 266.437 121.667 266.375 121.529C266.313 121.39 266.211 121.295 266.068 121.243C266.068 121.208 266.041 121.191 265.988 121.191C265.811 121.191 265.58 121.312 265.295 121.555C265.047 121.728 264.638 122.127 264.07 122.751C263.963 122.889 263.811 122.958 263.616 122.958C263.527 122.958 263.425 122.915 263.31 122.829C263.194 122.742 263.136 122.63 263.136 122.491V122.439C263.136 122.335 263.19 122.222 263.297 122.101C264.469 120.783 265.42 120.125 266.148 120.125C266.593 120.125 266.943 120.307 267.201 120.671C267.459 121.035 267.587 121.546 267.587 122.204C267.587 122.881 267.463 124.042 267.215 125.689L266.788 128.601L266.708 129.095L266.521 130.447C266.237 132.458 266.068 133.766 266.015 134.373C265.98 134.72 265.962 135.162 265.962 135.699C265.962 136.046 265.97 136.279 265.988 136.401C266.006 136.418 266.015 136.47 266.015 136.557C265.98 136.678 265.922 136.791 265.842 136.895C265.761 136.999 265.669 137.068 265.562 137.103ZM261.83 134.035C261.83 135.318 262.186 135.907 262.897 135.803C263.269 135.716 263.616 135.53 263.936 135.244C264.256 134.958 264.584 134.546 264.922 134.009L265.002 133.619C265.02 133.237 265.144 132.284 265.375 130.759L265.616 129.095L265.722 128.392C265.367 127.994 265.047 127.795 264.762 127.795C264.531 127.795 264.291 127.908 264.042 128.133C263.581 128.497 263.145 129.138 262.737 130.057C262.328 130.975 262.053 131.937 261.911 132.943C261.857 133.307 261.83 133.671 261.83 134.035Z" fill="#807A6B"/>
<path d="M271.853 136.244C271.355 136.677 270.795 136.894 270.174 136.894C269.765 136.894 269.387 136.794 269.041 136.595C268.694 136.396 268.415 136.114 268.201 135.75C267.952 135.317 267.828 134.84 267.828 134.32C267.828 134.146 267.863 133.835 267.935 133.384C267.952 133.262 268.032 133.15 268.174 133.046C268.316 132.942 268.459 132.89 268.601 132.89C268.725 132.907 268.827 132.963 268.908 133.059C268.987 133.154 269.028 133.262 269.028 133.384V133.488C268.974 133.713 268.947 133.93 268.947 134.138C268.947 134.623 269.076 135.021 269.334 135.334C269.592 135.646 269.916 135.802 270.307 135.802C270.609 135.802 270.902 135.689 271.187 135.464C271.613 135.1 271.906 134.537 272.066 133.774C272.084 133.704 272.128 133.41 272.199 132.89C272.288 132.283 272.333 131.806 272.333 131.46C272.333 130.957 272.262 130.524 272.12 130.16C272.049 129.917 271.937 129.731 271.786 129.6C271.635 129.471 271.355 129.293 270.947 129.068C270.307 128.687 269.858 128.305 269.6 127.924C269.343 127.542 269.196 127.005 269.16 126.312C269.143 126.208 269.134 126.043 269.134 125.818C269.134 125.627 269.152 125.359 269.188 125.012C269.312 124.197 269.583 123.439 270 122.737C270.418 122.035 270.92 121.476 271.507 121.06C272.021 120.696 272.501 120.514 272.946 120.514C273.443 120.514 273.843 120.739 274.145 121.19C274.447 121.64 274.598 122.273 274.598 123.088V123.166C274.581 123.304 274.518 123.422 274.411 123.517C274.305 123.612 274.19 123.66 274.065 123.66H273.985C273.861 123.66 273.75 123.621 273.652 123.543C273.554 123.465 273.506 123.374 273.506 123.269V123.218C273.506 122.351 273.346 121.84 273.026 121.684C272.954 121.649 272.875 121.632 272.786 121.632C272.59 121.632 272.351 121.727 272.066 121.918C271.622 122.23 271.24 122.672 270.92 123.244C270.6 123.816 270.396 124.422 270.307 125.064C270.271 125.41 270.254 125.679 270.254 125.87C270.254 126.528 270.369 127.005 270.6 127.3C270.795 127.56 271.133 127.837 271.613 128.132C272.092 128.409 272.448 128.652 272.679 128.86C272.91 129.068 273.079 129.345 273.186 129.692C273.381 130.177 273.478 130.74 273.478 131.382C273.478 131.798 273.443 132.205 273.372 132.604C273.265 133.384 273.074 134.108 272.799 134.775C272.524 135.442 272.209 135.932 271.853 136.244Z" fill="#807A6B"/>
<path d="M279.876 135.048C279.751 135.603 279.431 136.071 278.916 136.452C278.401 136.833 277.841 137.024 277.237 137.024C276.722 137.024 276.308 136.868 275.998 136.556C275.687 136.245 275.531 135.819 275.531 135.282C275.531 135.074 275.54 134.918 275.558 134.814L276.917 125.845L277.53 121.58C276.997 121.58 276.606 121.598 276.357 121.632C276.233 121.632 276.126 121.58 276.037 121.477C275.949 121.372 275.904 121.251 275.904 121.112V121.06L275.931 121.034C275.949 120.913 276.016 120.8 276.131 120.696C276.246 120.592 276.375 120.54 276.517 120.54C276.642 120.523 277.023 120.514 277.664 120.514L278.063 117.914L278.383 115.834C278.401 115.696 278.472 115.574 278.597 115.47C278.721 115.366 278.854 115.314 278.996 115.314C279.121 115.314 279.232 115.362 279.329 115.457C279.427 115.553 279.476 115.67 279.476 115.808V115.86C279.352 116.657 279.245 117.386 279.156 118.044L278.757 120.514L280.649 120.462C280.791 120.462 280.911 120.506 281.008 120.592C281.106 120.679 281.155 120.792 281.155 120.93V120.982C281.12 121.138 281.048 121.268 280.942 121.372C280.835 121.477 280.702 121.528 280.542 121.528L278.623 121.58L278.01 125.845L276.651 134.996L276.624 135.23C276.624 135.733 276.864 135.984 277.343 135.984C277.521 135.984 277.704 135.949 277.89 135.88C278.076 135.811 278.223 135.733 278.33 135.646C278.579 135.456 278.729 135.221 278.783 134.944C278.818 134.806 278.898 134.689 279.023 134.593C279.147 134.498 279.271 134.45 279.396 134.45C279.538 134.45 279.654 134.498 279.742 134.593C279.831 134.689 279.876 134.806 279.876 134.944V135.048Z" fill="#807A6B"/>
<path d="M283.606 144.512C283.357 144.634 283.073 144.694 282.753 144.694C282.273 144.694 281.843 144.56 281.46 144.291C281.078 144.023 280.843 143.68 280.754 143.264C280.666 142.952 280.621 142.614 280.621 142.25C280.621 141.695 280.701 141.037 280.861 140.274L280.914 139.988L281.021 139.547L281.287 138.116C281.305 137.96 281.376 137.835 281.5 137.74C281.625 137.644 281.758 137.597 281.9 137.597C282.042 137.597 282.158 137.635 282.247 137.713C282.336 137.791 282.38 137.891 282.38 138.012V138.116C282.362 138.376 282.265 138.87 282.087 139.598L281.927 140.326C281.803 140.915 281.74 141.479 281.74 142.016C281.74 142.363 281.767 142.666 281.82 142.926C281.856 143.117 281.98 143.277 282.194 143.407C282.407 143.537 282.647 143.602 282.913 143.602C283.055 143.602 283.189 143.576 283.313 143.524C283.598 143.368 283.846 143.108 284.059 142.744L284.086 142.536L284.246 141.809C284.388 141.254 284.539 140.439 284.699 139.364L284.966 137.778L285.632 133.8L285.339 134.112C284.859 134.597 284.371 134.84 283.873 134.84C283.41 134.84 283.011 134.702 282.673 134.425C282.336 134.147 282.14 133.817 282.087 133.436C282.052 133.194 282.034 132.977 282.034 132.786C282.034 132.631 282.052 132.344 282.087 131.928C282.105 131.339 282.229 130.247 282.46 128.652C282.993 125.081 283.473 122.872 283.899 122.022C284.219 121.433 284.61 120.974 285.072 120.644C285.534 120.315 286.005 120.15 286.485 120.15C287 120.15 287.435 120.315 287.791 120.644C287.88 120.575 287.987 120.54 288.111 120.54C288.217 120.54 288.32 120.583 288.417 120.67C288.515 120.757 288.564 120.861 288.564 120.982V121.06C288.564 121.407 288.413 122.62 288.111 124.7C288.004 125.654 287.933 126.234 287.898 126.443C287.827 127.136 287.667 128.002 287.418 129.042C287.24 130.412 287.08 131.469 286.938 132.214C286.565 134.676 286.183 137.076 285.792 139.416L285.365 141.886C285.205 142.649 285.001 143.217 284.752 143.589C284.503 143.962 284.122 144.27 283.606 144.512ZM283.26 133.384C283.509 133.61 283.748 133.722 283.979 133.722C284.193 133.722 284.406 133.618 284.619 133.41C284.992 133.029 285.303 132.496 285.552 131.811C285.801 131.126 286.067 130.186 286.352 128.99C286.565 127.586 286.769 126.173 286.965 124.752C286.965 124.683 286.983 124.527 287.018 124.284L287.098 123.4L287.178 122.958L287.338 121.944L287.258 121.84C286.955 121.424 286.645 121.216 286.325 121.216C285.81 121.216 285.33 121.615 284.885 122.412C284.743 122.689 284.544 123.422 284.286 124.609C284.028 125.797 283.811 126.997 283.633 128.21L283.473 129.224C283.331 130.229 283.242 131.096 283.206 131.824C283.171 132.24 283.153 132.509 283.153 132.631L283.18 133.073C283.215 133.263 283.242 133.367 283.26 133.384Z" fill="#807A6B"/>
<path d="M293.923 134.295C293.088 136.098 292.235 136.999 291.364 136.999C290.636 136.999 290.093 136.588 289.739 135.764C289.383 134.941 289.205 133.836 289.205 132.449C289.205 131.374 289.303 130.196 289.498 128.913C289.818 126.659 290.334 124.722 291.044 123.102C291.755 121.481 292.6 120.541 293.577 120.281H293.683C293.701 120.281 293.781 120.298 293.923 120.333C294.474 120.351 294.918 120.606 295.255 121.1C295.593 121.594 295.815 122.301 295.922 123.219C295.957 123.774 295.975 124.224 295.975 124.571C295.975 125.438 295.896 126.46 295.736 127.639C295.558 128.835 295.309 130.018 294.989 131.188C294.67 132.358 294.314 133.394 293.923 134.295ZM290.858 135.361C291.054 135.725 291.267 135.916 291.497 135.933H291.524C291.684 135.933 291.844 135.812 292.004 135.569C292.341 135.118 292.644 134.598 292.91 134.009C293.284 133.194 293.621 132.228 293.923 131.11C294.225 129.992 294.465 128.844 294.642 127.665C294.785 126.746 294.856 125.767 294.856 124.727C294.856 123.704 294.759 122.894 294.563 122.296C294.367 121.698 294.074 121.399 293.683 121.399H293.603C293.017 121.624 292.457 122.396 291.924 123.713C291.32 125.169 290.866 126.876 290.565 128.835C290.405 129.944 290.324 130.967 290.324 131.903C290.324 132.545 290.369 133.194 290.458 133.853C290.582 134.598 290.716 135.101 290.858 135.361Z" fill="#807A6B"/>
<path d="M300.854 136.659C300.356 136.85 299.947 136.945 299.627 136.945C298.685 136.945 298.024 136.478 297.642 135.542C297.259 134.606 297.068 133.453 297.068 132.084C297.068 131.044 297.139 130.064 297.282 129.145C297.566 127.169 298.037 125.389 298.695 123.803C299.352 122.216 300.152 121.216 301.093 120.8C301.52 120.661 301.848 120.592 302.08 120.592C302.737 120.592 303.239 120.886 303.585 121.476C303.932 122.065 304.105 122.845 304.105 123.816C304.105 124.301 304.07 124.751 303.999 125.168C303.981 125.341 303.91 125.74 303.786 126.364C303.75 126.502 303.67 126.619 303.545 126.714C303.421 126.81 303.297 126.857 303.173 126.857H302.959H302.506C302.222 126.857 302.008 126.866 301.866 126.883L299.547 126.91C299.369 126.944 299.201 126.962 299.041 126.962H298.855H298.774C298.525 128.088 298.375 128.86 298.321 129.275C298.197 130.108 298.135 130.966 298.135 131.849C298.135 133.063 298.286 134.042 298.588 134.788C298.89 135.516 299.308 135.879 299.84 135.879C299.982 135.879 300.081 135.871 300.134 135.854L300.241 135.802C300.241 135.802 300.258 135.784 300.294 135.749C300.862 135.576 301.244 135.342 301.439 135.048C301.511 134.805 301.546 134.588 301.546 134.397L301.599 134.008C301.617 133.869 301.693 133.748 301.826 133.643C301.96 133.54 302.097 133.487 302.24 133.487C302.364 133.505 302.471 133.557 302.559 133.643C302.648 133.73 302.693 133.843 302.693 133.982V134.06L302.666 134.294C302.63 134.831 302.506 135.273 302.293 135.619C302.08 135.966 301.653 136.287 301.014 136.582L300.854 136.659ZM299.494 124.674C299.405 124.847 299.316 125.072 299.227 125.349C299.138 125.627 299.085 125.801 299.067 125.87H299.174C299.423 125.87 299.601 125.861 299.707 125.844L301.973 125.817C302.115 125.801 302.337 125.791 302.639 125.791H302.799C302.924 125.168 302.985 124.561 302.985 123.972C302.985 123.417 302.914 122.914 302.772 122.464C302.559 121.944 302.275 121.684 301.92 121.684C301.724 121.684 301.546 121.719 301.386 121.788C300.729 122.082 300.098 123.044 299.494 124.674Z" fill="#807A6B"/>
<path d="M307.276 136.868C307.223 136.886 307.081 136.894 306.85 136.894H306.717C306.13 136.946 305.655 136.738 305.29 136.27C304.926 135.802 304.691 135.135 304.585 134.268C304.496 133.766 304.451 133.133 304.451 132.37C304.451 131.521 304.514 130.68 304.638 129.848C304.798 128.756 305.046 127.69 305.384 126.65C305.722 125.61 306.104 124.735 306.53 124.024C307.383 122.724 308.307 122.075 309.302 122.075C309.498 122.075 309.711 122.109 309.942 122.178C310.048 121.398 310.111 120.93 310.129 120.774L310.208 120.228L310.289 119.63L310.422 118.538L310.555 117.342L310.768 115.782C310.768 115.886 310.803 115.591 310.875 114.898C310.946 114.326 311.017 113.867 311.088 113.52C311.123 113.382 311.204 113.26 311.328 113.156C311.452 113.052 311.594 113 311.754 113C311.879 113 311.985 113.043 312.074 113.13C312.163 113.217 312.207 113.329 312.207 113.468V113.546C312.136 113.876 312.039 114.5 311.914 115.418C311.79 116.25 311.63 117.481 311.434 119.11L311.221 120.748L310.902 123.452L310.795 124.518L310.289 128.158C309.666 132.405 309.089 135.083 308.556 136.192C308.289 136.626 307.863 136.851 307.276 136.868ZM305.677 133.982C305.855 135.23 306.219 135.846 306.77 135.828H306.93C307.232 135.828 307.446 135.802 307.57 135.75C308.085 134.693 308.636 132.102 309.222 127.976L309.702 124.518C309.773 124.05 309.809 123.652 309.809 123.322C309.72 123.322 309.658 123.305 309.622 123.27C309.48 123.218 309.338 123.192 309.196 123.192C308.644 123.192 308.125 123.539 307.637 124.232C307.148 124.925 306.744 125.792 306.424 126.832C306.139 127.751 305.917 128.748 305.757 129.822C305.615 130.793 305.544 131.625 305.544 132.319C305.544 132.856 305.588 133.41 305.677 133.982Z" fill="#807A6B"/>
<path d="M311.62 145.162C311.603 145.301 311.527 145.423 311.394 145.526C311.261 145.63 311.122 145.682 310.981 145.682C310.856 145.682 310.75 145.635 310.661 145.539C310.572 145.444 310.527 145.327 310.527 145.188V145.136C310.776 143.801 311.043 142.224 311.327 140.404C311.7 137.683 312.047 134.849 312.367 131.902V131.772C312.686 129.033 313.077 125.974 313.54 122.594L313.806 120.852C313.824 120.713 313.895 120.592 314.019 120.488C314.143 120.384 314.277 120.332 314.419 120.332C314.455 120.332 314.543 120.35 314.685 120.384C314.988 120.297 315.299 120.254 315.618 120.254C316.454 120.254 317.075 120.64 317.484 121.411C317.893 122.183 318.097 123.279 318.097 124.7C318.097 125.116 318.089 125.437 318.071 125.662C318 126.459 317.937 127.066 317.884 127.482C317.706 128.661 317.467 129.814 317.164 130.94C316.862 132.067 316.561 132.917 316.258 133.488C316.045 133.991 315.605 134.467 314.939 134.918C314.273 135.369 313.7 135.594 313.22 135.594C313.131 135.594 313.069 135.586 313.033 135.568C312.891 136.816 312.767 137.804 312.66 138.532L312.34 140.924C312.109 142.553 311.869 143.966 311.62 145.162ZM313.486 131.85L313.14 134.554C313.193 134.537 313.273 134.528 313.38 134.528C313.451 134.528 313.495 134.52 313.513 134.502C313.53 134.485 313.562 134.467 313.606 134.45C313.65 134.433 313.69 134.425 313.726 134.425C313.833 134.355 313.957 134.285 314.099 134.216C314.242 134.147 314.331 134.095 314.366 134.06C314.792 133.783 315.103 133.471 315.299 133.124C315.547 132.621 315.819 131.833 316.111 130.758C316.405 129.684 316.632 128.6 316.791 127.508C316.862 126.919 316.915 126.329 316.951 125.74C316.969 125.515 316.978 125.203 316.978 124.804C316.978 123.695 316.836 122.819 316.551 122.178C316.338 121.623 315.947 121.346 315.379 121.346C315.201 121.346 315.005 121.372 314.792 121.424L314.579 122.958C314.099 126.321 313.744 129.242 313.513 131.72L313.486 131.85Z" fill="#807A6B"/>
<path d="M319.537 136.971C319.501 136.989 319.448 136.989 319.377 136.971H319.323C319.199 136.971 319.097 136.924 319.017 136.828C318.937 136.733 318.88 136.616 318.844 136.477C318.933 135.923 318.977 135.567 318.977 135.412L319.03 134.892L319.19 133.566L319.43 132.058L319.697 130.108L320.096 127.429C320.416 125.072 320.683 122.94 320.896 121.034C320.914 120.895 320.981 120.769 321.096 120.656C321.212 120.544 321.349 120.479 321.509 120.462C321.652 120.462 321.767 120.505 321.856 120.592C321.945 120.678 321.989 120.782 321.989 120.904V120.981L321.829 122.256L321.536 124.804C322.389 122.88 323.277 121.605 324.201 120.981C324.752 120.583 325.357 120.392 326.014 120.409C326.138 120.427 326.236 120.483 326.307 120.579C326.378 120.674 326.414 120.791 326.414 120.93V121.007C326.378 121.146 326.293 121.267 326.161 121.372C326.027 121.476 325.889 121.519 325.747 121.502C325.072 121.432 324.379 121.926 323.668 122.984C323.028 123.937 322.433 125.219 321.883 126.831C321.332 128.444 320.879 130.194 320.523 132.084C320.434 132.829 320.283 133.921 320.07 135.36V136.347L320.043 136.452C320.025 136.59 319.972 136.707 319.883 136.802C319.795 136.898 319.679 136.954 319.537 136.971Z" fill="#807A6B"/>
<path d="M328.813 136.659C328.315 136.85 327.906 136.945 327.586 136.945C326.644 136.945 325.983 136.478 325.601 135.542C325.218 134.606 325.027 133.453 325.027 132.084C325.027 131.044 325.098 130.064 325.241 129.145C325.525 127.169 325.996 125.389 326.654 123.803C327.311 122.216 328.111 121.216 329.052 120.8C329.479 120.661 329.807 120.592 330.039 120.592C330.696 120.592 331.198 120.886 331.544 121.476C331.891 122.065 332.064 122.845 332.064 123.816C332.064 124.301 332.029 124.751 331.958 125.168C331.94 125.341 331.869 125.74 331.745 126.364C331.709 126.502 331.629 126.619 331.504 126.714C331.38 126.81 331.256 126.857 331.132 126.857H330.918H330.465C330.181 126.857 329.967 126.866 329.825 126.883L327.506 126.91C327.328 126.944 327.16 126.962 327 126.962H326.813H326.733C326.484 128.088 326.334 128.86 326.28 129.275C326.156 130.108 326.094 130.966 326.094 131.849C326.094 133.063 326.245 134.042 326.547 134.788C326.849 135.516 327.267 135.879 327.799 135.879C327.941 135.879 328.04 135.871 328.093 135.854L328.2 135.802C328.2 135.802 328.217 135.784 328.253 135.749C328.821 135.576 329.203 135.342 329.398 135.048C329.47 134.805 329.505 134.588 329.505 134.397L329.559 134.008C329.576 133.869 329.652 133.748 329.785 133.643C329.919 133.54 330.056 133.487 330.199 133.487C330.323 133.505 330.43 133.557 330.518 133.643C330.607 133.73 330.652 133.843 330.652 133.982V134.06L330.625 134.294C330.589 134.831 330.465 135.273 330.252 135.619C330.039 135.966 329.612 136.287 328.972 136.582L328.813 136.659ZM327.453 124.674C327.364 124.847 327.275 125.072 327.186 125.349C327.097 125.627 327.044 125.801 327.026 125.87H327.133C327.382 125.87 327.56 125.861 327.666 125.844L329.932 125.817C330.074 125.801 330.296 125.791 330.598 125.791H330.758C330.883 125.168 330.944 124.561 330.944 123.972C330.944 123.417 330.873 122.914 330.731 122.464C330.518 121.944 330.234 121.684 329.879 121.684C329.683 121.684 329.505 121.719 329.345 121.788C328.688 122.082 328.057 123.044 327.453 124.674Z" fill="#807A6B"/>
<path d="M336.197 136.244C335.7 136.677 335.14 136.894 334.518 136.894C334.109 136.894 333.732 136.794 333.385 136.595C333.038 136.396 332.758 136.114 332.545 135.75C332.297 135.317 332.172 134.84 332.172 134.32C332.172 134.146 332.208 133.835 332.279 133.384C332.297 133.262 332.376 133.15 332.519 133.046C332.661 132.942 332.803 132.89 332.945 132.89C333.07 132.907 333.172 132.963 333.251 133.059C333.332 133.154 333.371 133.262 333.371 133.384V133.488C333.318 133.713 333.292 133.93 333.292 134.138C333.292 134.623 333.421 135.021 333.678 135.334C333.936 135.646 334.26 135.802 334.651 135.802C334.953 135.802 335.247 135.689 335.531 135.464C335.957 135.1 336.25 134.537 336.41 133.774C336.428 133.704 336.473 133.41 336.544 132.89C336.633 132.283 336.677 131.806 336.677 131.46C336.677 130.957 336.605 130.524 336.463 130.16C336.392 129.917 336.282 129.731 336.13 129.6C335.979 129.471 335.7 129.293 335.291 129.068C334.651 128.687 334.202 128.305 333.945 127.924C333.687 127.542 333.541 127.005 333.505 126.312C333.487 126.208 333.478 126.043 333.478 125.818C333.478 125.627 333.496 125.359 333.531 125.012C333.656 124.197 333.927 123.439 334.344 122.737C334.762 122.035 335.264 121.476 335.85 121.06C336.366 120.696 336.846 120.514 337.29 120.514C337.787 120.514 338.187 120.739 338.489 121.19C338.792 121.64 338.942 122.273 338.942 123.088V123.166C338.924 123.304 338.863 123.422 338.756 123.517C338.649 123.612 338.533 123.66 338.409 123.66H338.329C338.205 123.66 338.094 123.621 337.996 123.543C337.899 123.465 337.849 123.374 337.849 123.269V123.218C337.849 122.351 337.69 121.84 337.37 121.684C337.299 121.649 337.218 121.632 337.13 121.632C336.934 121.632 336.694 121.727 336.41 121.918C335.966 122.23 335.584 122.672 335.264 123.244C334.944 123.816 334.74 124.422 334.651 125.064C334.616 125.41 334.598 125.679 334.598 125.87C334.598 126.528 334.713 127.005 334.944 127.3C335.14 127.56 335.477 127.837 335.957 128.132C336.437 128.409 336.792 128.652 337.023 128.86C337.254 129.068 337.423 129.345 337.53 129.692C337.725 130.177 337.823 130.74 337.823 131.382C337.823 131.798 337.787 132.205 337.716 132.604C337.61 133.384 337.419 134.108 337.143 134.775C336.867 135.442 336.552 135.932 336.197 136.244Z" fill="#807A6B"/>
<path d="M343.099 136.659C342.601 136.85 342.193 136.945 341.873 136.945C340.931 136.945 340.269 136.478 339.887 135.542C339.506 134.606 339.314 133.453 339.314 132.084C339.314 131.044 339.385 130.064 339.527 129.145C339.812 127.169 340.283 125.389 340.94 123.803C341.598 122.216 342.397 121.216 343.339 120.8C343.765 120.661 344.094 120.592 344.325 120.592C344.983 120.592 345.485 120.886 345.831 121.476C346.178 122.065 346.351 122.845 346.351 123.816C346.351 124.301 346.316 124.751 346.245 125.168C346.227 125.341 346.156 125.74 346.031 126.364C345.996 126.502 345.916 126.619 345.792 126.714C345.667 126.81 345.543 126.857 345.418 126.857H345.205H344.752C344.467 126.857 344.254 126.866 344.112 126.883L341.793 126.91C341.615 126.944 341.446 126.962 341.286 126.962H341.1H341.02C340.771 128.088 340.62 128.86 340.567 129.275C340.442 130.108 340.381 130.966 340.381 131.849C340.381 133.063 340.531 134.042 340.834 134.788C341.136 135.516 341.553 135.879 342.087 135.879C342.229 135.879 342.326 135.871 342.38 135.854L342.486 135.802C342.486 135.802 342.504 135.784 342.54 135.749C343.108 135.576 343.49 135.342 343.686 135.048C343.757 134.805 343.792 134.588 343.792 134.397L343.845 134.008C343.863 133.869 343.939 133.748 344.072 133.643C344.205 133.54 344.343 133.487 344.485 133.487C344.61 133.505 344.716 133.557 344.805 133.643C344.894 133.73 344.938 133.843 344.938 133.982V134.06L344.912 134.294C344.876 134.831 344.752 135.273 344.538 135.619C344.325 135.966 343.899 136.287 343.259 136.582L343.099 136.659ZM341.74 124.674C341.651 124.847 341.562 125.072 341.473 125.349C341.385 125.627 341.331 125.801 341.314 125.87H341.42C341.669 125.87 341.846 125.861 341.953 125.844L344.218 125.817C344.361 125.801 344.583 125.791 344.885 125.791H345.045C345.169 125.168 345.232 124.561 345.232 123.972C345.232 123.417 345.161 122.914 345.019 122.464C344.805 121.944 344.521 121.684 344.165 121.684C343.97 121.684 343.792 121.719 343.632 121.788C342.975 122.082 342.344 123.044 341.74 124.674Z" fill="#807A6B"/>
<path d="M352.51 136.347C352.474 136.486 352.394 136.612 352.27 136.725C352.145 136.837 352.012 136.894 351.87 136.894C351.745 136.894 351.639 136.85 351.55 136.763C351.461 136.677 351.417 136.564 351.417 136.426V136.347L351.524 135.542L351.577 135.334L351.63 134.944C351.701 134.527 351.745 134.294 351.763 134.241C351.923 133.236 352.119 131.997 352.35 130.524C352.722 127.889 352.91 125.809 352.91 124.283C352.91 123.452 352.865 122.845 352.776 122.463C352.669 121.926 352.518 121.632 352.323 121.579H352.27C352.198 121.579 352.092 121.623 351.95 121.709C351.825 121.779 351.674 121.909 351.497 122.1L351.07 122.489C350.448 123.183 349.853 124.457 349.284 126.312C348.716 128.166 348.272 130.203 347.952 132.421C347.72 133.964 347.605 135.221 347.605 136.191L347.578 136.244C347.56 136.382 347.503 136.503 347.405 136.608C347.308 136.712 347.196 136.763 347.072 136.763H347.019C346.93 136.815 346.832 136.842 346.726 136.842C346.601 136.842 346.49 136.794 346.392 136.699C346.295 136.603 346.246 136.503 346.246 136.4V136.347L346.406 134.762C346.583 133.6 346.947 131.59 347.499 128.73L347.659 127.897C348.262 124.934 348.627 122.966 348.751 121.996L348.885 120.904V120.878C348.902 120.739 348.978 120.618 349.111 120.513C349.244 120.409 349.373 120.357 349.498 120.357C349.64 120.357 349.76 120.405 349.858 120.5C349.955 120.596 350.004 120.704 350.004 120.825V120.878C350.022 120.93 349.995 121.181 349.924 121.632C349.853 122.117 349.8 122.42 349.764 122.542C350.049 122.16 350.217 121.944 350.271 121.891C351.088 120.955 351.808 120.488 352.43 120.488C353.176 120.488 353.656 121.025 353.869 122.1C353.976 122.637 354.029 123.33 354.029 124.18C354.029 125.878 353.833 128.062 353.442 130.732C353.407 131.095 353.309 131.72 353.149 132.603L352.883 134.267C352.829 134.424 352.776 134.657 352.722 134.969L352.669 135.437C352.634 135.472 352.616 135.516 352.616 135.567L352.51 136.347Z" fill="#807A6B"/>
<path d="M359.944 135.048C359.82 135.603 359.5 136.071 358.985 136.452C358.469 136.833 357.91 137.024 357.305 137.024C356.79 137.024 356.377 136.868 356.066 136.556C355.755 136.245 355.6 135.819 355.6 135.282C355.6 135.074 355.608 134.918 355.626 134.814L356.986 125.845L357.599 121.58C357.066 121.58 356.674 121.598 356.426 121.632C356.302 121.632 356.195 121.58 356.106 121.477C356.017 121.372 355.973 121.251 355.973 121.112V121.06L356 121.034C356.017 120.913 356.084 120.8 356.199 120.696C356.315 120.592 356.444 120.54 356.586 120.54C356.71 120.523 357.092 120.514 357.732 120.514L358.132 117.914L358.452 115.834C358.469 115.696 358.54 115.574 358.665 115.47C358.789 115.366 358.922 115.314 359.065 115.314C359.189 115.314 359.3 115.362 359.398 115.457C359.496 115.553 359.545 115.67 359.545 115.808V115.86C359.42 116.657 359.313 117.386 359.225 118.044L358.825 120.514L360.717 120.462C360.859 120.462 360.979 120.506 361.077 120.592C361.175 120.679 361.224 120.792 361.224 120.93V120.982C361.188 121.138 361.117 121.268 361.01 121.372C360.904 121.477 360.771 121.528 360.611 121.528L358.692 121.58L358.078 125.845L356.719 134.996L356.692 135.23C356.692 135.733 356.933 135.984 357.412 135.984C357.59 135.984 357.772 135.949 357.958 135.88C358.145 135.811 358.292 135.733 358.398 135.646C358.647 135.456 358.798 135.221 358.851 134.944C358.887 134.806 358.967 134.689 359.092 134.593C359.216 134.498 359.34 134.45 359.464 134.45C359.606 134.45 359.722 134.498 359.811 134.593C359.9 134.689 359.944 134.806 359.944 134.944V135.048Z" fill="#807A6B"/>
<path d="M365.81 137.103C365.792 137.12 365.739 137.128 365.65 137.128C365.526 137.128 365.419 137.094 365.33 137.025C365.241 136.956 365.188 136.869 365.17 136.765C365.134 136.661 365.099 136.34 365.063 135.803C364.744 136.149 364.384 136.418 363.984 136.609C363.584 136.8 363.198 136.895 362.825 136.895C362.327 136.895 361.927 136.721 361.625 136.374C361.181 135.941 360.959 135.196 360.959 134.139C360.959 133.723 360.986 133.307 361.039 132.891C361.199 131.781 361.523 130.702 362.012 129.654C362.5 128.605 363.056 127.821 363.677 127.301C364.193 126.902 364.682 126.703 365.144 126.703C365.481 126.703 365.828 126.807 366.183 127.015C366.396 125.628 366.538 124.588 366.609 123.895C366.68 123.184 366.716 122.63 366.716 122.231C366.716 121.902 366.685 121.667 366.623 121.529C366.561 121.39 366.459 121.295 366.316 121.243C366.316 121.208 366.29 121.191 366.236 121.191C366.059 121.191 365.828 121.312 365.543 121.555C365.295 121.728 364.886 122.127 364.318 122.751C364.211 122.889 364.06 122.958 363.864 122.958C363.776 122.958 363.673 122.915 363.558 122.829C363.442 122.742 363.384 122.63 363.384 122.491V122.439C363.384 122.335 363.438 122.222 363.545 122.101C364.717 120.783 365.668 120.125 366.396 120.125C366.841 120.125 367.191 120.307 367.449 120.671C367.707 121.035 367.835 121.546 367.835 122.204C367.835 122.881 367.711 124.042 367.463 125.689L367.036 128.601L366.956 129.095L366.769 130.447C366.485 132.458 366.316 133.766 366.263 134.373C366.228 134.72 366.21 135.162 366.21 135.699C366.21 136.046 366.219 136.279 366.236 136.401C366.254 136.418 366.263 136.47 366.263 136.557C366.228 136.678 366.17 136.791 366.09 136.895C366.01 136.999 365.917 137.068 365.81 137.103ZM362.078 134.035C362.078 135.318 362.434 135.907 363.145 135.803C363.517 135.716 363.864 135.53 364.184 135.244C364.504 134.958 364.832 134.546 365.17 134.009L365.25 133.619C365.268 133.237 365.392 132.284 365.623 130.759L365.864 129.095L365.97 128.392C365.615 127.994 365.295 127.795 365.01 127.795C364.779 127.795 364.539 127.908 364.29 128.133C363.829 128.497 363.393 129.138 362.985 130.057C362.576 130.975 362.301 131.937 362.159 132.943C362.105 133.307 362.078 133.671 362.078 134.035Z" fill="#807A6B"/>
<path d="M373.352 135.048C373.228 135.603 372.908 136.071 372.393 136.452C371.877 136.833 371.318 137.024 370.714 137.024C370.198 137.024 369.785 136.868 369.474 136.556C369.163 136.245 369.008 135.819 369.008 135.282C369.008 135.074 369.016 134.918 369.034 134.814L370.394 125.845L371.007 121.58C370.473 121.58 370.083 121.598 369.834 121.632C369.71 121.632 369.603 121.58 369.514 121.477C369.425 121.372 369.381 121.251 369.381 121.112V121.06L369.407 121.034C369.425 120.913 369.492 120.8 369.608 120.696C369.723 120.592 369.852 120.54 369.994 120.54C370.118 120.523 370.501 120.514 371.14 120.514L371.54 117.914L371.86 115.834C371.877 115.696 371.948 115.574 372.073 115.47C372.197 115.366 372.331 115.314 372.473 115.314C372.597 115.314 372.708 115.362 372.806 115.457C372.904 115.553 372.952 115.67 372.952 115.808V115.86C372.828 116.657 372.721 117.386 372.633 118.044L372.233 120.514L374.125 120.462C374.267 120.462 374.387 120.506 374.485 120.592C374.583 120.679 374.632 120.792 374.632 120.93V120.982C374.596 121.138 374.525 121.268 374.419 121.372C374.312 121.477 374.178 121.528 374.019 121.528L372.1 121.58L371.487 125.845L370.127 134.996L370.101 135.23C370.101 135.733 370.341 135.984 370.82 135.984C370.998 135.984 371.18 135.949 371.367 135.88C371.553 135.811 371.7 135.733 371.806 135.646C372.055 135.456 372.207 135.221 372.26 134.944C372.295 134.806 372.375 134.689 372.5 134.593C372.624 134.498 372.748 134.45 372.873 134.45C373.015 134.45 373.13 134.498 373.219 134.593C373.308 134.689 373.352 134.806 373.352 134.944V135.048Z" fill="#807A6B"/>
<path d="M375.911 136.374C375.875 136.513 375.796 136.634 375.671 136.739C375.547 136.843 375.404 136.895 375.244 136.895C375.12 136.895 375.013 136.851 374.924 136.764C374.835 136.678 374.791 136.565 374.791 136.427V136.348L375.111 134.242C375.165 133.983 375.204 133.736 375.231 133.501C375.257 133.268 375.289 133.055 375.324 132.864L375.938 128.21C375.955 128.089 375.973 127.972 375.991 127.86C376.009 127.747 376.017 127.63 376.017 127.509L376.071 127.093L376.124 126.755L376.604 122.829L376.817 121.061C376.835 120.922 376.91 120.8 377.044 120.696C377.177 120.593 377.314 120.54 377.457 120.54C377.599 120.54 377.71 120.58 377.79 120.657C377.87 120.736 377.91 120.844 377.91 120.982V121.061C377.625 123.435 377.395 125.324 377.217 126.728L377.164 127.041L377.11 127.482C377.11 127.604 377.101 127.725 377.083 127.847C377.065 127.968 377.048 128.089 377.03 128.21C376.853 129.718 376.622 131.495 376.337 133.541L375.911 136.374ZM378.629 117.889C378.558 118.079 378.452 118.239 378.31 118.37C378.168 118.5 378.016 118.564 377.856 118.564H377.75C377.484 118.564 377.279 118.461 377.137 118.252C377.065 118.045 377.03 117.915 377.03 117.863V117.784L377.057 117.68C377.093 117.524 377.128 117.412 377.164 117.342C377.377 117.048 377.652 116.9 377.99 116.9C378.221 116.9 378.407 116.948 378.55 117.043C378.692 117.139 378.763 117.282 378.763 117.473C378.763 117.559 378.754 117.628 378.736 117.68C378.683 117.733 378.647 117.793 378.629 117.863V117.889Z" fill="#807A6B"/>
<path d="M382.414 136.659C381.917 136.85 381.508 136.945 381.188 136.945C380.246 136.945 379.584 136.478 379.202 135.542C378.82 134.606 378.629 133.453 378.629 132.084C378.629 131.044 378.7 130.064 378.843 129.145C379.127 127.169 379.598 125.389 380.255 123.803C380.913 122.216 381.712 121.216 382.654 120.8C383.08 120.661 383.409 120.592 383.64 120.592C384.298 120.592 384.799 120.886 385.146 121.476C385.493 122.065 385.666 122.845 385.666 123.816C385.666 124.301 385.63 124.751 385.559 125.168C385.541 125.341 385.47 125.74 385.346 126.364C385.31 126.502 385.231 126.619 385.106 126.714C384.982 126.81 384.857 126.857 384.733 126.857H384.519H384.066C383.782 126.857 383.569 126.866 383.427 126.883L381.108 126.91C380.93 126.944 380.761 126.962 380.601 126.962H380.415H380.335C380.086 128.088 379.935 128.86 379.882 129.275C379.758 130.108 379.695 130.966 379.695 131.849C379.695 133.063 379.846 134.042 380.148 134.788C380.45 135.516 380.868 135.879 381.401 135.879C381.543 135.879 381.641 135.871 381.694 135.854L381.801 135.802C381.801 135.802 381.819 135.784 381.854 135.749C382.423 135.576 382.805 135.342 383 135.048C383.072 134.805 383.107 134.588 383.107 134.397L383.161 134.008C383.178 133.869 383.253 133.748 383.387 133.643C383.52 133.54 383.658 133.487 383.8 133.487C383.924 133.505 384.031 133.557 384.12 133.643C384.209 133.73 384.253 133.843 384.253 133.982V134.06L384.226 134.294C384.191 134.831 384.066 135.273 383.853 135.619C383.64 135.966 383.214 136.287 382.574 136.582L382.414 136.659ZM381.055 124.674C380.966 124.847 380.877 125.072 380.788 125.349C380.699 125.627 380.646 125.801 380.628 125.87H380.735C380.984 125.87 381.161 125.861 381.268 125.844L383.533 125.817C383.675 125.801 383.898 125.791 384.2 125.791H384.36C384.484 125.168 384.547 124.561 384.547 123.972C384.547 123.417 384.475 122.914 384.333 122.464C384.12 121.944 383.835 121.684 383.48 121.684C383.285 121.684 383.107 121.719 382.947 121.788C382.289 122.082 381.658 123.044 381.055 124.674Z" fill="#807A6B"/>
<path d="M158.965 108.284H158.323L158.066 108.216H157.874L157.745 108.148H157.553L157.36 108.012H157.103L157.039 107.944C156.697 107.898 156.429 107.74 156.237 107.467C156.044 107.195 155.969 106.877 156.012 106.514C156.183 104.834 156.269 102.496 156.269 99.5002V96.7762C156.269 95.5052 156.226 94.3252 156.14 93.2352C156.098 91.4652 156.076 89.5132 156.076 87.3792V78.0502V72.0582C156.076 62.0252 156.14 54.0132 156.269 48.0202C156.269 47.6572 156.408 47.3392 156.686 47.0672C156.964 46.7942 157.274 46.6582 157.617 46.6582C157.959 46.6582 158.259 46.8062 158.516 47.1012C158.772 47.3962 158.901 47.7252 158.901 48.0882C158.901 49.7682 158.879 51.0622 158.837 51.9702C158.751 59.1422 158.708 65.8382 158.708 72.0582V87.3792C158.708 89.4672 158.751 91.3972 158.837 93.1672C158.879 94.2112 158.901 95.4142 158.901 96.7762V99.2962C158.901 101.656 158.837 103.722 158.708 105.492H159.029C159.757 105.492 160.292 105.515 160.634 105.561H163.138C165.149 105.606 166.604 105.583 167.503 105.492H167.631C167.974 105.492 168.273 105.606 168.53 105.833C168.787 106.06 168.937 106.332 168.98 106.65V106.922C168.98 107.286 168.873 107.592 168.659 107.842C168.445 108.091 168.188 108.239 167.888 108.284C167.075 108.421 165.492 108.466 163.138 108.421H160.57C160.185 108.33 159.65 108.284 158.965 108.284Z" fill="#E07B53"/>
<path d="M173.793 108.455C173.537 108.159 173.408 107.83 173.408 107.467C173.665 103.654 173.793 99.2961 173.793 94.3931V91.3291V87.9921C173.793 83.3161 173.815 79.3891 173.858 76.2121V70.5601C173.9 68.9711 173.922 66.6781 173.922 63.6821C173.922 56.8731 173.772 51.4021 173.472 47.2711C173.472 46.9081 173.601 46.5791 173.858 46.2841C174.114 45.9891 174.414 45.7961 174.756 45.7051C175.099 45.7051 175.409 45.8411 175.687 46.1141C175.965 46.3861 176.104 46.7041 176.104 47.0671C176.404 50.8351 176.554 56.7591 176.554 64.8401V76.2121C176.554 77.3461 176.532 78.1861 176.49 78.7311L176.425 88.3321V91.3291L176.49 95.2101C176.49 99.2501 176.34 103.381 176.04 107.603C175.997 108.012 175.848 108.341 175.591 108.591C175.334 108.84 175.034 108.943 174.692 108.897C174.35 108.897 174.05 108.75 173.793 108.455Z" fill="#E07B53"/>
<path d="M190.004 107.842C189.768 107.637 189.629 107.354 189.587 106.991L189.522 106.854C189.052 104.04 188.474 100.158 187.789 95.2104C187.704 94.6204 187.532 93.3944 187.276 91.5334C187.062 89.5354 186.591 86.2224 185.863 81.5914L184.643 72.8754L183.745 66.7464C182.76 59.7104 181.819 53.5594 180.92 48.2934V48.1564C180.92 47.7934 181.027 47.4644 181.241 47.1694C181.455 46.8744 181.733 46.7044 182.076 46.6584H182.204C182.504 46.6584 182.792 46.7604 183.071 46.9654C183.349 47.1694 183.509 47.4304 183.552 47.7484C184.622 54.5124 185.564 60.7094 186.377 66.3384L187.276 72.5344L188.174 78.9354L189.908 91.1244L190.742 96.9124C190.785 96.5954 190.849 96.1974 190.935 95.7214C191.02 95.2444 191.085 94.6884 191.127 94.0524C191.555 91.5104 191.855 89.5814 192.026 88.2644L192.475 85.2004C192.775 83.3394 192.946 82.3634 192.989 82.2724L195.043 68.0404C195.3 65.9524 195.685 63.5914 196.199 60.9584L196.712 57.8944C196.884 56.8954 197.012 56.1694 197.098 55.7154C197.183 55.2614 197.247 54.9434 197.29 54.7624L197.868 51.1534L198.446 47.5444C198.488 47.1804 198.638 46.8854 198.895 46.6584C199.152 46.4314 199.451 46.3184 199.794 46.3184C200.179 46.3184 200.5 46.4884 200.757 46.8294C201.014 47.1694 201.121 47.5444 201.078 47.9524L200.693 50.4044C200.436 51.4934 200.158 53.1054 199.858 55.2384L199.216 59.0524C198.916 60.4134 198.767 61.2314 198.767 61.5034C198.253 64.5454 197.889 66.8604 197.675 68.4494C197.247 71.8084 196.67 75.7124 195.942 80.1614L195.557 82.7494L195.364 84.1794L195.107 85.6774C195.022 86.3124 194.872 87.3564 194.658 88.8094L194.016 92.8954L193.759 94.5294C193.032 99.4774 192.497 103.586 192.154 106.854C192.154 107.172 192.026 107.467 191.769 107.74C191.512 108.012 191.213 108.148 190.871 108.148C190.528 108.148 190.239 108.046 190.004 107.842Z" fill="#E07B53"/>
<path d="M205.891 108.455C205.635 108.159 205.506 107.83 205.506 107.467C205.763 103.654 205.891 99.2961 205.891 94.3931V91.3291V87.9921C205.891 83.3161 205.913 79.3891 205.956 76.2121V70.5601C205.998 68.9711 206.02 66.6781 206.02 63.6821C206.02 56.8731 205.87 51.4021 205.57 47.2711C205.57 46.9081 205.699 46.5791 205.956 46.2841C206.212 45.9891 206.512 45.7961 206.854 45.7051C207.197 45.7051 207.507 45.8411 207.785 46.1141C208.063 46.3861 208.203 46.7041 208.203 47.0671C208.502 50.8351 208.652 56.7591 208.652 64.8401V76.2121C208.652 77.3461 208.63 78.1861 208.588 78.7311L208.523 88.3321V91.3291L208.588 95.2101C208.588 99.2501 208.438 103.381 208.138 107.603C208.096 108.012 207.946 108.341 207.689 108.591C207.432 108.84 207.133 108.943 206.79 108.897C206.448 108.897 206.148 108.75 205.891 108.455Z" fill="#E07B53"/>
<path d="M214.879 108.455C214.622 108.205 214.494 107.898 214.494 107.535C214.365 104.584 214.301 101.271 214.301 97.5926C214.301 92.9176 214.387 88.3096 214.558 83.7696C214.601 83.2246 214.622 82.1126 214.622 80.4326L214.686 77.1646C214.986 68.4026 215.157 62.6606 215.2 59.9366V58.8466V58.2336C215.157 57.9616 215.136 57.6216 215.136 57.2126V53.8076C215.093 53.1266 215.072 52.2186 215.072 51.0836C215.072 49.6766 215.136 48.6326 215.264 47.9516C215.392 46.9076 215.82 46.3176 216.548 46.1816H216.741C217.083 46.1816 217.404 46.3406 217.704 46.6576C218.046 46.9756 218.335 47.6566 218.57 48.7006C218.806 49.7446 219.094 51.2886 219.437 53.3316V53.3996H219.501V53.4676H219.437C219.522 54.1486 219.587 54.5346 219.629 54.6246C220.057 57.4396 221.063 63.3866 222.647 72.4656C222.689 72.6476 222.732 72.8516 222.775 73.0786C222.818 73.3056 222.861 73.5786 222.903 73.8956C223.717 78.3446 224.38 82.2486 224.894 85.6086L225.086 85.5406L225.022 82.8846C225.022 81.7946 225.108 78.0726 225.279 71.7166C225.279 70.6276 225.321 68.6756 225.407 65.8606L225.535 60.3446C225.664 54.6246 225.728 50.3806 225.728 47.6116C225.728 47.2476 225.856 46.9306 226.113 46.6576C226.37 46.3856 226.67 46.2496 227.012 46.2496C227.269 46.2496 227.526 46.3856 227.782 46.6576C228.039 46.9306 228.168 47.2476 228.168 47.6116C228.168 52.0596 228.061 58.1656 227.847 65.9286L227.782 70.8996C227.654 76.0746 227.59 80.2286 227.59 83.3616C227.59 85.3136 227.611 86.6526 227.654 87.3786V91.5326C227.568 91.7146 227.526 92.1906 227.526 92.9626C227.483 93.8246 227.461 95.1646 227.461 96.9806C227.461 100.068 227.59 103.245 227.847 106.514C227.847 106.922 227.729 107.252 227.493 107.501C227.258 107.751 227.012 107.876 226.755 107.876H226.627C226.284 107.876 225.996 107.751 225.76 107.501C225.525 107.252 225.407 106.968 225.407 106.65C225.321 106.514 225.279 106.219 225.279 105.765V105.697C225.279 105.697 225.236 105.561 225.15 105.288C224.936 102.383 224.498 98.8076 223.834 94.5626C223.171 90.3186 222.026 83.6106 220.4 74.4406C220.357 74.1226 220.314 73.8396 220.271 73.5896C220.229 73.3396 220.186 73.1246 220.143 72.9426C219.758 70.8996 219.448 69.1296 219.212 67.6316C218.977 66.1326 218.773 64.8616 218.602 63.8176C218.431 62.9556 218.292 62.1386 218.185 61.3666C218.078 60.5946 217.96 59.8906 217.832 59.2556H217.704V59.9366C217.618 62.0246 217.575 63.8406 217.575 65.3836L217.19 77.2326L217.126 80.5016C217.126 82.1806 217.104 83.2926 217.062 83.8376C216.89 88.5586 216.805 93.3936 216.805 98.3416C216.805 100.794 216.848 103.835 216.933 107.467C216.933 107.83 216.815 108.148 216.58 108.421C216.345 108.693 216.077 108.829 215.778 108.829C215.435 108.829 215.136 108.704 214.879 108.455Z" fill="#E07B53"/>
<path d="M237.155 108.012C236.427 107.513 235.871 106.366 235.486 104.573C235.101 102.78 234.801 100.363 234.587 97.3207C234.116 92.1457 233.881 85.1767 233.881 76.4157C233.881 70.0147 234.009 64.2947 234.266 59.2557C234.437 56.2137 234.641 53.8197 234.876 52.0717C235.111 50.3237 235.4 49.1997 235.743 48.7007C237.027 46.6577 239.017 45.6367 241.713 45.6367C243.082 45.6367 244.067 46.1587 244.666 47.2027C245.265 48.2467 245.672 49.7447 245.886 51.6967C245.971 51.8787 246.014 52.1287 246.014 52.4457L246.078 53.1947C246.164 53.5587 246.207 53.8307 246.207 54.0127C246.207 54.2847 246.1 54.5567 245.886 54.8297C245.629 55.2377 245.287 55.4427 244.859 55.4427C244.602 55.4427 244.345 55.3517 244.088 55.1697C243.746 54.8977 243.575 54.5797 243.575 54.2167L243.446 52.7867C243.361 52.6047 243.318 52.3557 243.318 52.0377C243.147 50.7667 242.911 49.7907 242.612 49.1097C242.483 48.9277 242.355 48.7687 242.227 48.6327C242.098 48.4967 241.927 48.4287 241.713 48.4287C239.958 48.4287 238.674 49.0417 237.861 50.2667C237.818 50.3127 237.776 50.5397 237.733 50.9477C237.69 51.0837 237.636 51.3447 237.572 51.7307C237.508 52.1167 237.455 52.4917 237.412 52.8547L237.027 57.6217L236.898 59.4597C236.684 64.8167 236.577 70.3327 236.577 76.0067C236.577 84.3597 236.77 91.3737 237.155 97.0487C237.369 99.0907 237.647 101.225 237.99 103.45C238.075 104.04 238.225 104.653 238.439 105.288L238.696 105.765C239.252 106.219 239.744 106.446 240.172 106.446C240.557 106.446 240.9 106.264 241.199 105.901C241.499 105.538 241.82 104.97 242.162 104.199C243.104 101.566 243.789 97.7747 244.217 92.8267C244.217 92.4177 244.259 91.7147 244.345 90.7157L244.538 87.7197C244.58 87.5827 244.612 87.3787 244.634 87.1067C244.655 86.8337 244.687 86.5167 244.73 86.1527C244.73 85.2447 244.752 84.5647 244.794 84.1107V83.0887L244.923 80.6377C245.094 78.7757 245.18 76.1887 245.18 72.8747C245.18 71.3767 245.137 69.9007 245.051 68.4487C245.051 68.1757 244.987 67.6997 244.859 67.0187C244.645 67.0187 244.281 67.0637 243.767 67.1547C243.639 67.2457 243.521 67.2907 243.414 67.2907C243.307 67.2907 243.211 67.3137 243.125 67.3587L241.392 67.7677C241.306 67.8127 241.199 67.8357 241.071 67.8357C240.814 67.8357 240.579 67.7217 240.365 67.4947C240.151 67.2677 240.001 66.9957 239.915 66.6777C239.873 66.5867 239.851 66.4737 239.851 66.3377C239.851 66.0647 239.948 65.8037 240.14 65.5547C240.333 65.3047 240.579 65.1347 240.878 65.0437L241.199 64.9757C241.285 64.9297 241.381 64.9077 241.488 64.9077C241.595 64.9077 241.734 64.8617 241.906 64.7717C242.333 64.6347 242.526 64.5897 242.483 64.6347C242.569 64.5897 242.665 64.5667 242.772 64.5667C242.879 64.5667 243.018 64.5217 243.189 64.4307C243.917 64.2947 244.473 64.2267 244.859 64.2267C244.987 64.1807 245.201 64.1587 245.501 64.1587C246.057 64.1587 246.506 64.3627 246.849 64.7717C247.277 65.3157 247.544 66.2237 247.651 67.4947C247.758 68.7657 247.812 70.5597 247.812 72.8747C247.812 76.0527 247.747 78.7307 247.619 80.9097C247.576 81.1817 247.533 81.5797 247.491 82.1017C247.448 82.6237 247.426 83.0207 247.426 83.2927V84.3147L247.298 86.3577C247.212 86.8567 247.17 87.3557 247.17 87.8557C247.127 89.5347 247.02 91.2607 246.849 93.0307C246.421 98.4787 245.65 102.564 244.538 105.288C243.425 107.967 241.991 109.306 240.236 109.306C239.252 109.306 238.225 108.874 237.155 108.012Z" fill="#E07B53"/>
<path d="M271.816 108.287C270.903 108.429 269.369 108.476 267.212 108.429H264.724C264.226 108.334 263.708 108.287 263.169 108.287H262.547L262.298 108.216H262.111L261.987 108.145H261.8L261.614 108.003H261.365V107.932C261.075 107.885 260.857 107.755 260.712 107.542C260.567 107.329 260.494 107.081 260.494 106.797V106.442C260.909 104.834 261.303 102.397 261.676 99.1335L262.049 96.2945C262.215 94.3555 262.319 93.1245 262.36 92.6045L263.045 86.5014L264.226 76.7795L265.035 70.5345C266.072 61.9715 267.15 53.6215 268.27 45.4845C268.311 45.1055 268.488 44.7745 268.799 44.4905C269.11 44.2065 269.431 44.0645 269.763 44.0645C270.053 44.0645 270.302 44.1835 270.509 44.4195C270.717 44.6565 270.82 44.9635 270.82 45.3425V45.5555C270.613 47.3525 270.426 48.7015 270.26 49.6005C269.016 59.0625 268.125 66.0405 267.586 70.5345L266.777 76.7795L265.595 86.5014L264.973 92.5335L264.786 94.5205L264.6 96.2945L264.226 98.9205C263.936 101.333 263.625 103.485 263.293 105.378H263.604C264.434 105.378 264.931 105.401 265.097 105.449H267.523C269.016 105.496 270.447 105.472 271.816 105.378H271.94C272.272 105.378 272.541 105.496 272.749 105.732C272.956 105.969 273.06 106.253 273.06 106.584V106.868C273.018 107.246 272.873 107.566 272.624 107.826C272.375 108.086 272.106 108.24 271.816 108.287Z" fill="#E07B53"/>
<path d="M287.929 107.152C287.887 107.53 287.732 107.861 287.462 108.145C287.193 108.429 286.892 108.571 286.56 108.571L278.722 108.429C278.474 108.429 278.245 108.287 278.038 108.003C277.831 107.719 277.727 107.412 277.727 107.081V106.868C277.727 106.679 277.769 106.537 277.852 106.442C279.593 92.5798 281.936 72.3558 284.881 45.7678C284.922 45.1528 285.233 44.7028 285.814 44.4188L286.311 44.2768C287.556 44.3248 289.567 44.2768 292.345 44.1348H294.087C294.336 44.1348 294.564 44.2538 294.771 44.4898C294.979 44.7268 295.082 45.0108 295.082 45.3418V45.4838C295.041 45.8618 294.875 46.2048 294.585 46.5128C294.295 46.8198 294.004 46.9738 293.714 46.9738C293.548 47.0688 293.299 47.1158 292.967 47.1158H292.532H292.097L287.12 47.2578C286.498 53.0298 285.606 60.6938 284.445 70.2498C284.611 70.2028 285.005 70.1788 285.627 70.1788C286.374 70.1788 286.851 70.2028 287.058 70.2498H288.426C289.339 70.2498 289.795 70.6288 289.795 71.3858V71.7408C289.754 72.1188 289.588 72.4618 289.297 72.7698C289.007 73.0768 288.717 73.2308 288.426 73.2308C288.302 73.1838 287.991 73.1598 287.493 73.1598H286.622C286.457 73.1128 286.021 73.0888 285.316 73.0888C284.736 73.0888 284.342 73.1128 284.134 73.1598C283.18 81.8648 281.916 92.6508 280.34 105.52C282.828 105.614 285.026 105.662 286.934 105.662C287.182 105.662 287.41 105.792 287.618 106.052C287.825 106.312 287.929 106.608 287.929 106.939V107.152Z" fill="#E07B53"/>
<path d="M294.148 107.507C294.065 107.838 293.889 108.133 293.62 108.394C293.35 108.654 293.07 108.784 292.78 108.784C292.448 108.784 292.179 108.642 291.971 108.358C291.764 108.074 291.66 107.743 291.66 107.365V107.152L294.273 96.0806C294.646 94.3776 295.061 92.7216 295.517 91.1136C297.673 81.6516 299.871 73.0176 302.111 65.2116L303.79 59.2506L304.288 57.1926C305.656 52.0826 306.838 48.3926 307.834 46.1216C307.999 45.5066 308.248 45.0336 308.58 44.7026C308.87 44.2766 309.202 44.0166 309.575 43.9226L309.886 43.8516C310.343 43.8516 310.654 44.0636 310.819 44.4896C311.193 45.1996 311.483 48.8426 311.69 55.4186L311.753 58.2566C311.877 67.3406 311.96 73.2066 312.001 75.8556C312.043 75.9036 312.064 76.0456 312.064 76.2816C312.064 76.3766 312.053 76.4716 312.032 76.5656C312.012 76.6606 312.022 76.7786 312.064 76.9206L312.25 94.9456C312.292 95.5606 312.312 96.4356 312.312 97.5716C312.395 101.877 312.52 104.999 312.686 106.939V107.152C312.644 107.53 312.52 107.861 312.312 108.145C312.105 108.429 311.856 108.595 311.566 108.642C311.524 108.689 311.4 108.713 311.193 108.713C310.488 108.713 310.135 108.358 310.135 107.649C309.886 105.614 309.7 99.6526 309.575 89.7646L309.513 85.0106L309.389 77.3466C309.389 76.9206 309.409 76.5656 309.451 76.2816L309.327 75.1466C308.829 75.0516 307.958 75.0046 306.714 75.0046C306.133 75.0046 305.387 75.0516 304.475 75.1466H302.36H301.986L297.943 91.4686L297.445 93.6686L296.761 96.4356C295.973 100.126 295.102 103.816 294.148 107.507ZM303.417 69.8946C303.085 71.1256 302.878 71.8816 302.795 72.1656H304.723C305.138 72.1186 305.905 72.0946 307.025 72.0946C308.269 72.0946 309.036 72.1186 309.327 72.1656C309.244 64.2176 309.161 58.8246 309.078 55.9856L308.829 50.3796C308.082 52.6976 307.398 55.1106 306.776 57.6186L306.216 59.7476L305.656 61.8766C305.076 64.0996 304.723 65.3766 304.599 65.7086C304.35 66.4176 303.956 67.8136 303.417 69.8946Z" fill="#E07B53"/>
<path d="M326.744 106.798C326.661 107.129 326.485 107.437 326.215 107.72C325.946 108.004 325.645 108.146 325.313 108.146C324.567 108.146 324.194 107.744 324.194 106.94V106.798L324.007 94.6629L323.945 90.8309V88.6309C323.945 85.4609 323.924 82.7409 323.883 80.4699L323.82 71.3869L323.758 64.9999C323.675 57.6199 323.551 51.2089 323.385 45.7689V45.6269C323.426 45.2479 323.572 44.9049 323.82 44.5979C324.069 44.2899 324.36 44.1129 324.691 44.0649H324.816C325.106 44.0649 325.376 44.1719 325.624 44.3849C325.873 44.5979 325.998 44.8699 325.998 45.2009C326.122 49.6479 326.226 56.1059 326.309 64.5739L326.433 71.0319V77.7029L326.557 90.4049L326.62 96.4369L326.993 95.1599L327.366 93.4569C327.449 93.1249 327.822 91.7059 328.486 89.1989L328.984 87.4249L329.792 84.2309C330.041 83.3799 330.228 82.6939 330.352 82.1729C330.476 81.6529 330.58 81.3219 330.663 81.1799L334.52 66.3479C334.893 64.6919 335.557 62.2319 336.51 58.9679L337.443 55.7749L338.066 53.5039L338.377 52.5099L339.434 48.7489L340.429 44.9879C340.512 44.6099 340.699 44.3019 340.989 44.0649C341.279 43.8289 341.591 43.7109 341.922 43.7109C342.213 43.7109 342.461 43.8409 342.669 44.1009C342.876 44.3609 342.98 44.6569 342.98 44.9879L342.918 45.4139L342.233 47.9689C342.067 48.3939 341.922 48.8559 341.798 49.3519C341.673 49.8489 341.528 50.3579 341.362 50.8779C341.279 51.2569 341.186 51.6229 341.083 51.9779C340.979 52.3329 340.886 52.6759 340.803 53.0069L339.683 56.9809L338.936 59.5359L338.377 61.5939C337.879 63.3909 337.423 65.1179 337.008 66.7739C335.971 70.8899 334.914 74.9589 333.836 78.9799L333.151 81.6769L332.778 83.1669L332.28 84.7279C332.28 84.8229 332.011 85.9109 331.472 87.9919L330.352 92.2499L329.854 93.9529C328.361 99.9139 327.325 104.196 326.744 106.798Z" fill="#E07B53"/>
<path d="M340.679 108.925C340.389 108.925 340.13 108.795 339.902 108.535C339.674 108.274 339.559 107.955 339.559 107.577V107.435C340.306 103.461 340.99 98.9193 341.612 93.8093L342.048 90.6163L342.483 87.1393C343.105 81.8403 343.624 77.7483 344.038 74.8623L344.785 68.9723C345.034 67.4113 345.345 65.0223 345.718 61.8053C346.589 54.7083 347.149 49.0073 347.397 44.7023C347.439 44.3243 347.594 43.9813 347.864 43.6733C348.133 43.3663 348.455 43.1653 348.828 43.0703C349.16 43.0703 349.429 43.1883 349.637 43.4253C349.844 43.6613 349.948 43.9453 349.948 44.2763V44.4893C349.782 48.3693 349.16 54.5433 348.082 63.0113L347.397 68.9723L346.651 74.8623C346.526 76.0453 346.402 76.9203 346.278 77.4883L344.971 87.4943L344.598 90.6163L344.163 94.6613C343.458 99.9123 342.773 104.218 342.11 107.577C342.068 107.955 341.913 108.274 341.643 108.535C341.374 108.795 341.094 108.925 340.804 108.925H340.679Z" fill="#E07B53"/>
<path d="M350.632 107.436C350.591 107.814 350.445 108.145 350.197 108.429C349.948 108.713 349.678 108.855 349.388 108.855C349.056 108.855 348.787 108.737 348.579 108.5C348.372 108.264 348.268 107.98 348.268 107.649V107.507C348.517 104.384 348.89 100.931 349.388 97.1464C350.134 91.0904 350.798 86.2884 351.379 82.7404C351.503 82.3624 351.669 81.2024 351.876 79.2634L352.374 75.8564L354.613 61.1674L355.111 57.9034L355.235 56.7674L355.297 56.1284C355.297 55.7034 355.318 55.3484 355.36 55.0644L355.795 51.5164C355.92 50.2384 356.023 49.2924 356.106 48.6774C356.355 46.8324 356.593 45.5554 356.822 44.8454C357.05 44.1354 357.495 43.7104 358.159 43.5684H358.346C358.677 43.5684 358.968 43.7334 359.216 44.0644C359.507 44.4904 359.714 45.2004 359.838 46.1934L360.025 51.0194V51.0904H360.087V51.1614H360.025C360.025 51.9184 360.046 52.3204 360.087 52.3674C360.212 58.7074 360.419 64.9044 360.709 70.9604L360.772 72.4504C360.896 74.4374 361 77.3474 361.083 81.1794L361.207 84.6564L361.394 84.5854L361.642 81.8174C361.767 80.5874 362.327 76.7084 363.322 70.1794C363.571 68.5714 363.861 66.5374 364.193 64.0764L365.064 58.3284C365.603 54.5444 366.204 50.1204 366.868 45.0584C366.951 44.6804 367.127 44.3484 367.396 44.0644C367.666 43.7814 367.967 43.6394 368.298 43.6394C368.547 43.6394 368.765 43.7574 368.952 43.9944C369.138 44.2304 369.232 44.5144 369.232 44.8454V45.0584C368.858 48.1334 367.967 54.4964 366.557 64.1474L365.872 69.3284C365.458 72.2144 364.856 76.5424 364.068 82.3144C363.778 84.7274 363.633 86.1234 363.633 86.5014L363.073 90.8304C362.949 91.2084 362.845 91.7054 362.762 92.3204L362.202 96.5074C361.788 100.008 361.497 103.32 361.331 106.442C361.29 106.868 361.145 107.211 360.896 107.471C360.647 107.731 360.398 107.861 360.15 107.861H360.025C359.735 107.861 359.486 107.743 359.279 107.507C359.071 107.27 358.968 107.01 358.968 106.726V106.584C358.926 106.442 358.926 106.135 358.968 105.662V105.591C358.968 105.591 358.957 105.555 358.937 105.484C358.916 105.413 358.905 105.307 358.905 105.165C359.03 103.225 359.092 101.025 359.092 98.5654L359.03 93.9524C358.905 89.6474 358.657 82.6694 358.283 73.0184L358.221 71.4574C358.097 69.3284 358.035 67.4834 358.035 65.9214C357.952 63.8404 357.91 62.5154 357.91 61.9474C357.827 61.1914 357.786 60.6704 357.786 60.3864L357.848 59.3934L357.724 57.1934H357.599L357.537 57.9034L356.915 62.0184C356.832 62.3974 356.749 62.9174 356.666 63.5804L354.8 75.9274L354.302 79.3344C354.136 80.8954 353.97 82.0544 353.805 82.8114C353.224 86.6904 352.519 91.7294 351.69 97.9264L350.632 107.436Z" fill="#E07B53"/>
<path d="M377.691 105.165C376.322 107.956 374.767 109.352 373.025 109.352C371.947 109.352 371.045 108.961 370.319 108.181C369.593 107.4 369.168 106.135 369.044 104.384C368.961 103.769 368.92 102.681 368.92 101.12C368.92 99.322 368.961 97.903 369.044 96.862C369.334 90.759 370.018 83.497 371.097 75.076C371.843 68.878 372.693 62.917 373.647 57.193C374.228 53.834 374.746 51.326 375.202 49.671C375.576 47.968 375.99 46.808 376.446 46.193C377.939 44.064 379.992 43 382.605 43C383.89 43 384.772 43.52 385.248 44.561C385.725 45.602 385.943 47.187 385.902 49.316C385.902 49.363 385.912 49.47 385.933 49.635C385.953 49.801 385.943 49.955 385.902 50.096V51.729C385.86 52.06 385.694 52.391 385.404 52.722C385.114 53.053 384.782 53.219 384.409 53.219C384.118 53.219 383.859 53.112 383.631 52.9C383.403 52.687 383.289 52.391 383.289 52.012V51.942L383.351 50.451C383.351 50.404 383.341 50.298 383.32 50.132C383.299 49.966 383.31 49.813 383.351 49.671C383.351 48.204 383.248 47.187 383.04 46.619C382.791 46.146 382.522 45.91 382.232 45.91C380.531 45.91 379.225 46.548 378.313 47.826C378.271 47.873 378.23 47.968 378.188 48.109C378.147 48.251 378.105 48.393 378.064 48.535C378.022 48.724 377.95 48.985 377.846 49.316C377.742 49.647 377.628 50.049 377.504 50.522L376.509 55.49L376.198 57.406C375.368 62.468 374.539 68.216 373.709 74.65C372.714 83.024 372.009 90.333 371.594 96.578L371.532 99.842L371.594 103.249C371.594 103.864 371.657 104.502 371.781 105.165L371.968 105.662C372.424 106.135 372.88 106.371 373.336 106.371C373.709 106.371 374.051 106.194 374.363 105.839C374.674 105.484 375.057 104.881 375.513 104.029C376.633 101.617 377.794 97.666 378.997 92.178L379.37 89.978L379.93 86.856C380.013 86.761 380.065 86.655 380.085 86.537C380.106 86.418 380.137 86.312 380.179 86.217C380.179 86.028 380.22 85.697 380.303 85.224C380.428 84.278 380.552 83.568 380.676 83.095L380.801 82.03L381.236 79.476C381.568 77.962 381.983 75.265 382.48 71.386C382.605 70.44 382.75 68.902 382.916 66.773C382.957 66.678 382.978 66.489 382.978 66.205C382.978 65.827 382.957 65.519 382.916 65.283L381.858 65.425L381.485 65.567C381.319 65.567 381.215 65.59 381.174 65.638L379.432 66.063C379.391 66.111 379.287 66.134 379.121 66.134C378.872 66.134 378.665 66.016 378.499 65.78C378.333 65.543 378.23 65.259 378.188 64.928C378.147 64.881 378.126 64.762 378.126 64.573C378.209 64.289 378.354 64.017 378.561 63.757C378.769 63.497 379.018 63.319 379.308 63.225L379.619 63.154C379.66 63.107 379.764 63.083 379.93 63.083L380.365 62.941C380.78 62.799 380.967 62.752 380.925 62.799C380.967 62.752 381.07 62.728 381.236 62.728L381.609 62.586C382.356 62.444 382.916 62.373 383.289 62.373C383.372 62.326 383.579 62.302 383.911 62.302C384.409 62.302 384.823 62.515 385.155 62.941C385.487 63.556 385.632 64.502 385.591 65.78C385.3 68.76 385.114 70.629 385.031 71.386C384.533 75.312 384.118 78.104 383.787 79.76L383.289 82.243L383.165 83.308L382.791 85.437C382.625 86.052 382.522 86.572 382.48 86.998L382.232 88.417C382.024 89.742 381.775 91.067 381.485 92.391C380.365 98.116 379.1 102.373 377.691 105.165Z" fill="#E07B53"/>
</svg>
